<svg width="50" height="68" viewBox="0 0 50 68" fill="none" xmlns="http://www.w3.org/2000/svg">
<path d="M0.222656 23.1214C0.222656 27.1908 1.20833 30.8593 3.17969 34.1272C5.21265 37.395 7.98488 39.9846 11.4964 41.896C15.0079 43.7457 18.9506 44.6705 23.3245 44.6705C24.803 44.6705 26.1276 44.578 27.2981 44.3931C28.5302 44.1464 29.639 43.7765 30.6247 43.2832C31.6104 42.79 32.5036 42.2042 33.3045 41.526C33.2429 43.684 32.7809 45.5646 31.9184 47.1676C31.1176 48.7091 29.9779 49.9114 28.4994 50.7746C27.0824 51.5761 25.3575 51.9769 23.3245 51.9769C21.23 51.9769 19.197 51.5453 17.2256 50.6821C15.2543 49.8189 13.4677 48.5857 11.866 46.9827L2.16321 58.2659C5.05864 61.1638 8.26211 63.3526 11.7736 64.8324C15.3467 66.3738 19.1046 67.1445 23.0473 67.1445C28.5301 67.1445 33.2429 65.7264 37.1856 62.8902C41.1284 60.1156 44.147 56.1387 46.2416 50.9595C48.3978 45.7803 49.4758 39.5838 49.4758 32.3699C49.4758 25.526 48.4902 19.6994 46.5188 14.8902C44.609 10.0809 41.806 6.41233 38.1097 3.88439C34.475 1.2948 30.0395 0 24.803 0C20.1211 0 15.9319 1.04817 12.2356 3.14452C8.53933 5.1792 5.61308 7.95376 3.45691 11.4682C1.30073 14.921 0.222656 18.8054 0.222656 23.1214ZM24.803 14.7052C26.22 14.7052 27.5136 15.106 28.6841 15.9075C29.8546 16.6474 30.8095 17.6647 31.5488 18.9595C32.2881 20.1927 32.6577 21.58 32.6577 23.1214C32.6577 24.5395 32.2881 25.8651 31.5488 27.0983C30.8711 28.2698 29.9471 29.1946 28.7766 29.8728C27.6061 30.5511 26.2816 30.8902 24.803 30.8902C23.3861 30.8902 22.0616 30.5511 20.8295 29.8728C19.659 29.1946 18.7042 28.2698 17.9649 27.0983C17.2872 25.8651 16.9484 24.5395 16.9484 23.1214C16.9484 21.58 17.3181 20.1927 18.0573 18.9595C18.7966 17.6647 19.7514 16.6474 20.9219 15.9075C22.154 15.106 23.4477 14.7052 24.803 14.7052Z" fill="#FF3636"/>
</svg>
