<svg width="263" height="67" viewBox="0 0 263 67" fill="none" xmlns="http://www.w3.org/2000/svg">
<path d="M55.8141 48.8324C55.8141 52.7784 54.736 55.9846 52.5799 58.4509C50.4853 60.9172 47.6515 62.736 44.0784 63.9075C40.5053 65.079 36.5626 65.6647 32.2502 65.6647H0V0H38.0719C41.1521 0 43.8011 0.832369 46.0189 2.49711C48.2983 4.10019 50.0232 6.19653 51.1937 8.78613C52.4258 11.3757 53.0419 14.0578 53.0419 16.8324C53.0419 19.8536 52.241 22.7823 50.6393 25.6185C49.0992 28.4547 46.7582 30.5819 43.6163 32C47.3742 33.1098 50.3313 35.052 52.4874 37.8266C54.7052 40.6012 55.8141 44.2697 55.8141 48.8324ZM37.5174 45.1329C37.5174 44.0231 37.3018 43.0674 36.8706 42.2659C36.5009 41.4027 35.9773 40.7245 35.2997 40.2312C34.622 39.738 33.8211 39.4913 32.8971 39.4913H18.0195V50.4971H32.2502C33.2359 50.4971 34.1292 50.2813 34.93 49.8497C35.7309 49.4181 36.3469 48.8015 36.7782 48C37.271 47.1985 37.5174 46.2428 37.5174 45.1329ZM18.0195 15.3526V25.4335H30.3097C31.1105 25.4335 31.8806 25.3102 32.6198 25.0636C33.3591 24.7553 33.9751 24.2312 34.468 23.4913C34.9608 22.7514 35.2072 21.7033 35.2072 20.3468C35.2072 19.1137 34.9916 18.158 34.5604 17.4798C34.1908 16.7399 33.6671 16.2158 32.9895 15.9075C32.3734 15.5376 31.665 15.3526 30.8641 15.3526H18.0195Z" fill="white"/>
<path d="M63.2464 65.6647V13.1329H78.9557V65.6647H63.2464Z" fill="white"/>
<path d="M104.855 42.2659V65.6647H89.1458V13.1329H101.436L125.832 37.3642V13.1329H141.541V65.6647H129.066L104.855 42.2659Z" fill="white"/>
<path d="M175.247 66.0347C171.674 66.0347 168.286 65.3256 165.082 63.9075C161.879 62.4894 159.045 60.5472 156.581 58.0809C154.117 55.553 152.176 52.6551 150.759 49.3873C149.342 46.1195 148.634 42.6358 148.634 38.9364C148.634 35.237 149.342 31.815 150.759 28.6705C152.176 25.4644 154.147 22.6898 156.673 20.3468C159.261 17.9422 162.249 16.0925 165.637 14.7977C169.087 13.4412 172.783 12.763 176.726 12.763C181.654 12.763 186.09 13.7803 190.032 15.815C193.975 17.8497 196.901 20.6551 198.811 24.2312L187.075 33.2023C186.09 31.2909 184.58 29.7495 182.547 28.578C180.514 27.3449 178.389 26.7283 176.171 26.7283C174.508 26.7283 172.968 27.0366 171.551 27.6532C170.134 28.2697 168.902 29.1329 167.855 30.2428C166.807 31.3526 166.006 32.7091 165.452 34.3121C164.898 35.8536 164.62 37.58 164.62 39.4913C164.62 41.4027 164.898 43.1291 165.452 44.6705C166.068 46.2119 166.9 47.5376 167.947 48.6474C168.994 49.7572 170.257 50.6204 171.736 51.237C173.214 51.7919 174.847 52.0694 176.633 52.0694C178.851 52.0694 181.007 51.5145 183.102 50.4046C185.196 49.2948 187.106 47.7842 188.831 45.8728V61.1329C186.798 62.8593 184.673 64.1233 182.455 64.9249C180.299 65.6647 177.896 66.0347 175.247 66.0347ZM187.999 48.6474H177.188V37.3642H201.029V65.6647H187.999V48.6474Z" fill="white"/>
<path d="M234.302 66.1272C230.113 66.1272 226.293 65.3873 222.844 63.9075C219.394 62.3661 216.406 60.3314 213.88 57.8035C211.416 55.2755 209.506 52.4085 208.151 49.2023C206.795 45.9961 206.118 42.6975 206.118 39.3064C206.118 35.8536 206.826 32.5549 208.243 29.4104C209.66 26.2042 211.631 23.368 214.157 20.9017C216.745 18.4355 219.763 16.4933 223.213 15.0751C226.663 13.5954 230.452 12.8555 234.579 12.8555C238.83 12.8555 242.68 13.6262 246.13 15.1676C249.58 16.6474 252.537 18.6821 255.001 21.2717C257.466 23.7996 259.344 26.6667 260.638 29.8728C261.993 33.079 262.671 36.3468 262.671 39.6763C262.671 43.0674 261.963 46.3661 260.546 49.5723C259.19 52.7168 257.25 55.553 254.724 58.0809C252.198 60.5472 249.21 62.5202 245.761 64C242.311 65.4181 238.491 66.1272 234.302 66.1272ZM222.104 39.4913C222.104 41.0944 222.351 42.6667 222.844 44.2081C223.398 45.6879 224.168 47.0443 225.154 48.2775C226.201 49.4489 227.495 50.4046 229.035 51.1445C230.575 51.8227 232.392 52.1618 234.487 52.1618C236.581 52.1618 238.399 51.7919 239.939 51.052C241.479 50.3121 242.742 49.3256 243.728 48.0925C244.713 46.8593 245.453 45.4721 245.945 43.9306C246.438 42.3892 246.685 40.8478 246.685 39.3064C246.685 37.7033 246.407 36.1618 245.853 34.6821C245.36 33.1407 244.59 31.7842 243.543 30.6127C242.557 29.4412 241.294 28.5164 239.754 27.8382C238.214 27.1599 236.427 26.8208 234.394 26.8208C232.3 26.8208 230.483 27.1908 228.942 27.9306C227.402 28.6089 226.109 29.5645 225.061 30.7977C224.076 32.0308 223.336 33.3873 222.844 34.8671C222.351 36.3468 222.104 37.8882 222.104 39.4913Z" fill="white"/>
</svg>
