<svg width="14" height="13" viewBox="0 0 14 13" fill="none" xmlns="http://www.w3.org/2000/svg">
<path d="M12.4949 1.94989L11.6428 1.60466V7.1715L13.1881 3.55891C13.4488 2.9301 13.1499 2.20881 12.4949 1.94989ZM0.09434 4.23088L3.24854 11.5979C3.34142 11.822 3.49985 12.0149 3.70435 12.1529C3.90884 12.2909 4.15049 12.368 4.39956 12.3746C4.56491 12.3746 4.73661 12.3438 4.90195 12.276L9.58873 10.3957C10.0657 10.2046 10.3582 9.74841 10.3709 9.29221C10.3773 9.13192 10.3455 8.95314 10.2882 8.79286L7.10861 1.42588C7.01873 1.20026 6.86087 1.00609 6.65558 0.868649C6.45029 0.731207 6.20707 0.656856 5.95758 0.655273C5.79224 0.655273 5.6269 0.692263 5.46792 0.747746L0.7875 2.62802C0.476381 2.75153 0.228592 2.98976 0.0986087 3.29033C-0.0313741 3.5909 -0.0329095 3.92921 0.09434 4.23088ZM10.3646 1.88824C10.3646 1.56124 10.2306 1.24763 9.99204 1.0164C9.75352 0.785175 9.43002 0.655273 9.0927 0.655273H8.17061L10.3646 5.79675" fill="white"/>
</svg>
