<svg width="29" height="28" viewBox="0 0 29 28" fill="none" xmlns="http://www.w3.org/2000/svg">
<path d="M26.6779 3.82943L24.9231 3.06033V15.462L28.1053 7.41397C28.6423 6.01311 28.0268 4.40625 26.6779 3.82943ZM1.14154 8.91096L7.63695 25.323C7.82821 25.8223 8.15447 26.2521 8.57559 26.5596C8.99671 26.867 9.49433 27.0387 10.0072 27.0534C10.3477 27.0534 10.7013 26.9848 11.0418 26.8337L20.6932 22.6448C21.6754 22.2191 22.2778 21.2028 22.304 20.1865C22.3171 19.8294 22.2516 19.4311 22.1338 19.074L15.586 2.66205C15.4009 2.15941 15.0758 1.72685 14.653 1.42066C14.2303 1.11448 13.7294 0.948839 13.2157 0.945312C12.8752 0.945312 12.5347 1.02772 12.2073 1.15132L2.56896 5.34015C1.92827 5.61531 1.418 6.14603 1.15033 6.81563C0.882657 7.48524 0.879495 8.23891 1.14154 8.91096ZM22.2909 3.69209C22.2909 2.9636 22.015 2.26495 21.5238 1.74982C21.0326 1.2347 20.3664 0.945313 19.6718 0.945312H17.7729L22.2909 12.3994" fill="url(#paint0_linear_7534_13906)"/>
<defs>
<linearGradient id="paint0_linear_7534_13906" x1="12.4703" y1="1.87775" x2="28.7454" y2="11.4684" gradientUnits="userSpaceOnUse">
<stop stop-color="#FE7F37"/>
<stop offset="1" stop-color="#FF4B4B"/>
</linearGradient>
</defs>
</svg>
