<svg width="70" height="70" viewBox="0 0 70 70" fill="none" xmlns="http://www.w3.org/2000/svg">
<rect width="70" height="70" rx="35" fill="white"/>
<path fill-rule="evenodd" clip-rule="evenodd" d="M51.9811 52.6103C51.9172 50.5033 49.2803 47.0584 46.9937 46.7567C44.7347 46.4647 43.0702 45.2475 41.74 44.0962C41.4146 43.8146 41.1213 43.6787 40.8439 43.6787C40.5145 43.6787 40.2231 43.8674 39.9534 44.2571C39.2348 45.2947 38.2825 46.1263 37.3615 46.9315C36.8822 47.3505 36.3863 47.7832 35.9293 48.2403C35.7566 48.4094 35.6144 48.4879 35.4815 48.4879C35.355 48.4879 35.226 48.4143 35.0876 48.2625C34.6118 47.7381 34.0445 47.3047 33.4955 46.8857C33.1668 46.6347 32.838 46.3836 32.5255 46.1118C30.9706 44.7621 30.3252 43.2411 30.5527 41.4608C30.5597 41.4039 30.5597 41.3408 30.5597 41.2769C30.5593 41.1527 30.5593 41.0237 30.6193 40.9641C30.6508 40.9322 30.7011 40.9169 30.7733 40.9169C30.8038 40.9169 30.8377 40.9197 30.8755 40.9252C30.9955 40.9446 31.1131 40.9578 31.2237 40.9578C31.6076 40.9578 31.8493 40.7907 31.9624 40.4468C32.1521 39.8516 31.7321 39.534 31.3614 39.2545L31.2889 39.1997C29.7749 38.0581 28.608 36.5544 27.7216 34.6038C27.1342 33.3114 27.0742 32.0161 27.5438 30.7535C28.2918 28.7075 29.2114 27.3429 30.5711 26.2939C30.7941 26.1198 30.9287 26.0148 31.0504 26.0148C31.1596 26.0148 31.2869 26.0994 31.5047 26.3172C34.4818 29.2714 37.2525 31.1458 40.2245 32.2156C40.9249 32.4688 41.1428 32.8457 41.0006 33.5604L40.909 34.049C40.5719 35.861 40.2529 37.5727 38.7833 38.8558C38.5786 39.0334 38.4601 39.2552 38.4496 39.4827C38.4399 39.6867 38.521 39.8837 38.6826 40.0508C38.8366 40.2103 39.0149 40.2914 39.2126 40.2914C39.4235 40.2914 39.6495 40.1999 39.8874 40.0195C40.7149 39.3925 41.3189 38.5804 41.683 37.6059C42.2088 36.2083 42.5209 34.8916 42.6374 33.5798C42.6804 33.0613 42.738 32.7326 43.1798 32.5345C43.5606 32.3663 43.7193 32.0251 43.6042 31.6211C43.5072 31.2889 43.2443 31.0974 42.8649 31.0818C40.9742 30.9975 39.379 30.2014 37.5647 29.0323C34.3639 26.9714 31.9798 24.957 30.7477 21.8231C30.5493 21.3082 30.2837 21.0581 29.9352 21.0581C29.8211 21.0581 29.6977 21.0862 29.5683 21.1417C29.3391 21.2408 29.1848 21.3896 29.1102 21.5837C29.0176 21.8254 29.0523 22.1362 29.2108 22.4819C29.4449 22.9927 29.7137 23.4941 29.9984 24.0254C30.1319 24.2744 30.2696 24.531 30.41 24.8005C29.9786 24.9111 29.5319 25.0623 29.1418 25.3692C27.1437 26.927 26.0069 29.0721 25.6667 31.9282C25.3605 34.4753 26.6498 36.5383 28.089 38.388C28.9737 39.5268 28.907 40.8182 28.8426 42.0666C28.8089 42.7144 28.7746 43.385 28.8717 44.0336C28.8776 44.0655 28.7946 44.15 28.7447 44.2008C28.7021 44.2444 28.6591 44.2888 28.6271 44.3318C27.7477 45.5288 26.6904 46.6524 24.9242 46.769C24.4758 46.7953 24.0309 46.9285 23.6006 47.0574C23.2874 47.1518 22.9635 47.2489 22.6438 47.303C20.6037 47.6373 19.2411 48.8434 18.4786 50.9899C18.4349 51.1128 18.377 51.2452 18.317 51.3812C18.128 51.8118 17.9141 52.2994 18.0732 52.6809C18.1548 52.8765 18.3288 53.0277 18.591 53.1276C18.72 53.1775 18.8407 53.2017 18.9495 53.2017C19.5071 53.2017 19.6829 52.5963 19.8383 52.0622C19.882 51.9124 19.9239 51.7667 19.9729 51.6433C20.5769 50.1091 21.5684 49.2179 23.0037 48.9189C23.7566 48.7622 24.5045 48.5791 25.2522 48.3974C25.6972 48.2892 26.142 48.181 26.588 48.077C26.7461 48.0409 26.8883 48.0229 27.0225 48.0229C27.4095 48.0229 27.7268 48.1741 28.0216 48.4987C28.7585 49.3157 29.53 50.1202 30.2759 50.8998C30.6751 51.3159 31.0746 51.7328 31.471 52.1538C31.9738 52.6885 32.3532 52.9166 32.7399 52.9166C33.111 52.9166 33.5014 52.6981 34.0056 52.2065L34.1488 52.067C34.7127 51.5143 35.0234 51.2098 35.27 51.2098C35.5342 51.2098 35.7989 51.567 36.3259 52.2801L36.4216 52.409C36.5465 52.5838 36.6942 52.7808 36.8794 52.9258C37.0736 53.0735 37.3024 53.1588 37.5077 53.1588C37.7158 53.1588 37.8836 53.0749 37.996 52.9153C38.4275 52.2828 39.0169 51.7744 39.5885 51.2827C40.2987 50.671 41.0338 50.0385 41.4624 49.1631C41.9459 48.1735 42.5902 47.7122 43.4884 47.7122C43.804 47.7122 44.1494 47.7691 44.5433 47.8842C44.7625 47.9501 44.9928 47.9889 45.2091 48.0209C47.9896 48.3877 49.6562 49.9801 50.3054 52.8904C50.4039 53.3425 50.587 53.86 51.1371 53.86C51.1918 53.86 51.25 53.8552 51.3125 53.844C52.0088 53.7173 51.9907 53.0244 51.9811 52.6103ZM41.425 46.1852L41.3626 46.317C41.3238 46.4009 41.285 46.4855 41.2343 46.566C40.3049 48.1196 39.1821 49.4443 37.899 50.5033C37.7236 50.6469 37.5855 50.7142 37.4634 50.7142C37.3351 50.7142 37.2089 50.6393 37.0653 50.4783C36.765 50.1385 36.5944 49.8888 36.953 49.5364C37.4427 49.0614 37.9711 48.6092 38.483 48.1715C39.2709 47.4974 40.0852 46.8011 40.7842 46.0007C40.8688 45.9043 40.9549 45.855 41.0402 45.855C41.1844 45.8551 41.3273 46.0007 41.425 46.1852ZM32.3342 50.6434C32.2922 50.5907 32.2509 50.5393 32.2097 50.4957C31.7853 50.0553 31.3677 49.6051 30.9502 49.155C30.3811 48.5419 29.8117 47.928 29.2229 47.3351C29.0096 47.1222 28.9069 46.9273 28.9097 46.74C28.9139 46.4535 29.1636 46.2171 29.4053 45.9896L29.5308 45.8689C29.6591 45.7406 29.7718 45.6755 29.8658 45.6755C30.0336 45.6755 30.1533 45.8953 30.259 46.0895C30.302 46.1686 30.3436 46.2442 30.3863 46.3038C30.9026 47.0189 31.5979 47.5425 32.27 48.0488C32.7097 48.3796 33.1644 48.7222 33.5601 49.1128L33.6783 49.2216C33.8534 49.3804 34.0192 49.5302 34.0615 49.7389C33.81 50.1842 33.4376 50.5608 32.9216 50.8902C32.8564 50.9333 32.7964 50.9541 32.7391 50.9541C32.5849 50.9541 32.4573 50.796 32.3342 50.6434Z" fill="#7F5AEF"/>
<path fill-rule="evenodd" clip-rule="evenodd" d="M23.2103 36.7327C23.3532 36.7507 23.485 36.7597 23.6056 36.7597C24.4012 36.7597 24.7503 36.3525 24.7733 35.3986C24.8063 33.8683 24.8042 32.3656 24.7666 30.9327C24.6911 28.377 25.0992 25.9259 26.0144 23.4398C26.6819 21.614 27.9463 20.1555 29.7718 19.1047C31.2365 18.2682 32.8213 17.8441 34.4824 17.8441C38.5539 17.8441 42.2118 20.3922 43.3784 24.0411C44.074 26.2005 44.3521 28.1428 44.2287 29.9877C44.3036 31.6027 44.1967 33.0331 43.9027 34.3602C43.5955 35.7009 43.2535 36.8914 42.8583 37.9997C42.1493 39.9874 40.8178 41.2733 38.9001 41.8205L38.7961 41.8504C38.6539 41.892 38.5068 41.9343 38.3764 41.9343C38.2295 41.9343 38.1267 41.8781 38.0546 41.7561C37.4602 40.7637 36.5718 40.6298 35.7804 40.6298C35.5446 40.6298 35.3046 40.6422 35.0644 40.6547L34.9208 40.6624C33.7067 40.7283 32.9302 41.4898 32.8443 42.6993C32.7503 43.9158 33.5319 44.9173 34.703 45.0803C34.9862 45.1198 35.2426 45.1392 35.4861 45.1392C36.4393 45.1392 37.1779 44.8313 37.7446 44.1973C38.1461 43.757 38.6921 43.5745 39.174 43.4538C41.9163 42.7478 43.7036 40.966 44.6365 38.0066C44.8501 37.3339 45.147 37.0966 45.812 37.0676C47.4121 36.9885 48.4011 36.1839 48.7541 34.6748C49.1321 33.0557 49.0212 31.4174 48.4241 29.8056C48.1209 28.989 47.6487 28.5423 47.0584 28.5139C46.0056 28.4497 45.9043 27.7822 45.7863 27.0092L45.7697 26.8979C45.4049 24.4842 44.7821 22.6415 43.8069 21.0983C42.311 18.7104 38.753 16.14 34.4775 16.14C33.4132 16.14 32.3677 16.3075 31.3703 16.638C28.1404 17.7123 26.1072 19.3318 24.9719 21.735C24.0501 23.6863 23.479 25.4972 23.2255 27.271C23.1354 27.8969 22.9082 28.1282 22.3263 28.1864C21.2901 28.2846 20.6222 28.9535 20.4453 30.0701C20.3074 30.9898 20.1634 32.0783 20.1426 33.1807C20.0976 35.6126 20.8144 36.4421 23.2103 36.7327ZM22.5823 29.9195L22.6225 29.9847C22.9297 30.01 23.0046 30.2264 23.0258 30.5659L23.0594 31.2598C23.1073 32.2498 23.1551 33.2427 23.1864 34.2303L23.1916 34.3538C23.2093 34.7009 23.1958 34.9149 22.8632 34.9547C22.8195 34.9603 22.7768 34.963 22.7353 34.963C22.3877 34.963 22.1201 34.764 21.982 34.4036C21.8389 34.0124 21.8499 33.6175 21.8621 33.1989C21.8673 33.019 21.8721 32.8386 21.8645 32.6604C21.8437 31.8454 21.9186 31.1297 22.0934 30.4715C22.1828 30.1337 22.3323 29.9832 22.5778 29.9832V29.9201C22.5795 29.9202 22.5805 29.9195 22.5823 29.9195ZM46.4217 30.199C46.6554 30.199 46.8309 30.3492 46.9432 30.646C47.2123 31.3284 47.3566 32.0854 47.3302 32.6743C47.317 33.9542 47.2248 34.8958 46.147 35.3573C45.9639 35.4343 45.8251 35.4714 45.7211 35.4714C45.6435 35.4714 45.5866 35.4503 45.5478 35.4062C45.4736 35.3213 45.4527 35.1444 45.4867 34.8802C45.5421 34.4612 45.6149 34.0444 45.6871 33.6272C45.8459 32.7082 46.011 31.7581 45.9888 30.7985C45.9818 30.4669 46.0415 30.2387 46.355 30.2027C46.3787 30.2001 46.4002 30.199 46.4217 30.199Z" fill="#7F5AEF"/>
</svg>
