<svg width="86" height="87" viewBox="0 0 86 87" fill="none" xmlns="http://www.w3.org/2000/svg">
<g filter="url(#filter0_d_5710_945)">
<rect x="8" y="8.14001" width="70" height="70" rx="35" fill="#7F5AEF" shape-rendering="crispEdges"/>
<path fill-rule="evenodd" clip-rule="evenodd" d="M59.9811 60.7504C59.9172 58.6433 57.2803 55.1984 54.9937 54.8967C52.7347 54.6047 51.0702 53.3875 49.74 52.2362C49.4146 51.9546 49.1213 51.8187 48.8439 51.8187C48.5145 51.8187 48.2231 52.0074 47.9534 52.3972C47.2348 53.4347 46.2825 54.2663 45.3615 55.0716C44.8822 55.4905 44.3863 55.9232 43.9293 56.3803C43.7566 56.5495 43.6144 56.6279 43.4815 56.6279C43.355 56.6279 43.226 56.5543 43.0876 56.4025C42.6118 55.8781 42.0445 55.4447 41.4955 55.0257C41.1668 54.7747 40.838 54.5237 40.5255 54.2518C38.9706 52.9021 38.3252 51.3811 38.5527 49.6008C38.5597 49.5439 38.5597 49.4808 38.5597 49.4169C38.5593 49.2927 38.5593 49.1638 38.6193 49.1041C38.6508 49.0722 38.7011 49.0569 38.7733 49.0569C38.8038 49.0569 38.8377 49.0597 38.8755 49.0653C38.9955 49.0847 39.1131 49.0979 39.2237 49.0979C39.6076 49.0979 39.8493 48.9307 39.9624 48.5868C40.1521 47.9916 39.7321 47.674 39.3614 47.3945L39.2889 47.3397C37.7749 46.1981 36.608 44.6944 35.7216 42.7438C35.1342 41.4514 35.0742 40.1561 35.5438 38.8935C36.2918 36.8476 37.2114 35.483 38.5711 34.4339C38.7941 34.2598 38.9287 34.1548 39.0504 34.1548C39.1596 34.1548 39.2869 34.2394 39.5047 34.4572C42.4818 37.4115 45.2525 39.2858 48.2245 40.3556C48.9249 40.6088 49.1428 40.9857 49.0006 41.7004L48.909 42.189C48.5719 44.001 48.2529 45.7127 46.7833 46.9958C46.5786 47.1734 46.4601 47.3953 46.4496 47.6228C46.4399 47.8267 46.521 48.0237 46.6826 48.1908C46.8366 48.3503 47.0149 48.4314 47.2126 48.4314C47.4235 48.4314 47.6495 48.3399 47.8874 48.1595C48.7149 47.5326 49.3189 46.7204 49.683 45.7459C50.2088 44.3484 50.5209 43.0316 50.6374 41.7198C50.6804 41.2013 50.738 40.8726 51.1798 40.6745C51.5606 40.5063 51.7193 40.1651 51.6042 39.7611C51.5072 39.4289 51.2443 39.2374 50.8649 39.2218C48.9742 39.1375 47.379 38.3414 45.5647 37.1723C42.3639 35.1114 39.9798 33.097 38.7477 29.9631C38.5493 29.4482 38.2837 29.1981 37.9352 29.1981C37.8211 29.1981 37.6977 29.2262 37.5683 29.2817C37.3391 29.3808 37.1848 29.5296 37.1102 29.7238C37.0176 29.9654 37.0523 30.2762 37.2108 30.6219C37.4449 31.1327 37.7137 31.6342 37.9984 32.1654C38.1319 32.4144 38.2696 32.671 38.41 32.9405C37.9786 33.0511 37.5319 33.2023 37.1418 33.5092C35.1437 35.067 34.0069 37.2121 33.6667 40.0682C33.3605 42.6153 34.6498 44.6783 36.089 46.528C36.9737 47.6668 36.907 48.9582 36.8426 50.2066C36.8089 50.8544 36.7746 51.5251 36.8717 52.1736C36.8776 52.2055 36.7946 52.2901 36.7447 52.3408C36.7021 52.3844 36.6591 52.4288 36.6271 52.4718C35.7477 53.6688 34.6904 54.7924 32.9242 54.909C32.4758 54.9353 32.0309 55.0685 31.6006 55.1975C31.2874 55.2918 30.9635 55.3889 30.6438 55.443C28.6037 55.7773 27.2411 56.9834 26.4786 59.13C26.4349 59.2528 26.377 59.3852 26.317 59.5212C26.128 59.9519 25.9141 60.4395 26.0732 60.8209C26.1548 61.0165 26.3288 61.1677 26.591 61.2676C26.72 61.3175 26.8407 61.3417 26.9495 61.3417C27.5071 61.3417 27.6829 60.7363 27.8383 60.2022C27.882 60.0524 27.9239 59.9067 27.9729 59.7833C28.5769 58.2491 29.5684 57.3579 31.0037 57.0589C31.7566 56.9023 32.5045 56.7191 33.2522 56.5375C33.6972 56.4292 34.142 56.3211 34.588 56.217C34.7461 56.1809 34.8883 56.1629 35.0225 56.1629C35.4095 56.1629 35.7268 56.3141 36.0216 56.6387C36.7585 57.4557 37.53 58.2602 38.2759 59.0398C38.6751 59.456 39.0746 59.8728 39.471 60.2938C39.9738 60.8286 40.3532 61.0567 40.7399 61.0567C41.111 61.0567 41.5014 60.8381 42.0056 60.3465L42.1488 60.2071C42.7127 59.6543 43.0234 59.3498 43.27 59.3498C43.5342 59.3498 43.7989 59.707 44.3259 60.4201L44.4216 60.5491C44.5465 60.7238 44.6942 60.9208 44.8794 61.0658C45.0736 61.2135 45.3024 61.2988 45.5077 61.2988C45.7158 61.2988 45.8836 61.2149 45.996 61.0553C46.4275 60.4228 47.0169 59.9144 47.5885 59.4227C48.2987 58.811 49.0338 58.1785 49.4624 57.3031C49.9459 56.3135 50.5902 55.8522 51.4884 55.8522C51.804 55.8522 52.1494 55.9091 52.5433 56.0242C52.7625 56.0901 52.9928 56.1289 53.2091 56.1609C55.9896 56.5277 57.6562 58.1201 58.3054 61.0304C58.4039 61.4825 58.587 62 59.1371 62C59.1918 62 59.25 61.9952 59.3125 61.984C60.0088 61.8573 59.9907 61.1644 59.9811 60.7504ZM49.425 54.3252L49.3626 54.457C49.3238 54.5409 49.285 54.6255 49.2343 54.706C48.3049 56.2596 47.1821 57.5843 45.899 58.6433C45.7236 58.7869 45.5855 58.8542 45.4634 58.8542C45.3351 58.8542 45.2089 58.7793 45.0653 58.6184C44.765 58.2785 44.5944 58.0288 44.953 57.6764C45.4427 57.2014 45.9711 56.7492 46.483 56.3115C47.2709 55.6374 48.0852 54.9411 48.7842 54.1407C48.8688 54.0443 48.9549 53.995 49.0402 53.995C49.1844 53.9951 49.3273 54.1407 49.425 54.3252ZM40.3342 58.7834C40.2922 58.7307 40.2509 58.6793 40.2097 58.6357C39.7853 58.1953 39.3677 57.7451 38.9502 57.295C38.3811 56.6819 37.8117 56.068 37.2229 55.4752C37.0096 55.2622 36.9069 55.0673 36.9097 54.88C36.9139 54.5935 37.1636 54.3571 37.4053 54.1296L37.5308 54.009C37.6591 53.8806 37.7718 53.8155 37.8658 53.8155C38.0336 53.8155 38.1533 54.0353 38.259 54.2295C38.302 54.3086 38.3436 54.3842 38.3863 54.4438C38.9026 55.1589 39.5979 55.6825 40.27 56.1888C40.7097 56.5196 41.1644 56.8622 41.5601 57.2528L41.6783 57.3616C41.8534 57.5204 42.0192 57.6703 42.0615 57.879C41.81 58.3242 41.4376 58.7009 40.9216 59.0303C40.8564 59.0733 40.7964 59.0941 40.7391 59.0941C40.5849 59.0941 40.4573 58.9361 40.3342 58.7834Z" fill="white"/>
<path fill-rule="evenodd" clip-rule="evenodd" d="M31.2103 44.8727C31.3532 44.8907 31.485 44.8997 31.6056 44.8997C32.4012 44.8997 32.7503 44.4926 32.7733 43.5386C32.8063 42.0083 32.8042 40.5056 32.7666 39.0727C32.6911 36.517 33.0992 34.0659 34.0144 31.5798C34.6819 29.7541 35.9463 28.2955 37.7718 27.2447C39.2365 26.4083 40.8213 25.9841 42.4824 25.9841C46.5539 25.9841 50.2118 28.5323 51.3784 32.1811C52.074 34.3405 52.3521 36.2828 52.2287 38.1277C52.3036 39.7427 52.1967 41.1731 51.9027 42.5003C51.5955 43.8409 51.2535 45.0314 50.8583 46.1397C50.1493 48.1274 48.8178 49.4133 46.9001 49.9605L46.7961 49.9904C46.6539 50.032 46.5068 50.0743 46.3764 50.0743C46.2295 50.0743 46.1267 50.0181 46.0546 49.8961C45.4602 48.9037 44.5718 48.7698 43.7804 48.7698C43.5446 48.7698 43.3046 48.7822 43.0644 48.7947L42.9208 48.8024C41.7067 48.8683 40.9302 49.6298 40.8443 50.8393C40.7503 52.0558 41.5319 53.0573 42.703 53.2203C42.9862 53.2598 43.2426 53.2792 43.4861 53.2792C44.4393 53.2792 45.1779 52.9713 45.7446 52.3373C46.1461 51.897 46.6921 51.7145 47.174 51.5938C49.9163 50.8878 51.7036 49.106 52.6365 46.1466C52.8501 45.4739 53.147 45.2366 53.812 45.2076C55.4121 45.1285 56.4011 44.3239 56.7541 42.8148C57.1321 41.1957 57.0212 39.5575 56.4241 37.9457C56.1209 37.129 55.6487 36.6824 55.0584 36.6539C54.0056 36.5897 53.9043 35.9222 53.7863 35.1492L53.7697 35.0379C53.4049 32.6243 52.7821 30.7815 51.8069 29.2383C50.311 26.8504 46.753 24.28 42.4775 24.28C41.4132 24.28 40.3677 24.4475 39.3703 24.778C36.1404 25.8524 34.1072 27.4718 32.9719 29.875C32.0501 31.8264 31.479 33.6372 31.2255 35.411C31.1354 36.0369 30.9082 36.2682 30.3263 36.3265C29.2901 36.4246 28.6222 37.0935 28.4453 38.2101C28.3074 39.1299 28.1634 40.2184 28.1426 41.3207C28.0976 43.7526 28.8144 44.5821 31.2103 44.8727ZM30.5823 38.0596L30.6225 38.1247C30.9297 38.15 31.0046 38.3664 31.0258 38.7059L31.0594 39.3998C31.1073 40.3898 31.1551 41.3827 31.1864 42.3703L31.1916 42.4938C31.2093 42.8409 31.1958 43.0549 30.8632 43.0947C30.8195 43.1003 30.7768 43.103 30.7353 43.103C30.3877 43.103 30.1201 42.904 29.982 42.5437C29.8389 42.1525 29.8499 41.7575 29.8621 41.3389C29.8673 41.159 29.8721 40.9787 29.8645 40.8004C29.8437 39.9854 29.9186 39.2697 30.0934 38.6115C30.1828 38.2737 30.3323 38.1232 30.5778 38.1232V38.0601C30.5795 38.0602 30.5805 38.0596 30.5823 38.0596ZM54.4217 38.339C54.6554 38.339 54.8309 38.4892 54.9432 38.786C55.2123 39.4685 55.3566 40.2255 55.3302 40.8143C55.317 42.0943 55.2248 43.0358 54.147 43.4973C53.9639 43.5743 53.8251 43.6114 53.7211 43.6114C53.6435 43.6114 53.5866 43.5903 53.5478 43.5463C53.4736 43.4613 53.4527 43.2844 53.4867 43.0202C53.5421 42.6013 53.6149 42.1845 53.6871 41.7672C53.8459 40.8482 54.011 39.8981 53.9888 38.9385C53.9818 38.6069 54.0415 38.3788 54.355 38.3427C54.3787 38.3401 54.4002 38.339 54.4217 38.339Z" fill="white"/>
</g>
<defs>
<filter id="filter0_d_5710_945" x="0" y="0.140015" width="86" height="86" filterUnits="userSpaceOnUse" color-interpolation-filters="sRGB">
<feFlood flood-opacity="0" result="BackgroundImageFix"/>
<feColorMatrix in="SourceAlpha" type="matrix" values="0 0 0 0 0 0 0 0 0 0 0 0 0 0 0 0 0 0 127 0" result="hardAlpha"/>
<feOffset/>
<feGaussianBlur stdDeviation="4"/>
<feComposite in2="hardAlpha" operator="out"/>
<feColorMatrix type="matrix" values="0 0 0 0 0.28034 0 0 0 0 0.127938 0 0 0 0 0.741667 0 0 0 0.86 0"/>
<feBlend mode="normal" in2="BackgroundImageFix" result="effect1_dropShadow_5710_945"/>
<feBlend mode="normal" in="SourceGraphic" in2="effect1_dropShadow_5710_945" result="shape"/>
</filter>
</defs>
</svg>
