<svg width="25" height="24" viewBox="0 0 25 24" fill="none" xmlns="http://www.w3.org/2000/svg">
<path d="M20.261 9.92683H15.9826C16.0192 9.69078 16.0375 9.45226 16.0375 9.21339V4.63974C16.0361 3.40963 15.5469 2.23031 14.6771 1.36049C13.8072 0.490667 12.6279 0.0013912 11.3978 0H4.63974C3.40963 0.00139285 2.2303 0.490669 1.36048 1.36049C0.490666 2.23031 0.00139119 3.40964 0 4.63974V9.21338C0.00139285 10.4435 0.490668 11.6228 1.36049 12.4926C2.2303 13.3625 3.40963 13.8517 4.63974 13.8531H8.91926C8.88215 14.0891 8.86342 14.3276 8.86325 14.5665V19.1402C8.86464 20.3703 9.35391 21.5496 10.2237 22.4194C11.0935 23.2893 12.2729 23.7785 13.503 23.7799H20.2611C21.4912 23.7785 22.6705 23.2893 23.5403 22.4194C24.4101 21.5496 24.8994 20.3703 24.9008 19.1402V14.5665C24.8994 13.3364 24.4101 12.1571 23.5403 11.2873C22.6705 10.4175 21.4911 9.92821 20.261 9.92683ZM0.999969 9.21338V4.63974C1.00106 3.67475 1.38489 2.7496 2.06724 2.06725C2.74959 1.38491 3.67475 1.00109 4.63974 1H11.3978C12.3628 1.00109 13.2879 1.38491 13.9703 2.06726C14.6526 2.74961 15.0365 3.67476 15.0375 4.63974V9.21338C15.0365 10.1784 14.6526 11.1035 13.9703 11.7859C13.2879 12.4682 12.3628 12.852 11.3978 12.8531H4.63974C3.67475 12.852 2.74959 12.4682 2.06724 11.7859C1.38489 11.1035 1.00106 10.1784 0.999969 9.21338ZM20.636 15.6905H19.4173C19.0847 16.8779 18.4662 17.9657 17.6159 18.8587C18.0421 19.1995 18.503 19.4944 18.991 19.7387L19.6712 20.0803C19.7299 20.1098 19.7822 20.1505 19.8252 20.2002C19.8681 20.2498 19.9008 20.3075 19.9215 20.3698C19.9421 20.4321 19.9503 20.4979 19.9456 20.5634C19.9408 20.6289 19.9232 20.6928 19.8937 20.7515C19.8642 20.8102 19.8235 20.8625 19.7738 20.9054C19.7241 20.9484 19.6665 20.9811 19.6042 21.0018C19.5418 21.0224 19.4761 21.0306 19.4106 21.0258C19.3451 21.0211 19.2812 21.0034 19.2225 20.974L18.5423 20.6324C17.9489 20.3359 17.3912 19.973 16.8797 19.5507C16.37 19.9731 15.8137 20.336 15.2217 20.6324L14.5415 20.9739C14.423 21.0335 14.2857 21.0434 14.1598 21.0017C14.0339 20.96 13.9298 20.87 13.8703 20.7515C13.8108 20.633 13.8008 20.4957 13.8425 20.3698C13.8842 20.2439 13.9742 20.1398 14.0928 20.0803L14.7729 19.7387C15.2597 19.4948 15.7194 19.2002 16.1444 18.8597C15.6408 18.3258 15.2157 17.723 14.8818 17.0695C14.8519 17.011 14.8339 16.9472 14.8288 16.8817C14.8236 16.8163 14.8314 16.7504 14.8517 16.688C14.872 16.6255 14.9044 16.5677 14.947 16.5178C14.9897 16.4678 15.0417 16.4268 15.1002 16.397C15.1587 16.3672 15.2225 16.3492 15.288 16.344C15.3534 16.3389 15.4193 16.3466 15.4817 16.3669C15.5442 16.3872 15.602 16.4196 15.652 16.4622C15.7019 16.5049 15.7429 16.5569 15.7727 16.6155C16.0653 17.1876 16.4381 17.7151 16.8799 18.1818C17.5568 17.4728 18.067 16.6217 18.3733 15.6905H13.1279C12.9953 15.6905 12.8681 15.6378 12.7744 15.5441C12.6806 15.4503 12.6279 15.3231 12.6279 15.1905C12.6279 15.0579 12.6806 14.9307 12.7744 14.837C12.8681 14.7432 12.9953 14.6905 13.1279 14.6905H16.382V13.1796C16.382 13.047 16.4347 12.9198 16.5285 12.8261C16.6222 12.7323 16.7494 12.6796 16.882 12.6796C17.0146 12.6796 17.1418 12.7323 17.2356 12.8261C17.3293 12.9198 17.382 13.047 17.382 13.1796V14.6905H20.636C20.7687 14.6905 20.8958 14.7432 20.9896 14.837C21.0834 14.9307 21.136 15.0579 21.136 15.1905C21.136 15.3231 21.0834 15.4503 20.9896 15.5441C20.8958 15.6378 20.7687 15.6905 20.636 15.6905Z" fill="white"/>
<path d="M8.9137 4.24048C8.75043 3.83664 8.40766 3.58575 8.01914 3.58575C7.63062 3.58575 7.28781 3.83664 7.12455 4.24051L4.96613 9.57999C4.94152 9.64086 4.92914 9.70599 4.92971 9.77165C4.93027 9.83731 4.94376 9.90221 4.9694 9.96266C4.99505 10.0231 5.03235 10.0779 5.07918 10.1239C5.126 10.17 5.18143 10.2063 5.24231 10.2309C5.30319 10.2555 5.36831 10.2679 5.43397 10.2673C5.49963 10.2668 5.56453 10.2533 5.62498 10.2276C5.68543 10.202 5.74023 10.1647 5.78626 10.1179C5.83229 10.0711 5.86864 10.0156 5.89325 9.95474L6.70246 7.95294H9.33579L10.145 9.95474C10.1695 10.0158 10.2058 10.0714 10.2518 10.1185C10.2978 10.1655 10.3526 10.2029 10.4131 10.2287C10.4737 10.2545 10.5387 10.2681 10.6045 10.2687C10.6702 10.2693 10.7355 10.2569 10.7965 10.2323C10.8575 10.2076 10.913 10.1712 10.9599 10.125C11.0068 10.0789 11.0441 10.0239 11.0697 9.96334C11.0953 9.90274 11.1087 9.83769 11.1091 9.7719C11.1095 9.70612 11.0969 9.6409 11.0721 9.57999L8.9137 4.24048ZM7.1067 6.95294L8.01914 4.69577L8.93156 6.95294H7.1067Z" fill="white"/>
</svg>
