<svg width="43" height="43" viewBox="0 0 43 43" fill="none" xmlns="http://www.w3.org/2000/svg">
<path d="M43 7.84178V35.2255C42.9904 39.5255 39.4679 43.0095 35.1583 43H7.77464C3.47453 42.9904 -0.00955761 39.4583 1.96979e-05 35.1582V7.77455C0.00969473 3.47463 3.54177 -0.00946028 7.84178 1.92984e-05H35.2256C39.5254 0.00969433 43.0097 3.53219 43 7.84178Z" fill="#39AE41"/>
<path d="M37.0869 19.609C37.0869 12.6024 30.0608 6.90106 21.4321 6.90106C12.8033 6.90106 5.77734 12.6024 5.77734 19.609C5.77734 25.8861 11.3444 31.1461 18.8692 32.1444C20.7026 32.5378 20.4914 33.2098 20.0787 35.6764C20.0115 36.0699 19.762 37.2218 21.432 36.5213C23.1021 35.8205 30.4448 31.2134 33.7369 27.4317C36.0021 24.9359 37.0869 22.4118 37.0869 19.609Z" fill="#FEFEFE"/>
<path d="M25.8005 16.2306H24.7065C24.5335 16.2306 24.3992 16.365 24.3992 16.5378V20.5882L21.2701 16.365C21.2221 16.2786 21.1166 16.2306 21.0206 16.2306H19.9361C19.7633 16.2306 19.6289 16.365 19.6289 16.5378V23.3622C19.6289 23.5349 19.7633 23.6695 19.9361 23.6695H21.0301C21.203 23.6695 21.3373 23.5349 21.3373 23.3622V19.3117L24.4663 23.5349C24.5145 23.6021 24.6106 23.6596 24.716 23.6596H25.8102C25.983 23.6596 26.1173 23.5252 26.1173 23.3523V16.5282C26.1172 16.365 25.9734 16.2209 25.8005 16.2306Z" fill="#39AE41"/>
<path d="M18.2469 16.2211H17.1529C16.98 16.2211 16.8457 16.3554 16.8457 16.5283V23.3524C16.8457 23.5253 16.9801 23.6597 17.1529 23.6597H18.2469C18.4198 23.6597 18.5541 23.5253 18.5541 23.3524V16.5283C18.5541 16.3651 18.4198 16.2211 18.2469 16.2211Z" fill="#39AE41"/>
<path d="M15.6076 21.9418H12.6226V16.5283C12.6226 16.3554 12.4883 16.2211 12.3154 16.2211H11.2212C11.0483 16.2211 10.9141 16.3554 10.9141 16.5283V23.3525C10.9141 23.439 10.9429 23.5062 11.0004 23.5635C11.058 23.6117 11.1252 23.6502 11.2115 23.6502H15.5981C15.7708 23.6502 15.9052 23.5158 15.9052 23.343V22.2487C15.9052 22.0855 15.7707 21.9418 15.6076 21.9418Z" fill="#39AE41"/>
<path d="M31.8771 17.9295C32.05 17.9295 32.1842 17.7953 32.1842 17.6225V16.5283C32.1746 16.3651 32.0404 16.2211 31.8771 16.2211H27.4907C27.3275 16.2211 27.1836 16.3554 27.1836 16.5283V23.3524C27.1836 23.5159 27.3179 23.6597 27.4907 23.6597H31.8771C32.05 23.6597 32.1842 23.5253 32.1842 23.3524V22.2585C32.1842 22.0855 32.05 21.9512 31.8771 21.9512H28.8922V20.7994H31.8771C32.05 20.7994 32.1842 20.665 32.1842 20.4923V19.3884C32.1842 19.2157 32.05 19.0813 31.8771 19.0813H28.8922V17.9294H31.8771V17.9295Z" fill="#39AE41"/>
</svg>
