<svg width="43" height="43" viewBox="0 0 43 43" fill="none" xmlns="http://www.w3.org/2000/svg">
<path fill-rule="evenodd" clip-rule="evenodd" d="M21.5 43C33.3741 43 43 33.3741 43 21.5C43 9.62588 33.3741 0 21.5 0C9.62588 0 0 9.62588 0 21.5C0 33.3741 9.62588 43 21.5 43Z" fill="#FF3636"/>
<path fill-rule="evenodd" clip-rule="evenodd" d="M10.75 15.6247V27.7993C10.75 28.4616 11.2348 28.9984 11.9027 28.9984H30.9031C31.5703 28.9984 32.0558 28.4554 32.0558 27.7993V15.6247C32.0558 14.8979 31.6216 14.3333 30.9031 14.3333H11.9027C11.1564 14.3333 10.75 14.9118 10.75 15.6247ZM12.5019 16.6852C12.5019 16.3918 12.6795 16.224 12.9631 16.224C13.1386 16.224 20.0429 20.5989 20.4611 20.8555L21.5416 21.5275C21.8842 21.298 22.2282 21.1017 22.5833 20.8638C23.3081 20.4005 29.7567 16.224 29.9342 16.224C30.2186 16.224 30.3955 16.3918 30.3955 16.6852C30.3955 16.9959 29.7969 17.3045 29.4071 17.5424C26.9582 19.0349 24.51 20.662 22.0854 22.21C21.9439 22.3057 21.6699 22.5103 21.4646 22.4791C21.2358 22.4437 14.2101 17.9301 12.9319 17.1783C12.7398 17.0652 12.5019 16.9619 12.5019 16.6852Z" fill="white"/>
</svg>
