<svg width="43" height="43" viewBox="0 0 43 43" fill="none" xmlns="http://www.w3.org/2000/svg">
<path d="M21.5 43C33.3741 43 43 33.3741 43 21.5C43 9.62588 33.3741 0 21.5 0C9.62588 0 0 9.62588 0 21.5C0 33.3741 9.62588 43 21.5 43Z" fill="url(#paint0_linear_5897_290)"/>
<path d="M31.9645 12.3709L28.1264 31.7293C28.1264 31.7293 27.5889 33.073 26.1108 32.4264L17.2504 25.632L14.0254 24.0783L8.60001 22.2558C8.60001 22.2558 7.76857 21.9619 7.68458 21.3152C7.6006 20.6685 8.62521 20.3242 8.62521 20.3242L30.1924 11.867C30.1924 11.8586 31.9645 11.0775 31.9645 12.3709Z" fill="white"/>
<path d="M16.5617 31.511C16.5617 31.511 16.3014 31.4858 15.9822 30.4695C15.6631 29.4533 14.0254 24.0783 14.0254 24.0783L27.0514 15.8059C27.0514 15.8059 27.8072 15.3524 27.7736 15.8059C27.7736 15.8059 27.908 15.8899 27.5049 16.2594C27.1018 16.6373 17.2756 25.4725 17.2756 25.4725" fill="#D2E4F0"/>
<path d="M20.6436 28.2355L17.1414 31.4354C17.1414 31.4354 16.8643 31.6453 16.5703 31.5109L17.2422 25.5732" fill="#B5CFE4"/>
<defs>
<linearGradient id="paint0_linear_5897_290" x1="21.5" y1="0" x2="21.5" y2="42.8431" gradientUnits="userSpaceOnUse">
<stop stop-color="#41BCE7"/>
<stop offset="1" stop-color="#22A6DC"/>
</linearGradient>
</defs>
</svg>
