<svg width="86" height="86" viewBox="0 0 86 86" fill="none" xmlns="http://www.w3.org/2000/svg">
<g filter="url(#filter0_d_5710_939)">
<rect x="8" y="8" width="70" height="70" rx="35" fill="#FF3636" shape-rendering="crispEdges"/>
<path fill-rule="evenodd" clip-rule="evenodd" d="M61 55.097C61 57.253 59.2485 59 57.087 59H28.913C26.7515 59 25 57.253 25 55.097V32.4595C25 30.7352 26.4017 29.3371 28.1304 29.3371H43.9164L50.2548 27.0468C50.6563 26.9009 51.1008 27.1077 51.2471 27.5066L51.9147 29.3371H54.7391C56.4679 29.3371 57.8696 30.7352 57.8696 32.4595V34.0207C59.5983 34.0207 61 35.4188 61 37.1431V55.097ZM28.1304 30.8983C27.2664 30.8983 26.5652 31.5977 26.5652 32.4595C26.5652 33.3213 27.2664 34.0207 28.1304 34.0207H30.8265H30.9744C30.9846 34.0168 30.9909 34.0082 31.001 34.0043L39.5957 30.8983H28.1304ZM50.8871 31.0396L50.056 28.7571L48.4501 29.3371H48.4524L44.1371 30.8983H44.1293L35.4901 34.0207H51.9734L50.8871 31.0396ZM56.3043 32.4595C56.3043 31.5977 55.6031 30.8983 54.7391 30.8983H52.4829L53.6208 34.0207H56.3043V32.4595ZM57.8696 35.5819H28.1304C27.5576 35.5819 27.027 35.4172 26.5652 35.1487V55.097C26.5652 56.3904 27.617 57.4388 28.913 57.4388H57.087C58.3837 57.4388 59.4348 56.3904 59.4348 55.097V49.6328H56.3043C54.5756 49.6328 53.1739 48.2347 53.1739 46.5104C53.1739 44.786 54.5756 43.388 56.3043 43.388H59.4348V37.1431C59.4348 36.2814 58.7336 35.5819 57.8696 35.5819ZM59.4348 48.0716V44.9492H56.3043C55.4403 44.9492 54.7391 45.6486 54.7391 46.5104C54.7391 47.3722 55.4403 48.0716 56.3043 48.0716H59.4348ZM56.3043 45.7298H57.8696V47.291H56.3043V45.7298Z" fill="white"/>
</g>
<defs>
<filter id="filter0_d_5710_939" x="0" y="0" width="86" height="86" filterUnits="userSpaceOnUse" color-interpolation-filters="sRGB">
<feFlood flood-opacity="0" result="BackgroundImageFix"/>
<feColorMatrix in="SourceAlpha" type="matrix" values="0 0 0 0 0 0 0 0 0 0 0 0 0 0 0 0 0 0 127 0" result="hardAlpha"/>
<feOffset/>
<feGaussianBlur stdDeviation="4"/>
<feComposite in2="hardAlpha" operator="out"/>
<feColorMatrix type="matrix" values="0 0 0 0 0.683333 0 0 0 0 0 0 0 0 0 0 0 0 0 0.57 0"/>
<feBlend mode="normal" in2="BackgroundImageFix" result="effect1_dropShadow_5710_939"/>
<feBlend mode="normal" in="SourceGraphic" in2="effect1_dropShadow_5710_939" result="shape"/>
</filter>
</defs>
</svg>
