<svg width="435" height="361" viewBox="0 0 435 361" fill="none" xmlns="http://www.w3.org/2000/svg">
<path fill-rule="evenodd" clip-rule="evenodd" d="M222.257 334.742C233.213 335.653 242.832 327.51 243.743 316.554C244.654 305.599 236.51 295.979 225.555 295.069C214.599 294.158 204.98 302.301 204.069 313.257C203.159 324.212 211.302 333.832 222.257 334.742ZM221.918 338.823C235.127 339.921 246.726 330.103 247.824 316.893C248.922 303.684 239.103 292.086 225.894 290.988C212.685 289.89 201.087 299.708 199.989 312.918C198.891 326.127 208.709 337.725 221.918 338.823Z" fill="black" fill-opacity="0.5"/>
<path d="M221.959 310.564L220.244 324.356L216.017 323.809L217.016 314.621L215.37 315.563L214.187 312.113L217.557 310.002L221.959 310.564ZM231.815 316.243C231.772 316.762 231.637 317.251 231.409 317.709C231.182 318.16 230.896 318.581 230.55 318.97C230.211 319.353 229.829 319.704 229.404 320.021C228.987 320.333 228.565 320.611 228.139 320.857L231.215 321.112L230.645 325.142L221.561 324.073L221.856 320.531C222.209 320.443 222.581 320.333 222.971 320.202C223.368 320.065 223.757 319.905 224.138 319.721C224.525 319.537 224.892 319.326 225.239 319.087C225.592 318.849 225.905 318.584 226.177 318.293C226.457 317.996 226.683 317.669 226.856 317.311C227.036 316.953 227.144 316.561 227.18 316.132C227.2 315.886 227.173 315.665 227.098 315.469C227.029 315.274 226.922 315.108 226.776 314.972C226.631 314.829 226.458 314.72 226.255 314.644C226.059 314.563 225.844 314.512 225.611 314.493C225.416 314.477 225.216 314.483 225.012 314.512C224.807 314.534 224.604 314.576 224.403 314.638C224.202 314.699 224.009 314.781 223.824 314.883C223.647 314.98 223.484 315.094 223.335 315.225L222.796 311.339C223.056 311.119 223.348 310.94 223.673 310.804C223.998 310.668 224.337 310.565 224.689 310.497C225.041 310.421 225.398 310.376 225.758 310.36C226.119 310.344 226.471 310.351 226.815 310.379C227.581 310.443 228.283 310.642 228.921 310.976C229.56 311.303 230.103 311.73 230.549 312.257C231.002 312.779 231.341 313.382 231.565 314.067C231.796 314.752 231.879 315.478 231.815 316.243Z" fill="black" fill-opacity="0.5"/>
<path d="M227.909 303.607C227.885 303.904 227.808 304.154 227.68 304.359C227.555 304.564 227.395 304.734 227.201 304.869C227.007 305.004 226.786 305.109 226.539 305.186C226.296 305.259 226.043 305.312 225.782 305.344C225.52 305.376 225.259 305.39 224.997 305.386C224.738 305.383 224.497 305.372 224.272 305.353C224.051 305.335 223.821 305.307 223.584 305.269C223.349 305.235 223.116 305.189 222.884 305.13C222.652 305.071 222.424 305 222.201 304.917C221.978 304.83 221.769 304.728 221.574 304.612L222.136 297.716C222.343 297.651 222.561 297.596 222.791 297.55C223.022 297.501 223.255 297.465 223.49 297.441C223.73 297.414 223.966 297.4 224.2 297.398C224.434 297.392 224.66 297.398 224.878 297.416C225.131 297.437 225.385 297.474 225.639 297.528C225.897 297.582 226.142 297.656 226.375 297.751C226.608 297.846 226.823 297.962 227.02 298.101C227.217 298.236 227.385 298.397 227.524 298.585C227.666 298.772 227.771 298.986 227.837 299.225C227.907 299.464 227.929 299.736 227.904 300.039C227.888 300.239 227.843 300.424 227.772 300.594C227.7 300.764 227.605 300.914 227.486 301.045C227.368 301.175 227.228 301.283 227.066 301.371C226.904 301.454 226.725 301.511 226.529 301.542C226.756 301.622 226.959 301.728 227.138 301.862C227.321 301.996 227.472 302.152 227.59 302.33C227.711 302.509 227.799 302.707 227.853 302.924C227.911 303.14 227.929 303.368 227.909 303.607ZM225.444 300.33C225.452 300.227 225.438 300.138 225.401 300.063C225.365 299.984 225.316 299.919 225.256 299.867C225.199 299.816 225.134 299.777 225.061 299.749C224.991 299.722 224.928 299.705 224.871 299.701C224.8 299.695 224.729 299.7 224.66 299.716C224.59 299.731 224.522 299.751 224.455 299.774L224.324 300.96C224.407 300.966 224.509 300.968 224.631 300.964C224.754 300.959 224.872 300.939 224.987 300.901C225.105 300.861 225.207 300.798 225.294 300.711C225.38 300.622 225.43 300.495 225.444 300.33ZM224.539 302.012C224.435 302.004 224.335 302.006 224.236 302.019L224.114 303.238C224.166 303.253 224.217 303.268 224.266 303.283C224.319 303.295 224.371 303.303 224.42 303.307C224.495 303.313 224.578 303.313 224.668 303.306C224.759 303.295 224.846 303.27 224.928 303.23C225.011 303.187 225.08 303.126 225.137 303.048C225.198 302.971 225.233 302.864 225.245 302.728C225.256 302.593 225.238 302.48 225.192 302.39C225.149 302.3 225.092 302.229 225.021 302.176C224.95 302.12 224.871 302.081 224.783 302.059C224.695 302.034 224.614 302.018 224.539 302.012Z" fill="black" fill-opacity="0.5"/>
<path d="M105.275 5.06757C106.765 3.80074 108.116 2.65239 109.327 1.62254C109.843 1.18393 110.354 0.749329 110.858 0.31874C111.359 -0.10621 111.82 -0.494193 112.24 -0.845209C112.652 -1.19384 112.999 -1.48946 113.282 -1.73208C113.565 -1.97469 113.742 -2.12451 113.813 -2.18153L118.098 0.630784L109.337 6.78146L114.084 9.18399L111.975 12.8375L103.497 8.14602L105.275 5.06757ZM97.3012 -1.31751C97.5616 -1.76856 97.8924 -2.15269 98.2935 -2.46987C98.6914 -2.78142 99.1298 -3.03949 99.6088 -3.24409C100.079 -3.4463 100.574 -3.60035 101.093 -3.70624C101.604 -3.80975 102.104 -3.88182 102.594 -3.92244L99.9215 -5.46541L102.156 -8.86645L109.916 -4.0255L108.138 -0.947054C107.781 -1.01809 107.398 -1.07754 106.989 -1.12538C106.572 -1.17085 106.152 -1.1917 105.729 -1.18793C105.3 -1.18741 104.878 -1.15295 104.463 -1.08455C104.042 -1.0194 103.646 -0.913357 103.275 -0.766421C102.896 -0.617103 102.551 -0.417563 102.242 -0.167801C101.927 0.0787054 101.662 0.388019 101.447 0.760139C101.323 0.97439 101.253 1.18606 101.238 1.39514C101.217 1.60096 101.243 1.7965 101.316 1.98175C101.387 2.17264 101.497 2.34554 101.648 2.50045C101.791 2.65774 101.963 2.79498 102.166 2.91217C102.335 3.00983 102.519 3.08938 102.716 3.15082C102.911 3.2179 103.112 3.26644 103.32 3.29644C103.528 3.32644 103.738 3.33464 103.949 3.32104C104.151 3.30983 104.347 3.27638 104.537 3.2207L103.367 6.96564C103.038 7.05381 102.697 7.09025 102.345 7.07495C101.993 7.05966 101.643 7.00803 101.296 6.92008C100.945 6.83777 100.603 6.72682 100.27 6.58725C99.9371 6.44769 99.6213 6.29164 99.3224 6.11911C98.6571 5.735 98.1069 5.2557 97.6718 4.68123C97.2334 4.1124 96.9249 3.49448 96.7462 2.82747C96.5585 2.16285 96.5095 1.473 96.5991 0.757935C96.6831 0.0396111 96.9171 -0.652204 97.3012 -1.31751Z" fill="#FA4545" fill-opacity="0.5"/>
<path d="M95.0453 12.9258C95.2082 12.6436 95.3983 12.3895 95.6156 12.1636C95.8311 11.9407 96.0671 11.7503 96.3236 11.5924C96.5771 11.4328 96.8477 11.3079 97.1354 11.2176C97.4183 11.1287 97.7092 11.0796 98.0082 11.0703C98.304 11.0592 98.603 11.0892 98.9051 11.1602C99.2055 11.2344 99.4999 11.3548 99.7883 11.5213C100.067 11.6824 100.313 11.872 100.527 12.0902C100.737 12.3065 100.915 12.5418 101.062 12.7961C101.207 13.0534 101.317 13.3239 101.393 13.6076C101.464 13.8927 101.5 14.1819 101.5 14.4755C101.495 14.7704 101.455 15.0656 101.379 15.361C101.301 15.6547 101.182 15.9395 101.022 16.2155C100.867 16.4853 100.682 16.7301 100.468 16.9499C100.253 17.1728 100.018 17.364 99.7649 17.5237C99.5083 17.6816 99.2377 17.8065 98.9531 17.8985C98.6684 17.9905 98.3788 18.0445 98.0843 18.0605C97.7866 18.0747 97.4899 18.0481 97.1939 17.9806C96.898 17.9131 96.6105 17.7988 96.3314 17.6377C95.8817 17.378 95.5127 17.0719 95.2242 16.7194C94.9327 16.365 94.7318 15.9823 94.6218 15.5715C94.5068 15.1619 94.4845 14.7314 94.5549 14.28C94.6204 13.83 94.7839 13.3786 95.0453 12.9258ZM97.1803 13.9973C97.1034 14.1306 97.0492 14.2709 97.0179 14.4183C96.9817 14.5669 96.9731 14.7107 96.992 14.8498C97.0091 14.992 97.0565 15.1248 97.1341 15.2482C97.2069 15.3729 97.3146 15.4764 97.4572 15.5588C97.6029 15.6429 97.7484 15.6917 97.8936 15.7053C98.0388 15.7188 98.1801 15.7032 98.3175 15.6585C98.45 15.6151 98.5738 15.544 98.6889 15.445C98.8021 15.3491 98.8981 15.233 98.9769 15.0965C99.0521 14.9663 99.1087 14.8253 99.1466 14.6736C99.1846 14.5218 99.1968 14.3718 99.1833 14.2234C99.1697 14.075 99.1275 13.9369 99.0566 13.8091C98.9825 13.6795 98.8726 13.5727 98.7269 13.4885C98.5811 13.4044 98.4348 13.3571 98.2878 13.3467C98.136 13.3375 97.992 13.3578 97.8558 13.4074C97.7179 13.46 97.5906 13.5374 97.4737 13.6395C97.3569 13.7416 97.2591 13.8608 97.1803 13.9973Z" fill="#FA4545" fill-opacity="0.5"/>
<path d="M389.171 48.8897C389.523 50.8141 389.842 52.5581 390.128 54.1218C390.25 54.7883 390.371 55.4475 390.492 56.0995C390.609 56.7458 390.715 57.3388 390.808 57.8787C390.905 58.4096 390.987 58.8582 391.056 59.2245C391.124 59.5908 391.166 59.8188 391.18 59.9083L386.602 62.2132L385.655 51.5508L381.201 54.4608L379.092 50.8072L387.393 45.8113L389.171 48.8897ZM401.096 48.7252C401.52 49.4581 401.755 50.1717 401.802 50.866C401.856 51.557 401.759 52.2103 401.513 52.8259C401.267 53.4416 400.89 54.0126 400.382 54.5389C399.874 55.0652 399.273 55.5286 398.58 55.929C398.247 56.1211 397.907 56.2873 397.56 56.4278C397.209 56.5626 396.853 56.6816 396.492 56.785C396.133 56.8795 395.767 56.9626 395.395 57.0346C395.029 57.1032 394.655 57.165 394.273 57.22L392.651 53.6685C392.92 53.6641 393.197 53.643 393.483 53.6054C393.77 53.5678 394.054 53.5129 394.335 53.4405C394.623 53.365 394.902 53.2753 395.172 53.1715C395.449 53.0645 395.706 52.9427 395.942 52.8059C396.083 52.7246 396.249 52.614 396.439 52.4743C396.625 52.3289 396.792 52.1686 396.939 51.9936C397.083 51.8128 397.186 51.6259 397.247 51.4326C397.311 51.2304 397.285 51.0307 397.171 50.8333C397.064 50.6473 396.918 50.5175 396.732 50.444C396.553 50.3673 396.354 50.3355 396.136 50.3486C395.921 50.3528 395.694 50.3897 395.456 50.4594C395.218 50.5291 394.984 50.6117 394.753 50.7072C394.528 50.7995 394.318 50.8981 394.123 51.0032C393.934 51.1049 393.777 51.1916 393.653 51.2633C393.4 51.4097 393.147 51.5708 392.895 51.7463C392.649 51.9186 392.421 52.1102 392.212 52.3211L388.605 45.2923L395.348 41.1511L397.575 44.5789L393.193 46.7932L393.977 48.3475C394.195 48.1389 394.423 47.9474 394.66 47.7727C394.894 47.5924 395.138 47.429 395.392 47.2825C395.905 46.9863 396.43 46.7958 396.968 46.711C397.508 46.6174 398.031 46.6312 398.537 46.7525C399.048 46.8705 399.524 47.0957 399.964 47.4281C400.406 47.7515 400.784 48.1839 401.096 48.7252Z" fill="#FA4545" fill-opacity="0.5"/>
<path d="M385.712 33.4686L389.019 39.9694L386.71 41.5999L383.458 38.9749L385.241 42.5352L383.148 43.7437L379.507 37.0512L381.768 35.5967L385.311 38.0166L383.56 34.8106L385.712 33.4686Z" fill="#FA4545" fill-opacity="0.5"/>
<path d="M118.385 149.754C118.818 150.504 119.073 151.226 119.15 151.918C119.229 152.602 119.16 153.25 118.943 153.864C118.723 154.473 118.366 155.039 117.872 155.565C117.381 156.081 116.78 156.545 116.07 156.955C115.749 157.141 115.401 157.3 115.027 157.433C114.653 157.567 114.268 157.676 113.874 157.761C113.479 157.846 113.082 157.906 112.682 157.942C112.287 157.974 111.905 157.984 111.537 157.971L109.895 154.385C110.194 154.408 110.515 154.411 110.858 154.393C111.198 154.37 111.54 154.331 111.884 154.275C112.23 154.21 112.565 154.126 112.888 154.022C113.217 153.915 113.517 153.783 113.788 153.627C113.945 153.536 114.1 153.432 114.25 153.315C114.403 153.189 114.528 153.053 114.624 152.907C114.72 152.761 114.775 152.602 114.788 152.429C114.806 152.253 114.759 152.066 114.645 151.869C114.573 151.745 114.45 151.662 114.275 151.62C114.101 151.578 113.913 151.566 113.713 151.584C113.51 151.596 113.312 151.631 113.12 151.689C112.925 151.742 112.771 151.801 112.658 151.866C112.579 151.911 112.487 151.972 112.38 152.049C112.276 152.116 112.173 152.191 112.07 152.273C111.967 152.355 111.872 152.444 111.784 152.54C111.699 152.626 111.641 152.709 111.611 152.786L110.265 150.338C110.367 150.294 110.463 150.25 110.55 150.207C110.638 150.164 110.73 150.115 110.826 150.059C111.023 149.946 111.228 149.805 111.439 149.638C111.648 149.465 111.825 149.276 111.97 149.072C112.112 148.862 112.2 148.638 112.236 148.4C112.277 148.158 112.222 147.908 112.072 147.648C111.965 147.462 111.828 147.342 111.661 147.288C111.492 147.228 111.313 147.211 111.125 147.237C110.942 147.26 110.757 147.31 110.569 147.388C110.381 147.467 110.217 147.547 110.076 147.628C109.619 147.892 109.214 148.231 108.86 148.646C108.511 149.058 108.256 149.514 108.093 150.013L105.605 147.345C105.88 146.623 106.283 145.961 106.816 145.361C107.351 144.751 107.954 144.252 108.625 143.865C109.24 143.51 109.878 143.262 110.541 143.12C111.205 142.969 111.853 142.945 112.483 143.047C113.11 143.144 113.697 143.372 114.244 143.733C114.791 144.094 115.256 144.608 115.64 145.273C115.751 145.465 115.835 145.675 115.892 145.905C115.95 146.135 115.984 146.371 115.996 146.612C116.008 146.854 115.996 147.093 115.96 147.332C115.922 147.565 115.864 147.782 115.785 147.985C116.084 147.956 116.362 147.987 116.618 148.08C116.874 148.172 117.111 148.303 117.328 148.47C117.545 148.638 117.743 148.836 117.92 149.065C118.093 149.288 118.249 149.518 118.385 149.754ZM126.493 141.532C126.803 142.068 127.073 142.634 127.304 143.23C127.532 143.82 127.704 144.423 127.82 145.041C127.938 145.649 127.987 146.255 127.968 146.86C127.949 147.465 127.844 148.045 127.653 148.599C127.458 149.147 127.165 149.662 126.774 150.143C126.389 150.622 125.886 151.04 125.266 151.398C124.995 151.554 124.704 151.707 124.392 151.857C124.082 151.998 123.765 152.125 123.439 152.238C123.116 152.342 122.787 152.423 122.452 152.481C122.114 152.534 121.785 152.543 121.465 152.51L120.059 149.059C120.292 149.06 120.545 149.041 120.817 149.005C121.085 148.962 121.355 148.908 121.625 148.842C121.895 148.777 122.157 148.697 122.411 148.603C122.662 148.503 122.892 148.393 123.1 148.273C123.427 148.084 123.683 147.876 123.868 147.649C124.055 147.413 124.18 147.161 124.243 146.892C124.311 146.619 124.326 146.332 124.287 146.031C124.245 145.725 124.159 145.406 124.029 145.076C123.794 145.451 123.519 145.795 123.202 146.105C122.885 146.416 122.535 146.682 122.152 146.903C121.678 147.177 121.185 147.364 120.672 147.465C120.159 147.565 119.663 147.573 119.186 147.488C118.705 147.397 118.255 147.21 117.835 146.926C117.415 146.642 117.061 146.249 116.771 145.747C116.4 145.105 116.175 144.449 116.097 143.78C116.025 143.107 116.081 142.462 116.266 141.844C116.45 141.227 116.757 140.651 117.186 140.118C117.62 139.581 118.159 139.128 118.802 138.757C119.585 138.304 120.346 138.06 121.085 138.024C121.826 137.98 122.526 138.098 123.185 138.38C123.846 138.652 124.455 139.063 125.013 139.613C125.577 140.16 126.07 140.8 126.493 141.532ZM122.279 142.319C122.182 142.15 122.054 142.021 121.897 141.931C121.746 141.838 121.583 141.778 121.409 141.75C121.236 141.723 121.058 141.727 120.877 141.765C120.695 141.802 120.528 141.864 120.376 141.952C120.224 142.04 120.089 142.152 119.972 142.287C119.851 142.417 119.759 142.564 119.696 142.728C119.63 142.887 119.599 143.055 119.604 143.232C119.611 143.401 119.662 143.567 119.756 143.731C119.851 143.894 119.974 144.022 120.125 144.115C120.282 144.205 120.448 144.264 120.621 144.291C120.795 144.319 120.974 144.317 121.159 144.285C121.341 144.248 121.508 144.186 121.66 144.098C121.812 144.01 121.947 143.898 122.064 143.763C122.181 143.627 122.273 143.48 122.339 143.322C122.403 143.158 122.43 142.991 122.423 142.822C122.422 142.65 122.374 142.483 122.279 142.319Z" fill="#8E53F6" fill-opacity="0.5"/>
<path d="M14.3854 -2.24566C14.8183 -1.49578 15.0731 -0.774581 15.1496 -0.0820648C15.2286 0.601558 15.1596 1.25031 14.9427 1.86419C14.7225 2.47243 14.3657 3.03928 13.8722 3.56476C13.3811 4.08134 12.7804 4.54471 12.07 4.95486C11.7486 5.14041 11.4008 5.29983 11.0267 5.43312C10.6526 5.56641 10.2683 5.67553 9.87385 5.76046C9.47935 5.84539 9.08191 5.9057 8.68153 5.9414C8.2868 5.97385 7.90529 5.98362 7.537 5.97073L5.89548 2.38535C6.19437 2.40825 6.51537 2.41086 6.85849 2.39318C7.19836 2.36986 7.54017 2.33039 7.88393 2.27475C8.23007 2.21022 8.56482 2.12596 8.88817 2.02196C9.21716 1.91471 9.51698 1.78296 9.78761 1.62671C9.94548 1.53557 10.0997 1.43152 10.2501 1.31456C10.403 1.18872 10.5276 1.0529 10.6238 0.907118C10.7201 0.761335 10.7747 0.602009 10.7876 0.429141C10.8062 0.253018 10.7586 0.0662877 10.6446 -0.131049C10.573 -0.255089 10.4499 -0.33812 10.2753 -0.380141C10.1007 -0.422162 9.91329 -0.434248 9.7131 -0.416399C9.50966 -0.404188 9.31197 -0.368988 9.12004 -0.310799C8.92485 -0.258248 8.77088 -0.19942 8.65811 -0.134316C8.57918 -0.0887434 8.48659 -0.0277667 8.38033 0.0486139C8.27646 0.116101 8.17303 0.190854 8.07003 0.272873C7.96703 0.354891 7.87174 0.44374 7.78414 0.539418C7.69893 0.626203 7.64115 0.708424 7.61081 0.786081L6.26507 -1.662C6.36743 -1.70606 6.46253 -1.74969 6.55035 -1.79288C6.63818 -1.83607 6.73002 -1.88533 6.82587 -1.94067C7.02321 -2.0546 7.22769 -2.19521 7.43933 -2.36251C7.64771 -2.53544 7.82452 -2.72397 7.96978 -2.92812C8.11177 -3.1379 8.20041 -3.36198 8.23569 -3.60035C8.2766 -3.84199 8.22219 -4.09248 8.07245 -4.35184C7.96503 -4.5379 7.82802 -4.65801 7.66143 -4.71218C7.49159 -4.77199 7.31264 -4.78896 7.1246 -4.76309C6.9422 -4.74047 6.7571 -4.68999 6.5693 -4.61163C6.38149 -4.53327 6.21711 -4.4534 6.07616 -4.37202C5.61947 -4.10835 5.21398 -3.769 4.85971 -3.35397C4.51108 -2.94219 4.25551 -2.48642 4.093 -1.98664L1.60524 -4.65493C1.87982 -5.37728 2.28346 -6.03882 2.81617 -6.63957C3.35127 -7.24921 3.95429 -7.74772 4.62524 -8.13509C5.2398 -8.48991 5.87825 -8.73824 6.5406 -8.88008C7.20533 -9.03082 7.85286 -9.0551 8.48318 -8.95293C9.11025 -8.8564 9.69713 -8.62765 10.2438 -8.2667C10.7905 -7.90575 11.2559 -7.39262 11.64 -6.72731C11.7507 -6.53562 11.8348 -6.32482 11.8924 -6.09493C11.9499 -5.86505 11.9845 -5.6294 11.996 -5.388C12.0076 -5.1466 11.9958 -4.90672 11.9605 -4.66834C11.922 -4.4356 11.8636 -4.21771 11.7853 -4.01467C12.084 -4.04427 12.3615 -4.0128 12.6179 -3.92027C12.8743 -3.82774 13.1111 -3.69757 13.3283 -3.52976C13.5454 -3.36196 13.7425 -3.16378 13.9196 -2.93523C14.0934 -2.71232 14.2487 -2.48246 14.3854 -2.24566ZM22.4935 -10.4676C22.8027 -9.93202 23.0729 -9.36634 23.3041 -8.77061C23.532 -8.18052 23.7039 -7.57685 23.8197 -6.95961C23.9379 -6.35126 23.9874 -5.74462 23.9683 -5.1397C23.9492 -4.53478 23.844 -3.95531 23.6526 -3.40131C23.4581 -2.85294 23.1652 -2.33805 22.7741 -1.85664C22.3886 -1.37848 21.8857 -0.960364 21.2655 -0.602292C20.9949 -0.446042 20.7037 -0.29293 20.3918 -0.142957C20.0824 -0.00187671 19.7648 0.125108 19.439 0.237997C19.1157 0.341992 18.7866 0.422999 18.4517 0.481017C18.1136 0.533397 17.7846 0.542937 17.4646 0.509638L16.0587 -2.94112C16.2921 -2.94054 16.5448 -2.95863 16.8167 -2.99537C17.0854 -3.03775 17.3549 -3.09184 17.6251 -3.15765C17.8954 -3.22345 18.1575 -3.30335 18.4114 -3.39735C18.6621 -3.49698 18.8918 -3.60702 19.1004 -3.72747C19.4274 -3.91627 19.6833 -4.12413 19.868 -4.35106C20.0551 -4.58689 20.1799 -4.83939 20.2425 -5.10858C20.3108 -5.38102 20.3256 -5.66775 20.2872 -5.96879C20.2454 -6.27546 20.1592 -6.59405 20.0285 -6.92456C19.7944 -6.54882 19.519 -6.20561 19.2022 -5.89491C18.8854 -5.58422 18.5353 -5.3182 18.1519 -5.09684C17.6783 -4.82341 17.1849 -4.63629 16.6718 -4.53548C16.1586 -4.43468 15.6633 -4.42682 15.1856 -4.51191C14.7048 -4.60263 14.2545 -4.78999 13.835 -5.07399C13.4154 -5.35798 13.0608 -5.75088 12.7711 -6.25268C12.4 -6.89543 12.1754 -7.55136 12.0973 -8.22045C12.0249 -8.89279 12.0809 -9.53785 12.2655 -10.1556C12.4501 -10.7734 12.7568 -11.3489 13.1857 -11.8822C13.6202 -12.4187 14.1588 -12.8725 14.8015 -13.2436C15.5852 -13.6961 16.3465 -13.9401 17.0852 -13.9757C17.8263 -14.0202 18.5261 -13.9018 19.1847 -13.6204C19.8457 -13.348 20.4552 -12.9369 21.0132 -12.387C21.5769 -11.8404 22.0703 -11.2006 22.4935 -10.4676ZM18.2793 -9.68093C18.1816 -9.85007 18.0543 -9.97952 17.8972 -10.0693C17.7458 -10.1623 17.5832 -10.2225 17.4095 -10.25C17.2357 -10.2775 17.0581 -10.2727 16.8765 -10.2355C16.695 -10.1984 16.5281 -10.1358 16.3759 -10.048C16.2237 -9.96006 16.0889 -9.84843 15.9716 -9.71305C15.8511 -9.58331 15.7593 -9.43633 15.6962 -9.27212C15.6299 -9.11355 15.5991 -8.94545 15.604 -8.76782C15.6112 -8.59908 15.662 -8.43295 15.7564 -8.26944C15.8508 -8.10594 15.9737 -7.97768 16.1251 -7.88468C16.2822 -7.79494 16.4476 -7.73632 16.6213 -7.70883C16.7951 -7.68135 16.9743 -7.68335 17.1591 -7.71486C17.3406 -7.75201 17.5075 -7.81453 17.6597 -7.90242C17.812 -7.99031 17.9467 -8.10195 18.064 -8.23732C18.1813 -8.3727 18.2731 -8.51968 18.3395 -8.67825C18.4025 -8.84246 18.4304 -9.00893 18.4232 -9.17767C18.4217 -9.34967 18.3737 -9.51742 18.2793 -9.68093Z" fill="#8E53F6" fill-opacity="0.5"/>
<path d="M111.712 128.469L115.019 134.969L112.71 136.6L109.458 133.975L111.241 137.535L109.148 138.744L105.507 132.051L107.768 130.597L111.311 133.017L109.56 129.811L111.712 128.469Z" fill="#8E53F6" fill-opacity="0.5"/>
<path d="M93.1245 291.079C92.8641 291.531 92.5334 291.915 92.1322 292.232C91.7343 292.543 91.2959 292.801 90.8169 293.006C90.3469 293.208 89.852 293.362 89.3323 293.468C88.8215 293.572 88.3213 293.644 87.8317 293.684L90.5042 295.227L88.27 298.628L80.5102 293.787L82.2876 290.709C82.645 290.78 83.0279 290.839 83.4363 290.887C83.8536 290.933 84.2738 290.954 84.697 290.95C85.1258 290.949 85.5479 290.915 85.9632 290.847C86.3842 290.781 86.78 290.675 87.1505 290.528C87.5299 290.379 87.8744 290.18 88.184 289.93C88.4992 289.683 88.7642 289.374 88.9791 289.002C89.1028 288.788 89.1724 288.576 89.1878 288.367C89.2089 288.161 89.1827 287.965 89.1093 287.78C89.0391 287.589 88.9284 287.416 88.7773 287.262C88.635 287.104 88.4624 286.967 88.2595 286.85C88.0903 286.752 87.907 286.673 87.7094 286.611C87.5151 286.544 87.3138 286.496 87.1056 286.466C86.8974 286.436 86.6879 286.427 86.4771 286.441C86.2751 286.452 86.0792 286.486 85.8891 286.541L87.059 282.796C87.388 282.708 87.7285 282.672 88.0806 282.687C88.4326 282.702 88.7824 282.754 89.1301 282.842C89.481 282.924 89.8229 283.035 90.1557 283.175C90.4886 283.314 90.8045 283.47 91.1033 283.643C91.7686 284.027 92.3188 284.506 92.754 285.081C93.1923 285.65 93.5009 286.267 93.6796 286.934C93.8672 287.599 93.9162 288.289 93.8266 289.004C93.7427 289.722 93.5087 290.414 93.1245 291.079ZM101.113 300.563C100.716 301.251 100.233 301.807 99.6655 302.231C99.1008 302.649 98.4886 302.934 97.829 303.087C97.1783 303.238 96.4963 303.254 95.7829 303.135C95.0696 303.017 94.3718 302.76 93.6896 302.366C93.1314 302.044 92.6708 301.677 92.3076 301.264C91.9501 300.855 91.6718 300.412 91.4729 299.936C91.2796 299.464 91.1635 298.968 91.1246 298.45C91.0857 297.931 91.107 297.406 91.1885 296.874C91.2757 296.346 91.4198 295.816 91.6208 295.286C91.8218 294.755 92.0655 294.242 92.352 293.746C92.7036 293.137 93.0905 292.571 93.5127 292.048C93.9382 291.519 94.3905 291.055 94.8695 290.655C95.3542 290.258 95.8696 289.932 96.4158 289.676C96.962 289.42 97.5288 289.258 98.1162 289.191C98.7036 289.125 99.3111 289.16 99.9387 289.297C100.575 289.431 101.226 289.69 101.891 290.074C102.134 290.214 102.375 290.369 102.616 290.538C102.86 290.701 103.094 290.882 103.319 291.079C103.543 291.276 103.749 291.485 103.937 291.707C104.131 291.931 104.297 292.17 104.437 292.423L102.259 295.609C101.973 295.181 101.625 294.781 101.216 294.409C100.815 294.035 100.395 293.721 99.9553 293.467C99.6057 293.265 99.2731 293.145 98.9576 293.105C98.6453 293.06 98.3464 293.083 98.0609 293.174C97.7755 293.265 97.5039 293.416 97.2461 293.628C96.9973 293.838 96.7644 294.098 96.5474 294.409C97.0432 294.409 97.5383 294.47 98.0328 294.59C98.5273 294.71 98.9944 294.897 99.4342 295.151C99.9304 295.437 100.354 295.784 100.706 296.19C101.058 296.596 101.312 297.035 101.467 297.509C101.628 297.985 101.683 298.483 101.631 299.002C101.585 299.524 101.413 300.044 101.113 300.563ZM97.7529 298.961C97.8538 298.787 97.9039 298.609 97.9031 298.428C97.9112 298.245 97.8808 298.069 97.8121 297.902C97.7523 297.732 97.6581 297.576 97.5296 297.434C97.4043 297.287 97.2627 297.167 97.1048 297.076C96.9469 296.985 96.7756 296.924 96.5908 296.892C96.4093 296.855 96.2272 296.851 96.0446 296.881C95.8708 296.909 95.7038 296.97 95.5435 297.066C95.3921 297.159 95.2659 297.292 95.165 297.467C95.0673 297.636 95.0145 297.813 95.0064 297.996C95.0072 298.177 95.0391 298.349 95.1022 298.513C95.1709 298.681 95.2651 298.837 95.3848 298.981C95.5077 299.12 95.6481 299.235 95.806 299.326C95.9638 299.417 96.1364 299.483 96.3235 299.523C96.5139 299.558 96.696 299.561 96.8698 299.534C97.0491 299.51 97.2145 299.451 97.366 299.358C97.5263 299.263 97.6553 299.13 97.7529 298.961Z" fill="#FFD62A" fill-opacity="0.5"/>
<path d="M103.299 283.535C103.15 283.793 102.974 283.987 102.771 284.117C102.57 284.249 102.353 284.335 102.12 284.374C101.887 284.413 101.642 284.414 101.386 284.378C101.135 284.341 100.884 284.281 100.634 284.198C100.384 284.116 100.141 284.017 99.9057 283.902C99.6735 283.788 99.4597 283.675 99.2644 283.563C99.0721 283.452 98.8766 283.328 98.6777 283.193C98.4802 283.062 98.289 282.921 98.104 282.769C97.9191 282.616 97.7434 282.455 97.5772 282.285C97.4128 282.111 97.2672 281.93 97.1406 281.741L100.59 275.744C100.805 275.773 101.026 275.816 101.254 275.873C101.483 275.927 101.71 275.994 101.933 276.073C102.161 276.151 102.381 276.239 102.593 276.336C102.807 276.431 103.009 276.533 103.198 276.642C103.418 276.769 103.632 276.911 103.839 277.068C104.049 277.227 104.239 277.399 104.409 277.584C104.58 277.769 104.724 277.966 104.843 278.175C104.964 278.381 105.047 278.599 105.093 278.828C105.141 279.058 105.145 279.296 105.103 279.541C105.064 279.787 104.969 280.042 104.816 280.306C104.716 280.479 104.597 280.628 104.46 280.751C104.323 280.874 104.173 280.97 104.01 281.037C103.847 281.104 103.674 281.143 103.49 281.152C103.309 281.159 103.122 281.134 102.932 281.078C103.103 281.247 103.241 281.43 103.346 281.627C103.455 281.826 103.524 282.032 103.555 282.244C103.588 282.458 103.583 282.674 103.54 282.893C103.499 283.113 103.419 283.327 103.299 283.535ZM102.467 279.52C102.519 279.43 102.544 279.343 102.543 279.259C102.543 279.173 102.527 279.093 102.494 279.021C102.465 278.95 102.423 278.886 102.369 278.83C102.317 278.776 102.267 278.734 102.217 278.706C102.155 278.67 102.089 278.644 102.02 278.629C101.95 278.613 101.88 278.602 101.81 278.595L101.186 279.611C101.257 279.652 101.349 279.697 101.462 279.746C101.574 279.794 101.69 279.826 101.81 279.841C101.934 279.855 102.054 279.841 102.168 279.8C102.285 279.756 102.384 279.662 102.467 279.52ZM100.931 280.655C100.841 280.603 100.749 280.562 100.654 280.532L100.023 281.582C100.064 281.618 100.104 281.653 100.142 281.688C100.185 281.721 100.228 281.75 100.272 281.775C100.337 281.813 100.412 281.848 100.496 281.88C100.583 281.909 100.672 281.923 100.763 281.922C100.857 281.918 100.946 281.893 101.03 281.847C101.118 281.802 101.196 281.721 101.264 281.603C101.332 281.486 101.364 281.376 101.36 281.275C101.36 281.175 101.339 281.087 101.297 281.009C101.257 280.928 101.202 280.859 101.131 280.801C101.063 280.741 100.996 280.692 100.931 280.655Z" fill="#FFD62A" fill-opacity="0.5"/>
<path d="M-4.71624 248.465C-5.11337 249.153 -5.59592 249.709 -6.16388 250.133C-6.72859 250.551 -7.34076 250.837 -8.00038 250.99C-8.65111 251.14 -9.33313 251.156 -10.0465 251.037C-10.7598 250.919 -11.4576 250.663 -12.1398 250.269C-12.698 249.946 -13.1586 249.579 -13.5218 249.166C-13.8793 248.757 -14.1576 248.314 -14.3565 247.839C-14.5498 247.366 -14.6659 246.871 -14.7048 246.352C-14.7437 245.833 -14.7224 245.308 -14.6409 244.776C-14.5537 244.248 -14.4096 243.718 -14.2086 243.188C-14.0076 242.658 -13.7639 242.144 -13.4774 241.648C-13.1259 241.039 -12.7389 240.473 -12.3167 239.95C-11.8912 239.422 -11.4389 238.957 -10.9599 238.557C-10.4753 238.16 -9.95981 237.834 -9.41359 237.578C-8.86737 237.322 -8.30057 237.161 -7.7132 237.094C-7.12584 237.027 -6.51833 237.062 -5.89068 237.199C-5.25414 237.333 -4.60322 237.593 -3.93791 237.977C-3.69547 238.117 -3.4539 238.271 -3.21321 238.44C-2.96925 238.604 -2.73507 238.784 -2.51064 238.981C-2.28622 239.178 -2.08002 239.388 -1.89205 239.609C-1.69843 239.834 -1.53194 240.072 -1.39256 240.326L-3.5701 243.512C-3.85648 243.083 -4.20436 242.683 -4.61373 242.311C-5.01422 241.937 -5.43435 241.623 -5.87413 241.369C-6.22369 241.168 -6.55626 241.047 -6.87183 241.008C-7.18414 240.963 -7.48303 240.986 -7.76849 241.076C-8.05395 241.167 -8.32555 241.319 -8.58328 241.531C-8.83213 241.74 -9.06505 242 -9.28204 242.311C-8.78622 242.312 -8.29107 242.372 -7.79659 242.492C-7.30212 242.612 -6.83499 242.799 -6.39521 243.053C-5.89905 243.34 -5.47502 243.686 -5.12314 244.092C-4.77125 244.498 -4.51762 244.938 -4.36226 245.411C-4.20126 245.887 -4.14655 246.385 -4.19812 246.904C-4.24405 247.426 -4.41676 247.947 -4.71624 248.465ZM-8.07649 246.864C-7.97558 246.689 -7.92552 246.511 -7.92633 246.33C-7.91825 246.147 -7.94856 245.972 -8.01726 245.804C-8.07707 245.634 -8.17126 245.478 -8.29983 245.336C-8.42515 245.189 -8.56674 245.07 -8.72461 244.978C-8.88248 244.887 -9.05381 244.826 -9.23859 244.794C-9.42012 244.757 -9.6022 244.754 -9.78483 244.784C-9.95857 244.811 -10.1256 244.872 -10.2859 244.968C-10.4373 245.061 -10.5635 245.195 -10.6644 245.37C-10.7621 245.539 -10.8149 245.715 -10.823 245.898C-10.8222 246.079 -10.7903 246.252 -10.7272 246.416C-10.6585 246.583 -10.5643 246.739 -10.4446 246.883C-10.3217 247.022 -10.1813 247.137 -10.0234 247.228C-9.86557 247.319 -9.69305 247.385 -9.50589 247.425C-9.31546 247.46 -9.13338 247.464 -8.95964 247.436C-8.78026 247.412 -8.61486 247.353 -8.46344 247.26C-8.30313 247.165 -8.17414 247.033 -8.07649 246.864ZM7.14031 252.988C6.85385 253.484 6.51264 253.945 6.11667 254.37C5.72635 254.799 5.29667 255.179 4.82764 255.509C4.35861 255.84 3.85956 256.112 3.33049 256.325C2.80705 256.541 2.26781 256.681 1.71276 256.744C1.15771 256.807 0.598999 256.785 0.0366287 256.679C-0.520104 256.575 -1.06628 256.369 -1.60191 256.06C-2.14318 255.747 -2.60059 255.374 -2.97416 254.94C-3.34773 254.507 -3.64602 254.034 -3.86904 253.521C-4.08643 253.013 -4.23504 252.476 -4.31489 251.911C-4.39475 251.346 -4.40877 250.778 -4.35697 250.206C-4.30516 249.635 -4.19404 249.071 -4.0236 248.516C-3.84427 247.958 -3.613 247.433 -3.3298 246.943C-3.0466 246.452 -2.7082 245.99 -2.31462 245.556C-1.9154 245.125 -1.48127 244.744 -1.01224 244.413C-0.543212 244.083 -0.0441614 243.811 0.48491 243.597C1.01724 243.379 1.55811 243.236 2.10752 243.17C2.66257 243.107 3.22128 243.129 3.78365 243.235C4.35166 243.345 4.90348 243.555 5.4391 243.864C5.97473 244.173 6.42651 244.543 6.79444 244.974C7.16801 245.407 7.4663 245.88 7.68932 246.392C7.91234 246.905 8.05933 247.444 8.13029 248.011C8.21014 248.576 8.22417 249.144 8.17236 249.716C8.12056 250.287 8.00499 250.852 7.82566 251.41C7.65196 251.971 7.42352 252.497 7.14031 252.988ZM3.42486 251.181C3.56809 250.933 3.69376 250.637 3.80188 250.294C3.91001 249.95 3.97009 249.605 3.98213 249.259C3.99417 248.912 3.94233 248.586 3.82661 248.278C3.71088 247.971 3.50079 247.729 3.19633 247.553C2.88623 247.374 2.56915 247.312 2.24509 247.365C1.92104 247.419 1.60922 247.535 1.30963 247.716C1.01568 247.899 0.746985 248.124 0.503545 248.389C0.260106 248.655 0.0667716 248.911 -0.0764575 249.16C-0.219687 249.408 -0.345363 249.703 -0.453486 250.047C-0.561609 250.391 -0.62169 250.735 -0.633731 251.082C-0.640132 251.431 -0.585472 251.76 -0.46975 252.067C-0.354027 252.375 -0.141116 252.618 0.168985 252.797C0.473447 252.973 0.787706 253.034 1.11176 252.98C1.43582 252.927 1.74482 252.808 2.03877 252.625C2.33272 252.441 2.60141 252.217 2.84485 251.951C3.08829 251.686 3.28163 251.429 3.42486 251.181Z" fill="#479B04" fill-opacity="0.5"/>
<path d="M5.89944 236.358C5.64806 236.457 5.376 236.512 5.08326 236.525C4.79051 236.538 4.49569 236.519 4.19879 236.467C3.90189 236.416 3.61222 236.338 3.32977 236.232C3.04553 236.13 2.78712 236.012 2.55455 235.878C2.1049 235.618 1.73747 235.299 1.45224 234.919C1.16702 234.539 0.967876 234.129 0.85481 233.687C0.746635 233.244 0.726025 232.786 0.792981 232.312C0.859936 231.838 1.02142 231.379 1.27745 230.936C1.4726 230.598 1.70203 230.29 1.96576 230.012C2.23127 229.731 2.51771 229.489 2.82506 229.286C3.13732 229.082 3.46625 228.92 3.81188 228.802C4.15929 228.68 4.51493 228.608 4.87877 228.587C5.24262 228.565 5.60889 228.597 5.97759 228.681C6.3463 228.766 6.70895 228.911 7.06557 229.117C7.19891 229.194 7.33798 229.283 7.48277 229.383C7.62934 229.48 7.769 229.585 7.90174 229.699C8.03936 229.812 8.16607 229.932 8.28186 230.061C8.39765 230.19 8.49477 230.323 8.57322 230.459L7.4171 232.161C7.28104 231.995 7.12625 231.848 6.95272 231.719C6.78409 231.588 6.61139 231.472 6.43463 231.37C6.18655 231.227 5.9316 231.131 5.66977 231.084C5.41283 231.035 5.16256 231.035 4.91895 231.084C4.67844 231.136 4.45259 231.237 4.24139 231.388C4.0302 231.539 3.8503 231.743 3.7017 232C3.6086 232.162 3.5399 232.331 3.49558 232.508C3.45306 232.682 3.4412 232.853 3.45999 233.02C3.48368 233.187 3.54005 233.344 3.62911 233.49C3.72128 233.639 3.85419 233.763 4.02784 233.863C4.14568 233.931 4.27557 233.985 4.41752 234.026C4.56256 234.068 4.70153 234.078 4.83443 234.056L5.06251 233.704L3.95689 233.041L4.81837 231.677C5.28937 231.929 5.75859 232.183 6.22601 232.441C6.69522 232.695 7.16932 232.948 7.64831 233.2L5.89944 236.358Z" fill="#479B04" fill-opacity="0.5"/>
<path fill-rule="evenodd" clip-rule="evenodd" d="M431.547 345.03C441.107 339.603 444.457 327.453 439.03 317.893C433.603 308.333 421.453 304.982 411.893 310.409C402.333 315.837 398.982 327.986 404.409 337.547C409.837 347.107 421.986 350.457 431.547 345.03ZM433.568 348.591C445.095 342.048 449.135 327.398 442.591 315.871C436.048 304.345 421.398 300.305 409.871 306.848C398.344 313.392 394.305 328.041 400.848 339.568C407.392 351.095 422.041 355.135 433.568 348.591Z" fill="#479B04" fill-opacity="0.5"/>
<path d="M422.171 326.39C422.523 328.314 422.842 330.058 423.128 331.622C423.25 332.288 423.371 332.948 423.492 333.599C423.609 334.246 423.715 334.839 423.808 335.379C423.905 335.91 423.987 336.358 424.056 336.725C424.124 337.091 424.166 337.319 424.18 337.408L419.602 339.713L418.655 329.051L414.201 331.961L412.092 328.307L420.393 323.311L422.171 326.39ZM427.455 319.527L433.908 331.837L430.123 333.796L425.707 325.679L424.891 327.39L421.952 325.23L423.518 321.575L427.455 319.527Z" fill="#479B04" fill-opacity="0.5"/>
<path d="M419.304 317.101C419.264 317.368 419.176 317.632 419.041 317.892C418.906 318.151 418.741 318.397 418.548 318.629C418.355 318.86 418.143 319.072 417.91 319.264C417.68 319.459 417.448 319.623 417.216 319.758C416.766 320.017 416.306 320.176 415.834 320.233C415.363 320.29 414.907 320.257 414.469 320.134C414.031 320.007 413.624 319.795 413.247 319.5C412.87 319.205 412.553 318.836 412.297 318.393C412.102 318.055 411.95 317.702 411.841 317.335C411.731 316.964 411.665 316.595 411.642 316.228C411.622 315.855 411.646 315.489 411.716 315.131C411.784 314.769 411.9 314.425 412.063 314.099C412.227 313.773 412.437 313.472 412.695 313.195C412.953 312.918 413.26 312.677 413.616 312.471C413.75 312.394 413.896 312.318 414.055 312.242C414.212 312.164 414.373 312.096 414.538 312.038C414.705 311.975 414.873 311.925 415.042 311.889C415.212 311.854 415.375 311.836 415.532 311.836L416.428 313.688C416.217 313.723 416.012 313.784 415.813 313.869C415.616 313.95 415.429 314.042 415.252 314.144C415.004 314.287 414.794 314.46 414.621 314.663C414.45 314.861 414.325 315.078 414.247 315.313C414.171 315.547 414.145 315.793 414.171 316.052C414.196 316.31 414.283 316.568 414.431 316.825C414.524 316.987 414.636 317.131 414.768 317.258C414.897 317.381 415.039 317.477 415.194 317.545C415.35 317.608 415.514 317.637 415.685 317.633C415.86 317.628 416.034 317.575 416.208 317.474C416.325 317.406 416.437 317.321 416.543 317.218C416.653 317.114 416.731 316.999 416.778 316.872L416.587 316.499L415.46 317.125L414.71 315.697C415.163 315.415 415.618 315.136 416.075 314.859C416.53 314.58 416.986 314.296 417.443 314.007L419.304 317.101Z" fill="#479B04" fill-opacity="0.5"/>
<path fill-rule="evenodd" clip-rule="evenodd" d="M115.669 -13.7731C106.358 -19.6174 94.072 -16.8068 88.2278 -7.49555C82.3836 1.81568 85.1942 14.1016 94.5054 19.9458C103.817 25.79 116.103 22.9794 121.947 13.6682C127.791 4.35696 124.98 -7.92894 115.669 -13.7731ZM117.846 -17.2414C106.619 -24.2878 91.806 -20.8991 84.7596 -9.67239C77.7131 1.55429 81.1019 16.3676 92.3286 23.414C103.555 30.4605 118.369 27.0717 125.415 15.845C132.461 4.61836 129.073 -10.1949 117.846 -17.2414Z" fill="#FA4545" fill-opacity="0.5"/>
<path fill-rule="evenodd" clip-rule="evenodd" d="M303.547 186.03C313.107 180.603 316.457 168.453 311.03 158.893C305.603 149.333 293.453 145.982 283.893 151.409C274.333 156.837 270.982 168.986 276.409 178.547C281.837 188.107 293.986 191.457 303.547 186.03ZM305.568 189.591C317.095 183.047 321.135 168.398 314.591 156.871C308.048 145.344 293.398 141.305 281.871 147.848C270.344 154.392 266.305 169.041 272.848 180.568C279.392 192.095 294.041 196.135 305.568 189.591Z" fill="#479B04" fill-opacity="0.5"/>
<path d="M290.709 157.676C290.668 157.941 290.579 158.202 290.443 158.459C290.307 158.716 290.142 158.959 289.949 159.187C289.755 159.415 289.544 159.625 289.313 159.817C289.081 160.006 288.849 160.166 288.618 160.298C288.169 160.552 287.714 160.711 287.251 160.774C286.787 160.836 286.342 160.811 285.914 160.698C285.488 160.581 285.091 160.379 284.724 160.093C284.357 159.806 284.048 159.442 283.797 159C283.606 158.663 283.459 158.314 283.355 157.951C283.252 157.589 283.192 157.228 283.177 156.87C283.164 156.509 283.195 156.154 283.271 155.804C283.346 155.455 283.468 155.122 283.636 154.806C283.804 154.49 284.019 154.199 284.28 153.932C284.543 153.66 284.85 153.424 285.203 153.224C285.336 153.149 285.481 153.074 285.64 153C285.796 152.924 285.957 152.857 286.121 152.801C286.287 152.74 286.454 152.692 286.622 152.657C286.791 152.623 286.953 152.607 287.109 152.608L287.985 154.453C287.775 154.486 287.571 154.545 287.373 154.628C287.177 154.707 286.99 154.797 286.814 154.897C286.567 155.037 286.354 155.203 286.177 155.393C286 155.579 285.868 155.783 285.781 156.004C285.697 156.223 285.664 156.457 285.682 156.704C285.7 156.951 285.782 157.203 285.927 157.46C286.019 157.621 286.129 157.765 286.258 157.891C286.386 158.015 286.526 158.111 286.679 158.18C286.834 158.243 286.996 158.274 287.166 158.271C287.34 158.267 287.513 158.215 287.686 158.117C287.803 158.05 287.915 157.966 288.021 157.865C288.13 157.762 288.209 157.649 288.256 157.523L288.07 157.151L286.946 157.764L286.212 156.342C286.664 156.065 287.118 155.791 287.573 155.52C288.026 155.246 288.481 154.968 288.938 154.684L290.709 157.676Z" fill="#479B04" fill-opacity="0.5"/>
<path fill-rule="evenodd" clip-rule="evenodd" d="M17.5466 134.03C27.1069 128.603 30.4574 116.453 25.0302 106.893C19.603 97.3326 7.45323 93.9821 -2.10706 99.4093C-11.6673 104.837 -15.0178 116.986 -9.59063 126.547C-4.16342 136.107 7.98635 139.457 17.5466 134.03ZM19.5682 137.591C31.0951 131.047 35.1349 116.398 28.5912 104.871C22.0475 93.3444 7.39839 89.3046 -4.12858 95.8483C-15.6555 102.392 -19.6953 117.041 -13.1516 128.568C-6.60796 140.095 8.04118 144.135 19.5682 137.591Z" fill="#FFD62A" fill-opacity="0.5"/>
<path fill-rule="evenodd" clip-rule="evenodd" d="M126.547 162.03C136.107 156.603 139.457 144.453 134.03 134.893C128.603 125.333 116.453 121.982 106.893 127.409C97.3327 132.837 93.9822 144.986 99.4094 154.547C104.837 164.107 116.986 167.457 126.547 162.03ZM128.568 165.591C140.095 159.048 144.135 144.398 137.591 132.871C131.048 121.345 116.398 117.305 104.871 123.848C93.3445 130.392 89.3047 145.041 95.8484 156.568C102.392 168.095 117.041 172.135 128.568 165.591Z" fill="#8E53F6" fill-opacity="0.5"/>
<path fill-rule="evenodd" clip-rule="evenodd" d="M22.5466 10.0301C32.1069 4.60292 35.4574 -7.54685 30.0302 -17.1071C24.603 -26.6674 12.4532 -30.0179 2.89294 -24.5907C-6.66734 -19.1635 -10.0178 -7.01373 -4.59063 2.54656C0.836583 12.1068 12.9863 15.4573 22.5466 10.0301ZM24.5682 13.5911C36.0951 7.04746 40.1349 -7.60169 33.5912 -19.1287C27.0475 -30.6556 12.3984 -34.6954 0.871422 -28.1517C-10.6555 -21.608 -14.6953 -6.95889 -8.15163 4.56808C-1.60796 16.095 13.0412 20.1348 24.5682 13.5911Z" fill="#8E53F6" fill-opacity="0.5"/>
<path fill-rule="evenodd" clip-rule="evenodd" d="M399.547 66.0301C409.107 60.6029 412.457 48.4532 407.03 38.8929C401.603 29.3326 389.453 25.9821 379.893 31.4093C370.333 36.8365 366.982 48.9863 372.409 58.5466C377.837 68.1068 389.986 71.4573 399.547 66.0301ZM401.568 69.5911C413.095 63.0475 417.135 48.3983 410.591 36.8713C404.048 25.3444 389.398 21.3046 377.871 27.8483C366.344 34.392 362.305 49.0411 368.848 60.5681C375.392 72.095 390.041 76.1348 401.568 69.5911Z" fill="#FA4545" fill-opacity="0.5"/>
<path fill-rule="evenodd" clip-rule="evenodd" d="M85.7545 308.962C95.8294 313.361 107.563 308.76 111.962 298.685C116.361 288.61 111.759 276.876 101.684 272.477C91.6096 268.079 79.8762 272.68 75.4773 282.755C71.0784 292.83 75.6796 304.563 85.7545 308.962ZM84.116 312.715C96.2634 318.018 110.41 312.471 115.714 300.323C121.018 288.176 115.47 274.029 103.323 268.725C91.1756 263.421 77.0285 268.969 71.7246 281.116C66.4208 293.264 71.9686 307.411 84.116 312.715Z" fill="#FFD62A" fill-opacity="0.5"/>
<path fill-rule="evenodd" clip-rule="evenodd" d="M-9.36659 262.84C0.708287 267.239 12.4416 262.638 16.8406 252.563C21.2395 242.488 16.6382 230.755 6.56336 226.356C-3.51151 221.957 -15.2448 226.558 -19.6438 236.633C-24.0427 246.708 -19.4415 258.442 -9.36659 262.84ZM-11.0051 266.593C1.14232 271.897 15.2894 266.349 20.5932 254.202C25.8971 242.054 20.3493 227.907 8.20187 222.603C-3.94554 217.3 -18.0926 222.847 -23.3965 234.995C-28.7003 247.142 -23.1525 261.289 -11.0051 266.593Z" fill="#479B04" fill-opacity="0.5"/>
<path fill-rule="evenodd" clip-rule="evenodd" d="M279.864 -18.5239C270.323 -13.0628 267.016 -0.901225 272.477 8.63975C277.938 18.1807 290.1 21.4881 299.641 16.027C309.181 10.5659 312.489 -1.59564 307.028 -11.1366C301.567 -20.6776 289.405 -23.985 279.864 -18.5239ZM277.83 -22.0777C266.326 -15.4932 262.339 -0.829797 268.923 10.6739C275.508 22.1776 290.171 26.1653 301.675 19.5808C313.178 12.9963 317.166 -1.66707 310.582 -13.1708C303.997 -24.6744 289.334 -28.6622 277.83 -22.0777Z" fill="black" fill-opacity="0.5"/>
<path d="M289.321 165.301L295.774 177.61L291.989 179.57L287.573 171.452L286.757 173.164L283.819 171.004L285.384 167.348L289.321 165.301ZM300.657 164.349C300.918 164.8 301.085 165.279 301.159 165.785C301.23 166.285 301.234 166.794 301.172 167.311C301.112 167.819 300.998 168.325 300.83 168.828C300.664 169.322 300.476 169.791 300.267 170.235L302.939 168.692L304.768 172.328L296.695 176.627L294.918 173.549C295.158 173.275 295.401 172.973 295.647 172.643C295.895 172.305 296.123 171.951 296.331 171.583C296.545 171.211 296.726 170.828 296.875 170.434C297.029 170.037 297.135 169.641 297.193 169.247C297.253 168.844 297.253 168.446 297.191 168.053C297.135 167.657 297 167.272 296.785 166.9C296.662 166.686 296.513 166.52 296.34 166.402C296.172 166.281 295.99 166.206 295.792 166.177C295.592 166.142 295.387 166.151 295.177 166.205C294.97 166.249 294.765 166.33 294.562 166.447C294.393 166.545 294.232 166.664 294.08 166.805C293.925 166.939 293.782 167.089 293.652 167.255C293.522 167.42 293.41 167.597 293.316 167.787C293.225 167.967 293.156 168.154 293.109 168.346L290.451 165.46C290.539 165.131 290.678 164.818 290.867 164.521C291.056 164.224 291.276 163.947 291.526 163.69C291.773 163.427 292.04 163.186 292.327 162.968C292.615 162.749 292.908 162.554 293.206 162.381C293.872 161.997 294.562 161.76 295.277 161.671C295.989 161.575 296.678 161.617 297.345 161.796C298.015 161.966 298.637 162.268 299.211 162.703C299.791 163.135 300.273 163.684 300.657 164.349Z" fill="#479B04" fill-opacity="0.5"/>
<path d="M284.05 3.50488C283.741 2.96925 283.47 2.40357 283.239 1.80784C283.011 1.21775 282.839 0.61408 282.724 -0.003162C282.605 -0.61151 282.556 -1.21815 282.575 -1.82307C282.594 -2.42799 282.699 -3.00745 282.891 -3.56146C283.085 -4.10983 283.378 -4.62472 283.769 -5.10613C284.155 -5.58429 284.658 -6.0024 285.278 -6.36048C285.548 -6.51673 285.84 -6.66984 286.152 -6.81981C286.461 -6.96089 286.779 -7.08788 287.104 -7.20077C287.428 -7.30476 287.757 -7.38577 288.092 -7.44379C288.43 -7.49616 288.759 -7.50571 289.079 -7.47241L290.485 -4.02165C290.251 -4.02222 289.999 -4.00414 289.727 -3.9674C289.458 -3.92502 289.188 -3.87093 288.918 -3.80512C288.648 -3.73932 288.386 -3.65941 288.132 -3.56542C287.881 -3.46578 287.652 -3.35575 287.443 -3.2353C287.116 -3.0465 286.86 -2.83863 286.675 -2.6117C286.488 -2.37588 286.363 -2.12338 286.301 -1.85419C286.233 -1.58175 286.218 -1.29501 286.256 -0.993979C286.298 -0.687305 286.384 -0.368716 286.515 -0.0382125C286.749 -0.413947 287.024 -0.757161 287.341 -1.06785C287.658 -1.37855 288.008 -1.64457 288.391 -1.86592C288.865 -2.13936 289.358 -2.32648 289.872 -2.42729C290.385 -2.52809 290.88 -2.53595 291.358 -2.45086C291.839 -2.36014 292.289 -2.17278 292.708 -1.88878C293.128 -1.60478 293.483 -1.21189 293.772 -0.710089C294.143 -0.0673354 294.368 0.588587 294.446 1.25768C294.518 1.93002 294.462 2.57508 294.278 3.19286C294.093 3.81063 293.787 4.38614 293.358 4.91941C292.923 5.45592 292.385 5.90973 291.742 6.28082C290.958 6.73329 290.197 6.97733 289.458 7.01292C288.717 7.0574 288.017 6.93898 287.359 6.65767C286.698 6.38525 286.088 5.9741 285.53 5.42424C284.966 4.87763 284.473 4.23785 284.05 3.50488ZM288.264 2.71816C288.362 2.8873 288.489 3.01675 288.646 3.10649C288.798 3.19949 288.96 3.25974 289.134 3.28723C289.308 3.31472 289.485 3.30989 289.667 3.27274C289.848 3.23559 290.015 3.17307 290.167 3.08518C290.32 2.99729 290.454 2.88566 290.572 2.75028C290.692 2.62054 290.784 2.47356 290.847 2.30935C290.913 2.15078 290.944 1.98268 290.939 1.80505C290.932 1.63631 290.881 1.47018 290.787 1.30668C290.693 1.14317 290.57 1.01492 290.418 0.921917C290.261 0.832173 290.096 0.773556 289.922 0.746067C289.748 0.718577 289.569 0.720586 289.384 0.752095C289.203 0.789242 289.036 0.851761 288.884 0.939651C288.731 1.02754 288.597 1.13918 288.479 1.27456C288.362 1.40994 288.27 1.55691 288.204 1.71548C288.141 1.87969 288.113 2.04616 288.12 2.2149C288.122 2.3869 288.17 2.55465 288.264 2.71816Z" fill="black" fill-opacity="0.5"/>
<path d="M4.32147 115.301L10.7743 127.61L6.98928 129.57L2.57312 121.452L1.75706 123.164L-1.18145 121.004L0.384214 117.348L4.32147 115.301ZM14.9028 113.003C15.2545 114.927 15.5736 116.671 15.86 118.235C15.9816 118.902 16.1029 119.561 16.2237 120.213C16.3412 120.859 16.4468 121.452 16.5405 121.992C16.6365 122.523 16.7189 122.971 16.7875 123.338C16.8562 123.704 16.8976 123.932 16.9117 124.022L12.3336 126.326L11.3873 115.664L6.93305 118.574L4.82368 114.921L13.1254 109.925L14.9028 113.003Z" fill="#FFD62A" fill-opacity="0.5"/>
<path fill-rule="evenodd" clip-rule="evenodd" d="M422.633 259.84C432.708 264.239 444.442 259.638 448.841 249.563C453.239 239.488 448.638 227.755 438.563 223.356C428.488 218.957 416.755 223.558 412.356 233.633C407.957 243.708 412.559 255.442 422.633 259.84ZM420.995 263.593C433.142 268.897 447.289 263.349 452.593 251.202C457.897 239.054 452.349 224.907 440.202 219.603C428.054 214.3 413.907 219.847 408.604 231.995C403.3 244.142 408.847 258.289 420.995 263.593Z" fill="#9551EA" fill-opacity="0.5"/>
<path d="M437.108 232.535C436.959 232.793 436.783 232.987 436.579 233.117C436.379 233.249 436.162 233.335 435.929 233.374C435.695 233.413 435.451 233.414 435.195 233.378C434.943 233.341 434.693 233.281 434.443 233.198C434.192 233.116 433.95 233.017 433.714 232.902C433.482 232.788 433.268 232.675 433.073 232.563C432.881 232.452 432.685 232.328 432.486 232.193C432.289 232.062 432.098 231.921 431.913 231.769C431.728 231.616 431.552 231.455 431.386 231.285C431.221 231.111 431.076 230.93 430.949 230.741L434.399 224.744C434.614 224.773 434.835 224.816 435.063 224.873C435.292 224.927 435.518 224.994 435.741 225.073C435.969 225.151 436.189 225.239 436.402 225.336C436.616 225.431 436.817 225.533 437.006 225.642C437.227 225.769 437.44 225.911 437.647 226.068C437.858 226.227 438.048 226.399 438.218 226.584C438.388 226.769 438.533 226.966 438.652 227.175C438.773 227.381 438.856 227.599 438.901 227.828C438.95 228.058 438.953 228.296 438.912 228.541C438.873 228.787 438.777 229.042 438.625 229.306C438.525 229.479 438.406 229.628 438.269 229.751C438.131 229.874 437.981 229.97 437.818 230.037C437.655 230.104 437.482 230.143 437.299 230.152C437.117 230.159 436.931 230.134 436.74 230.078C436.911 230.247 437.049 230.43 437.155 230.627C437.263 230.826 437.333 231.032 437.363 231.244C437.397 231.458 437.392 231.674 437.348 231.893C437.308 232.113 437.228 232.327 437.108 232.535ZM436.275 228.52C436.327 228.43 436.353 228.343 436.351 228.259C436.352 228.173 436.336 228.093 436.303 228.021C436.274 227.95 436.232 227.886 436.177 227.83C436.126 227.776 436.076 227.734 436.026 227.706C435.964 227.67 435.898 227.644 435.828 227.629C435.759 227.613 435.689 227.602 435.619 227.595L434.995 228.611C435.066 228.652 435.158 228.697 435.27 228.746C435.383 228.794 435.499 228.826 435.618 228.841C435.743 228.855 435.862 228.841 435.977 228.8C436.094 228.756 436.193 228.662 436.275 228.52ZM434.739 229.655C434.649 229.603 434.557 229.562 434.463 229.532L433.832 230.582C433.873 230.618 433.913 230.653 433.951 230.688C433.994 230.721 434.037 230.75 434.08 230.775C434.145 230.813 434.22 230.848 434.305 230.88C434.391 230.909 434.48 230.923 434.572 230.922C434.665 230.918 434.754 230.893 434.839 230.847C434.926 230.802 435.004 230.721 435.072 230.603C435.14 230.486 435.173 230.376 435.169 230.275C435.169 230.175 435.147 230.087 435.106 230.009C435.066 229.928 435.01 229.859 434.94 229.801C434.871 229.741 434.805 229.692 434.739 229.655Z" fill="#9551EA" fill-opacity="0.5"/>
<path d="M429.476 246.067C429.053 246.8 428.553 247.361 427.975 247.749C427.404 248.14 426.79 248.384 426.133 248.478C425.477 248.573 424.794 248.532 424.084 248.355C423.375 248.179 422.673 247.89 421.979 247.49C421.647 247.297 421.333 247.086 421.037 246.855C420.745 246.619 420.464 246.37 420.194 246.109C419.933 245.846 419.678 245.571 419.43 245.285C419.187 245.002 418.947 244.709 418.708 244.406L420.973 241.225C421.111 241.455 421.268 241.685 421.443 241.914C421.619 242.143 421.809 242.362 422.012 242.569C422.221 242.78 422.438 242.977 422.664 243.16C422.895 243.346 423.129 243.507 423.365 243.644C423.506 243.725 423.685 243.813 423.901 243.908C424.12 243.997 424.342 244.061 424.567 244.101C424.796 244.135 425.009 244.13 425.207 244.087C425.414 244.041 425.574 243.919 425.688 243.722C425.796 243.536 425.835 243.344 425.806 243.147C425.783 242.953 425.711 242.765 425.59 242.583C425.479 242.398 425.334 242.22 425.154 242.049C424.975 241.878 424.786 241.717 424.588 241.565C424.396 241.416 424.206 241.284 424.017 241.167C423.834 241.054 423.681 240.962 423.557 240.89C423.303 240.744 423.037 240.605 422.759 240.475C422.487 240.348 422.207 240.246 421.92 240.171L426.204 233.533L433.161 237.302L431.306 240.944L427.198 238.256L426.244 239.713C426.533 239.797 426.813 239.899 427.083 240.017C427.356 240.129 427.62 240.259 427.874 240.406C428.387 240.702 428.814 241.061 429.156 241.484C429.507 241.905 429.757 242.365 429.905 242.864C430.059 243.366 430.101 243.891 430.034 244.438C429.975 244.983 429.789 245.526 429.476 246.067ZM438.747 251.69L437.993 251.277L435.731 254.843L431.713 252.974L434.172 249.184L429.597 246.678L435.136 239.975L438.333 241.821L434.414 246.46L435.55 247.07L439.573 240.845L443.243 242.964L439.366 249.093L440.046 249.44L438.747 251.69Z" fill="#9551EA" fill-opacity="0.5"/>
<path d="M-1.11594 102.34L2.21617 108.863L0.31232 110.099L-3.51534 103.899L-1.11594 102.34Z" fill="#FFD62A" fill-opacity="0.5"/>
<path d="M291.867 10.517C291.718 10.2597 291.638 10.0102 291.627 9.76862C291.613 9.52885 291.647 9.29819 291.73 9.07664C291.813 8.85509 291.934 8.64247 292.094 8.43879C292.252 8.24 292.429 8.0529 292.625 7.87747C292.822 7.70205 293.029 7.54124 293.246 7.39504C293.46 7.25063 293.665 7.12203 293.861 7.00923C294.053 6.89823 294.257 6.7905 294.474 6.68606C294.686 6.5803 294.904 6.48539 295.128 6.40134C295.353 6.31728 295.58 6.24587 295.811 6.18711C296.043 6.13144 296.273 6.096 296.5 6.08078L299.968 12.0665C299.836 12.2381 299.688 12.4082 299.525 12.5768C299.364 12.7485 299.193 12.9112 299.013 13.0648C298.831 13.2233 298.645 13.37 298.454 13.505C298.265 13.643 298.076 13.7667 297.887 13.8759C297.667 14.003 297.437 14.1171 297.198 14.2181C296.955 14.3209 296.711 14.3997 296.466 14.4545C296.221 14.5093 295.978 14.536 295.737 14.5344C295.498 14.5359 295.268 14.4991 295.047 14.4242C294.823 14.351 294.615 14.2351 294.424 14.0765C294.231 13.9197 294.057 13.7095 293.905 13.4459C293.805 13.2723 293.736 13.0952 293.698 12.9146C293.66 12.734 293.652 12.5563 293.675 12.3817C293.699 12.207 293.752 12.0378 293.835 11.874C293.92 11.7133 294.035 11.5644 294.179 11.4274C293.947 11.4911 293.719 11.5192 293.496 11.5118C293.269 11.5061 293.056 11.4635 292.857 11.384C292.656 11.3063 292.471 11.1939 292.303 11.0467C292.132 10.9014 291.987 10.7248 291.867 10.517ZM295.761 11.8041C295.813 11.8941 295.875 11.9593 295.948 11.9998C296.023 12.0435 296.1 12.0693 296.179 12.0774C296.255 12.0873 296.331 12.0827 296.407 12.0637C296.48 12.0465 296.541 12.0236 296.59 11.995C296.652 11.9592 296.707 11.915 296.756 11.8623C296.804 11.8097 296.849 11.7549 296.89 11.6978L296.322 10.6491C296.251 10.6903 296.166 10.7475 296.067 10.8208C295.969 10.8941 295.884 10.9786 295.811 11.0744C295.737 11.1751 295.689 11.2855 295.667 11.4055C295.647 11.5286 295.678 11.6615 295.761 11.8041ZM295.546 9.9064C295.636 9.85448 295.717 9.79505 295.79 9.7281L295.196 8.65682C295.145 8.67437 295.094 8.69103 295.045 8.70679C294.995 8.72744 294.949 8.7503 294.905 8.77537C294.84 8.81296 294.772 8.86034 294.702 8.91751C294.633 8.97777 294.577 9.04775 294.532 9.12745C294.488 9.21026 294.466 9.29985 294.464 9.39624C294.458 9.49442 294.49 9.60243 294.558 9.72026C294.626 9.8381 294.704 9.92081 294.794 9.96837C294.88 10.0177 294.968 10.0438 295.056 10.0465C295.146 10.0523 295.234 10.039 295.318 10.0067C295.405 9.97742 295.481 9.944 295.546 9.9064Z" fill="black" fill-opacity="0.5"/>
</svg>
