<svg width="27" height="26" viewBox="0 0 27 26" fill="none" xmlns="http://www.w3.org/2000/svg">
<path d="M13.5 5.28125V8.125M13.5 5.28125C13.5 4.71881 13.6668 4.169 13.9793 3.70135C14.2917 3.2337 14.7359 2.86921 15.2555 2.65397C15.7751 2.43873 16.3469 2.38242 16.8985 2.49214C17.4502 2.60187 17.9569 2.87271 18.3546 3.27042C18.7523 3.66812 19.0231 4.17483 19.1329 4.72646C19.2426 5.2781 19.1863 5.84988 18.971 6.36951C18.7558 6.88913 18.3913 7.33327 17.9237 7.64574C17.456 7.95822 16.9062 8.125 16.3438 8.125H13.5M13.5 5.28125C13.5 4.71881 13.3332 4.169 13.0207 3.70135C12.7083 3.2337 12.2641 2.86921 11.7445 2.65397C11.2249 2.43873 10.6531 2.38242 10.1015 2.49214C9.54983 2.60187 9.04312 2.87271 8.64542 3.27042C8.24771 3.66812 7.97687 4.17483 7.86714 4.72646C7.75742 5.2781 7.81373 5.84988 8.02897 6.36951C8.24421 6.88913 8.6087 7.33327 9.07635 7.64574C9.544 7.95822 10.0938 8.125 10.6563 8.125H13.5" stroke="white" stroke-miterlimit="10" stroke-linecap="round"/>
<path d="M21.625 8.125H5.375C4.47754 8.125 3.75 8.85254 3.75 9.75V12.1875C3.75 13.085 4.47754 13.8125 5.375 13.8125H21.625C22.5225 13.8125 23.25 13.085 23.25 12.1875V9.75C23.25 8.85254 22.5225 8.125 21.625 8.125Z" stroke="white" stroke-linecap="round" stroke-linejoin="round"/>
<path d="M21.625 13.8125V21.125C21.625 21.7715 21.3682 22.3915 20.9111 22.8486C20.454 23.3057 19.834 23.5625 19.1875 23.5625H7.8125C7.16603 23.5625 6.54605 23.3057 6.08893 22.8486C5.63181 22.3915 5.375 21.7715 5.375 21.125V13.8125M13.5 8.125V23.5625" stroke="white" stroke-linecap="round" stroke-linejoin="round"/>
</svg>
