<svg width="114" height="45" viewBox="0 0 114 45" fill="none" xmlns="http://www.w3.org/2000/svg">
<g filter="url(#filter0_d_6948_2475)">
<path d="M13 31.7471V13.2529H21.7854C23.3288 13.2529 24.6248 13.4425 25.6735 13.8218C26.7288 14.201 27.5236 14.7369 28.0579 15.4292C28.5987 16.1215 28.8691 16.9373 28.8691 17.8764C28.8691 18.5567 28.7042 19.1768 28.3745 19.7367C28.0513 20.2966 27.5962 20.7662 27.0092 21.1454C26.4221 21.5187 25.7362 21.7776 24.9513 21.9221V22.1027C25.8219 22.1328 26.6134 22.3344 27.3258 22.7077C28.0381 23.0749 28.6053 23.5836 29.0274 24.2338C29.4496 24.878 29.6606 25.6366 29.6606 26.5095C29.6606 27.5209 29.3704 28.4209 28.79 29.2096C28.2162 29.9983 27.3983 30.6183 26.3364 31.0699C25.2745 31.5214 24.0081 31.7471 22.5373 31.7471H13ZM18.5008 27.7376H21.0731C21.9965 27.7376 22.689 27.5811 23.1507 27.2681C23.6124 26.949 23.8433 26.4794 23.8433 25.8593C23.8433 25.4259 23.7344 25.0586 23.5168 24.7576C23.2991 24.4566 22.9891 24.2278 22.5868 24.0713C22.191 23.9148 21.7129 23.8365 21.1522 23.8365H18.5008V27.7376ZM18.5008 20.73H20.7565C21.238 20.73 21.6634 20.6608 22.0327 20.5223C22.4021 20.3839 22.689 20.1852 22.8935 19.9263C23.1045 19.6614 23.2101 19.3394 23.2101 18.9601C23.2101 18.3881 22.9858 17.9517 22.5373 17.6507C22.0888 17.3436 21.5216 17.1901 20.8356 17.1901H18.5008V20.73Z" fill="url(#paint0_linear_6948_2475)"/>
<path d="M37.1104 13.2529V31.7471H31.6096V13.2529H37.1104Z" fill="url(#paint1_linear_6948_2475)"/>
<path d="M57.2486 13.2529V31.7471H52.658L45.3368 22.0304H45.2181V31.7471H39.7173V13.2529H44.3871L51.5895 22.9335H51.7478V13.2529H57.2486Z" fill="url(#paint2_linear_6948_2475)"/>
<path d="M73.0089 19.3574C72.9231 19.0383 72.7879 18.7584 72.6032 18.5176C72.4186 18.2708 72.1877 18.0631 71.9107 17.8945C71.6403 17.7199 71.3237 17.5905 70.9609 17.5062C70.6048 17.4159 70.2123 17.3707 69.7836 17.3707C68.8602 17.3707 68.072 17.5724 67.4191 17.9758C66.7727 18.3791 66.278 18.9601 65.935 19.7186C65.5987 20.4772 65.4305 21.3923 65.4305 22.4639C65.4305 23.5475 65.5921 24.4747 65.9153 25.2452C66.2384 26.0158 66.7199 26.6058 67.3597 27.0152C67.9995 27.4246 68.7943 27.6293 69.744 27.6293C70.5817 27.6293 71.2775 27.5179 71.8316 27.2952C72.3922 27.0724 72.811 26.7563 73.088 26.347C73.365 25.9376 73.5036 25.456 73.5036 24.9021L74.4533 24.9924H69.8232V21.4164H78.8065V23.981C78.8065 25.6667 78.414 27.1085 77.6291 28.3066C76.8508 29.4986 75.7758 30.4137 74.4039 31.0518C73.0386 31.6839 71.4721 32 69.7045 32C67.7324 32 66.001 31.6177 64.5104 30.8531C63.0198 30.0886 61.8556 28.9989 61.018 27.5841C60.1869 26.1694 59.7714 24.4867 59.7714 22.5361C59.7714 21.007 60.0253 19.6524 60.5332 18.4724C61.0477 17.2925 61.76 16.2961 62.6702 15.4834C63.5804 14.6646 64.6324 14.0475 65.8262 13.6321C67.02 13.2107 68.2996 13 69.6649 13C70.8653 13 71.98 13.1565 73.0089 13.4696C74.0444 13.7766 74.9579 14.2161 75.7494 14.788C76.5475 15.3539 77.1905 16.0252 77.6786 16.8018C78.1667 17.5784 78.4635 18.4303 78.569 19.3574H73.0089Z" fill="url(#paint3_linear_6948_2475)"/>
<path d="M101 22.5C101 24.5589 100.561 26.2958 99.6842 27.7106C98.8069 29.1193 97.623 30.1879 96.1324 30.9163C94.6418 31.6388 92.9797 32 91.1461 32C89.2993 32 87.6306 31.6358 86.14 30.9073C84.656 30.1728 83.4753 29.1012 82.5981 27.6925C81.7275 26.2777 81.2922 24.5469 81.2922 22.5C81.2922 20.4411 81.7275 18.7072 82.5981 17.2985C83.4753 15.8837 84.656 14.8151 86.14 14.0927C87.6306 13.3642 89.2993 13 91.1461 13C92.9797 13 94.6418 13.3642 96.1324 14.0927C97.623 14.8151 98.8069 15.8837 99.6842 17.2985C100.561 18.7072 101 20.4411 101 22.5ZM95.3409 22.5C95.3409 21.3923 95.1793 20.4591 94.8561 19.7006C94.5396 18.936 94.068 18.358 93.4414 17.9667C92.8214 17.5694 92.0563 17.3707 91.1461 17.3707C90.2359 17.3707 89.4675 17.5694 88.8409 17.9667C88.2209 18.358 87.7493 18.936 87.4261 19.7006C87.1096 20.4591 86.9513 21.3923 86.9513 22.5C86.9513 23.6077 87.1096 24.5439 87.4261 25.3085C87.7493 26.067 88.2209 26.645 88.8409 27.0423C89.4675 27.4336 90.2359 27.6293 91.1461 27.6293C92.0563 27.6293 92.8214 27.4336 93.4414 27.0423C94.068 26.645 94.5396 26.067 94.8561 25.3085C95.1793 24.5439 95.3409 23.6077 95.3409 22.5Z" fill="url(#paint4_linear_6948_2475)"/>
</g>
<defs>
<filter id="filter0_d_6948_2475" x="0" y="0" width="114" height="45" filterUnits="userSpaceOnUse" color-interpolation-filters="sRGB">
<feFlood flood-opacity="0" result="BackgroundImageFix"/>
<feColorMatrix in="SourceAlpha" type="matrix" values="0 0 0 0 0 0 0 0 0 0 0 0 0 0 0 0 0 0 127 0" result="hardAlpha"/>
<feOffset/>
<feGaussianBlur stdDeviation="6.5"/>
<feComposite in2="hardAlpha" operator="out"/>
<feColorMatrix type="matrix" values="0 0 0 0 0.996078 0 0 0 0 0.443137 0 0 0 0 0.168627 0 0 0 0.56 0"/>
<feBlend mode="normal" in2="BackgroundImageFix" result="effect1_dropShadow_6948_2475"/>
<feBlend mode="normal" in="SourceGraphic" in2="effect1_dropShadow_6948_2475" result="shape"/>
</filter>
<linearGradient id="paint0_linear_6948_2475" x1="74.6" y1="39.8235" x2="73.9842" y2="7.09224" gradientUnits="userSpaceOnUse">
<stop stop-color="#FE8B37"/>
<stop offset="1" stop-color="#FF3E13"/>
</linearGradient>
<linearGradient id="paint1_linear_6948_2475" x1="74.6" y1="39.8235" x2="73.9842" y2="7.09224" gradientUnits="userSpaceOnUse">
<stop stop-color="#FE8B37"/>
<stop offset="1" stop-color="#FF3E13"/>
</linearGradient>
<linearGradient id="paint2_linear_6948_2475" x1="74.6" y1="39.8235" x2="73.9842" y2="7.09224" gradientUnits="userSpaceOnUse">
<stop stop-color="#FE8B37"/>
<stop offset="1" stop-color="#FF3E13"/>
</linearGradient>
<linearGradient id="paint3_linear_6948_2475" x1="74.6" y1="39.8235" x2="73.9842" y2="7.09224" gradientUnits="userSpaceOnUse">
<stop stop-color="#FE8B37"/>
<stop offset="1" stop-color="#FF3E13"/>
</linearGradient>
<linearGradient id="paint4_linear_6948_2475" x1="74.6" y1="39.8235" x2="73.9842" y2="7.09224" gradientUnits="userSpaceOnUse">
<stop stop-color="#FE8B37"/>
<stop offset="1" stop-color="#FF3E13"/>
</linearGradient>
</defs>
</svg>
