<svg width="373" height="113" viewBox="0 0 373 113" fill="none" xmlns="http://www.w3.org/2000/svg">
<g filter="url(#filter0_d_5710_652)">
<path d="M48.3674 48.4455C51.9833 49.2582 54.8411 51.0577 56.9407 53.8442C59.0986 56.5726 60.1776 59.7073 60.1776 63.2484C60.1776 68.473 58.3696 72.5655 54.7536 75.5261C51.1377 78.4867 46.0637 79.967 39.5316 79.967H9V18.5784H38.5693C44.868 18.5784 49.7963 19.9716 53.3539 22.758C56.9699 25.5445 58.7778 29.4629 58.7778 34.5133C58.7778 38.1124 57.8155 41.1311 55.8909 43.5692C54.0246 45.9493 51.5168 47.5747 48.3674 48.4455ZM26.1467 42.9597H34.8075C39.1233 42.9597 41.2812 41.1891 41.2812 37.648C41.2812 33.9908 39.1233 32.1622 34.8075 32.1622H26.1467V42.9597ZM36.1197 66.209C40.4356 66.209 42.5935 64.4094 42.5935 60.8103C42.5935 58.9526 42.0103 57.5304 40.8438 56.5435C39.7357 55.5567 38.1319 55.0632 36.0323 55.0632H26.1467V66.209H36.1197Z" fill="white"/>
<path d="M76.3531 26.5894C73.3203 26.5894 70.8708 25.7767 69.0045 24.1512C67.1965 22.4678 66.2925 20.3779 66.2925 17.8818C66.2925 15.3275 67.1965 13.2087 69.0045 11.5252C70.8708 9.84174 73.3203 9 76.3531 9C79.3275 9 81.7187 9.84174 83.5267 11.5252C85.393 13.2087 86.3261 15.3275 86.3261 17.8818C86.3261 20.3779 85.393 22.4678 83.5267 24.1512C81.7187 25.7767 79.3275 26.5894 76.3531 26.5894ZM84.8389 31.1173V79.967H67.6922V31.1173H84.8389Z" fill="white"/>
<path d="M126.71 30.6819C132.367 30.6819 136.858 32.5686 140.182 36.3419C143.507 40.0571 145.169 45.1076 145.169 51.4931V79.967H128.022V53.7571C128.022 50.9707 127.293 48.7938 125.835 47.2264C124.377 45.601 122.423 44.7883 119.974 44.7883C117.407 44.7883 115.395 45.601 113.937 47.2264C112.479 48.7938 111.75 50.9707 111.75 53.7571V79.967H94.6035V31.1173H111.75V38.0834C113.267 35.8775 115.308 34.1069 117.874 32.7718C120.44 31.3786 123.385 30.6819 126.71 30.6819Z" fill="white"/>
<path d="M172.686 30.5078C176.011 30.5078 178.898 31.1754 181.347 32.5105C183.855 33.8457 185.78 35.6453 187.121 37.9093V31.1173H204.268V79.4445C204.268 84.0306 203.393 88.1522 201.643 91.8093C199.893 95.5246 197.152 98.4852 193.42 100.691C189.745 102.897 185.08 104 179.422 104C171.841 104 165.775 102.229 161.226 98.6884C156.677 95.1473 154.081 90.3291 153.44 84.2337H170.324C170.674 85.8011 171.549 87.0202 172.949 87.8909C174.348 88.7617 176.156 89.1971 178.373 89.1971C184.205 89.1971 187.121 85.9462 187.121 79.4445V73.1751C185.78 75.439 183.855 77.2386 181.347 78.5738C178.898 79.909 176.011 80.5765 172.686 80.5765C168.779 80.5765 165.221 79.5606 162.013 77.5289C158.864 75.4971 156.356 72.5946 154.49 68.8213C152.682 64.9899 151.778 60.549 151.778 55.4986C151.778 50.4482 152.682 46.0364 154.49 42.2631C156.356 38.4898 158.864 35.5872 162.013 33.5555C165.221 31.5237 168.779 30.5078 172.686 30.5078ZM187.121 55.4986C187.121 52.3639 186.246 49.8967 184.496 48.0972C182.805 46.2976 180.706 45.3978 178.198 45.3978C175.631 45.3978 173.503 46.2976 171.811 48.0972C170.12 49.8387 169.274 52.3058 169.274 55.4986C169.274 58.6334 170.12 61.1295 171.811 62.9872C173.503 64.7867 175.631 65.6865 178.198 65.6865C180.706 65.6865 182.805 64.7867 184.496 62.9872C186.246 61.1876 187.121 58.6914 187.121 55.4986Z" fill="white"/>
<path d="M236.871 80.5765C231.972 80.5765 227.569 79.5606 223.662 77.5289C219.812 75.4971 216.78 72.5946 214.563 68.8213C212.347 65.048 211.239 60.6071 211.239 55.4986C211.239 50.4482 212.347 46.0364 214.563 42.2631C216.838 38.4898 219.9 35.5872 223.749 33.5555C227.657 31.5237 232.06 30.5078 236.959 30.5078C241.858 30.5078 246.232 31.5237 250.081 33.5555C253.989 35.5872 257.051 38.4898 259.267 42.2631C261.542 46.0364 262.679 50.4482 262.679 55.4986C262.679 60.549 261.542 64.9899 259.267 68.8213C257.051 72.5946 253.989 75.4971 250.081 77.5289C246.174 79.5606 241.77 80.5765 236.871 80.5765ZM236.871 65.7736C239.263 65.7736 241.246 64.9028 242.82 63.1613C244.453 61.3617 245.27 58.8075 245.27 55.4986C245.27 52.1897 244.453 49.6645 242.82 47.923C241.246 46.1815 239.292 45.3107 236.959 45.3107C234.626 45.3107 232.672 46.1815 231.098 47.923C229.523 49.6645 228.736 52.1897 228.736 55.4986C228.736 58.8656 229.494 61.4198 231.01 63.1613C232.526 64.9028 234.48 65.7736 236.871 65.7736Z" fill="white"/>
<path d="M309.11 29.0275L288.114 79.967H270.53L291.701 31.0302H266.768V16.4015H309.11V29.0275Z" fill="url(#paint0_linear_5710_652)"/>
<path d="M360.501 31.3786H334.256V41.044C335.364 39.883 336.88 38.9542 338.805 38.2576C340.73 37.561 342.858 37.2126 345.191 37.2126C349.39 37.2126 352.89 38.1705 355.689 40.0862C358.547 42.0018 360.646 44.527 361.988 47.6618C363.329 50.7965 364 54.2215 364 57.9368C364 64.7867 362.046 70.1855 358.139 74.1329C354.231 78.0223 348.807 79.967 341.867 79.967C337.026 79.967 332.827 79.1543 329.269 77.5289C325.77 75.8454 323.087 73.5234 321.221 70.5628C319.354 67.6022 318.392 64.2062 318.334 60.3749H335.043C335.218 61.7101 335.801 62.8711 336.793 63.8579C337.784 64.8448 339.242 65.3382 341.167 65.3382C343.208 65.3382 344.754 64.6416 345.804 63.2484C346.853 61.8552 347.378 59.9976 347.378 57.6755C347.378 55.4115 346.824 53.699 345.716 52.538C344.608 51.319 343.004 50.7094 340.904 50.7094C339.33 50.7094 338.047 51.1158 337.055 51.9285C336.122 52.6832 335.568 53.641 335.393 54.802H318.684V16.3144H360.501V31.3786Z" fill="url(#paint1_linear_5710_652)"/>
</g>
<defs>
<filter id="filter0_d_5710_652" x="0" y="0" width="373" height="113" filterUnits="userSpaceOnUse" color-interpolation-filters="sRGB">
<feFlood flood-opacity="0" result="BackgroundImageFix"/>
<feColorMatrix in="SourceAlpha" type="matrix" values="0 0 0 0 0 0 0 0 0 0 0 0 0 0 0 0 0 0 127 0" result="hardAlpha"/>
<feOffset/>
<feGaussianBlur stdDeviation="4.5"/>
<feComposite in2="hardAlpha" operator="out"/>
<feColorMatrix type="matrix" values="0 0 0 0 0.0534201 0 0 0 0 0.5039 0 0 0 0 0.754167 0 0 0 1 0"/>
<feBlend mode="normal" in2="BackgroundImageFix" result="effect1_dropShadow_5710_652"/>
<feBlend mode="normal" in="SourceGraphic" in2="effect1_dropShadow_5710_652" result="shape"/>
</filter>
<linearGradient id="paint0_linear_5710_652" x1="290.726" y1="19.1333" x2="318.933" y2="93.8336" gradientUnits="userSpaceOnUse">
<stop stop-color="#FE7F37"/>
<stop offset="1" stop-color="#FF4B4B"/>
</linearGradient>
<linearGradient id="paint1_linear_5710_652" x1="290.726" y1="19.1333" x2="318.933" y2="93.8336" gradientUnits="userSpaceOnUse">
<stop stop-color="#FE7F37"/>
<stop offset="1" stop-color="#FF4B4B"/>
</linearGradient>
</defs>
</svg>
