<svg width="132" height="42" viewBox="0 0 132 42" fill="none" xmlns="http://www.w3.org/2000/svg">
<path d="M12.09 33.27C12.27 33.0033 12.5167 32.7867 12.83 32.62C13.15 32.4533 13.5133 32.37 13.92 32.37C14.3933 32.37 14.82 32.4867 15.2 32.72C15.5867 32.9533 15.89 33.2867 16.11 33.72C16.3367 34.1467 16.45 34.6433 16.45 35.21C16.45 35.7767 16.3367 36.28 16.11 36.72C15.89 37.1533 15.5867 37.49 15.2 37.73C14.82 37.97 14.3933 38.09 13.92 38.09C13.5067 38.09 13.1433 38.01 12.83 37.85C12.5233 37.6833 12.2767 37.47 12.09 37.21V38H10.69V30.6H12.09V33.27ZM15.02 35.21C15.02 34.8767 14.95 34.59 14.81 34.35C14.6767 34.1033 14.4967 33.9167 14.27 33.79C14.05 33.6633 13.81 33.6 13.55 33.6C13.2967 33.6 13.0567 33.6667 12.83 33.8C12.61 33.9267 12.43 34.1133 12.29 34.36C12.1567 34.6067 12.09 34.8967 12.09 35.23C12.09 35.5633 12.1567 35.8533 12.29 36.1C12.43 36.3467 12.61 36.5367 12.83 36.67C13.0567 36.7967 13.2967 36.86 13.55 36.86C13.81 36.86 14.05 36.7933 14.27 36.66C14.4967 36.5267 14.6767 36.3367 14.81 36.09C14.95 35.8433 15.02 35.55 15.02 35.21ZM22.6173 35.11C22.6173 35.31 22.604 35.49 22.5773 35.65H18.5273C18.5607 36.05 18.7007 36.3633 18.9473 36.59C19.194 36.8167 19.4973 36.93 19.8573 36.93C20.3773 36.93 20.7473 36.7067 20.9673 36.26H22.4773C22.3173 36.7933 22.0107 37.2333 21.5573 37.58C21.104 37.92 20.5473 38.09 19.8873 38.09C19.354 38.09 18.874 37.9733 18.4473 37.74C18.0273 37.5 17.6973 37.1633 17.4573 36.73C17.224 36.2967 17.1073 35.7967 17.1073 35.23C17.1073 34.6567 17.224 34.1533 17.4573 33.72C17.6907 33.2867 18.0173 32.9533 18.4373 32.72C18.8573 32.4867 19.3407 32.37 19.8873 32.37C20.414 32.37 20.884 32.4833 21.2973 32.71C21.7173 32.9367 22.0407 33.26 22.2673 33.68C22.5007 34.0933 22.6173 34.57 22.6173 35.11ZM21.1673 34.71C21.1607 34.35 21.0307 34.0633 20.7773 33.85C20.524 33.63 20.214 33.52 19.8473 33.52C19.5007 33.52 19.2073 33.6267 18.9673 33.84C18.734 34.0467 18.5907 34.3367 18.5373 34.71H21.1673ZM26.1792 33.61H25.2092V38H23.7892V33.61H23.1592V32.46H23.7892V32.18C23.7892 31.5 23.9826 31 24.3692 30.68C24.7559 30.36 25.3392 30.21 26.1192 30.23V31.41C25.7792 31.4033 25.5426 31.46 25.4092 31.58C25.2759 31.7 25.2092 31.9167 25.2092 32.23V32.46H26.1792V33.61ZM29.5465 38.09C29.0132 38.09 28.5332 37.9733 28.1065 37.74C27.6798 37.5 27.3432 37.1633 27.0965 36.73C26.8565 36.2967 26.7365 35.7967 26.7365 35.23C26.7365 34.6633 26.8598 34.1633 27.1065 33.73C27.3598 33.2967 27.7032 32.9633 28.1365 32.73C28.5698 32.49 29.0532 32.37 29.5865 32.37C30.1198 32.37 30.6032 32.49 31.0365 32.73C31.4698 32.9633 31.8098 33.2967 32.0565 33.73C32.3098 34.1633 32.4365 34.6633 32.4365 35.23C32.4365 35.7967 32.3065 36.2967 32.0465 36.73C31.7932 37.1633 31.4465 37.5 31.0065 37.74C30.5732 37.9733 30.0865 38.09 29.5465 38.09ZM29.5465 36.87C29.7998 36.87 30.0365 36.81 30.2565 36.69C30.4832 36.5633 30.6632 36.3767 30.7965 36.13C30.9298 35.8833 30.9965 35.5833 30.9965 35.23C30.9965 34.7033 30.8565 34.3 30.5765 34.02C30.3032 33.7333 29.9665 33.59 29.5665 33.59C29.1665 33.59 28.8298 33.7333 28.5565 34.02C28.2898 34.3 28.1565 34.7033 28.1565 35.23C28.1565 35.7567 28.2865 36.1633 28.5465 36.45C28.8132 36.73 29.1465 36.87 29.5465 36.87ZM34.8634 33.32C35.0434 33.0267 35.2768 32.7967 35.5634 32.63C35.8568 32.4633 36.1901 32.38 36.5634 32.38V33.85H36.1934C35.7534 33.85 35.4201 33.9533 35.1934 34.16C34.9734 34.3667 34.8634 34.7267 34.8634 35.24V38H33.4634V32.46H34.8634V33.32ZM42.6564 35.11C42.6564 35.31 42.6431 35.49 42.6164 35.65H38.5664C38.5997 36.05 38.7397 36.3633 38.9864 36.59C39.2331 36.8167 39.5364 36.93 39.8964 36.93C40.4164 36.93 40.7864 36.7067 41.0064 36.26H42.5164C42.3564 36.7933 42.0497 37.2333 41.5964 37.58C41.1431 37.92 40.5864 38.09 39.9264 38.09C39.3931 38.09 38.9131 37.9733 38.4864 37.74C38.0664 37.5 37.7364 37.1633 37.4964 36.73C37.2631 36.2967 37.1464 35.7967 37.1464 35.23C37.1464 34.6567 37.2631 34.1533 37.4964 33.72C37.7297 33.2867 38.0564 32.9533 38.4764 32.72C38.8964 32.4867 39.3797 32.37 39.9264 32.37C40.4531 32.37 40.9231 32.4833 41.3364 32.71C41.7564 32.9367 42.0797 33.26 42.3064 33.68C42.5397 34.0933 42.6564 34.57 42.6564 35.11ZM41.2064 34.71C41.1997 34.35 41.0697 34.0633 40.8164 33.85C40.5631 33.63 40.2531 33.52 39.8864 33.52C39.5397 33.52 39.2464 33.6267 39.0064 33.84C38.7731 34.0467 38.6297 34.3367 38.5764 34.71H41.2064ZM45.8411 36.58V35.48L49.1111 30.8H50.7411V35.36H51.6211V36.58H50.7411V38H49.3411V36.58H45.8411ZM49.4311 32.3L47.3811 35.36H49.4311V32.3ZM52.9524 36.42C53.5924 35.8867 54.1024 35.4433 54.4824 35.09C54.8624 34.73 55.1791 34.3567 55.4324 33.97C55.6858 33.5833 55.8124 33.2033 55.8124 32.83C55.8124 32.49 55.7324 32.2233 55.5724 32.03C55.4124 31.8367 55.1658 31.74 54.8324 31.74C54.4991 31.74 54.2424 31.8533 54.0624 32.08C53.8824 32.3 53.7891 32.6033 53.7824 32.99H52.4224C52.4491 32.19 52.6858 31.5833 53.1324 31.17C53.5858 30.7567 54.1591 30.55 54.8524 30.55C55.6124 30.55 56.1958 30.7533 56.6024 31.16C57.0091 31.56 57.2124 32.09 57.2124 32.75C57.2124 33.27 57.0724 33.7667 56.7924 34.24C56.5124 34.7133 56.1924 35.1267 55.8324 35.48C55.4724 35.8267 55.0024 36.2467 54.4224 36.74H57.3724V37.9H52.4324V36.86L52.9524 36.42ZM63.2574 38.09C62.7241 38.09 62.2441 37.9733 61.8174 37.74C61.3908 37.5 61.0541 37.1633 60.8074 36.73C60.5674 36.2967 60.4474 35.7967 60.4474 35.23C60.4474 34.6633 60.5708 34.1633 60.8174 33.73C61.0708 33.2967 61.4141 32.9633 61.8474 32.73C62.2808 32.49 62.7641 32.37 63.2974 32.37C63.8308 32.37 64.3141 32.49 64.7474 32.73C65.1808 32.9633 65.5208 33.2967 65.7674 33.73C66.0208 34.1633 66.1474 34.6633 66.1474 35.23C66.1474 35.7967 66.0174 36.2967 65.7574 36.73C65.5041 37.1633 65.1574 37.5 64.7174 37.74C64.2841 37.9733 63.7974 38.09 63.2574 38.09ZM63.2574 36.87C63.5108 36.87 63.7474 36.81 63.9674 36.69C64.1941 36.5633 64.3741 36.3767 64.5074 36.13C64.6408 35.8833 64.7074 35.5833 64.7074 35.23C64.7074 34.7033 64.5674 34.3 64.2874 34.02C64.0141 33.7333 63.6774 33.59 63.2774 33.59C62.8774 33.59 62.5408 33.7333 62.2674 34.02C62.0008 34.3 61.8674 34.7033 61.8674 35.23C61.8674 35.7567 61.9974 36.1633 62.2574 36.45C62.5241 36.73 62.8574 36.87 63.2574 36.87ZM72.4044 32.46V38H70.9944V37.3C70.8144 37.54 70.5777 37.73 70.2844 37.87C69.9977 38.0033 69.6844 38.07 69.3444 38.07C68.911 38.07 68.5277 37.98 68.1944 37.8C67.861 37.6133 67.5977 37.3433 67.4044 36.99C67.2177 36.63 67.1244 36.2033 67.1244 35.71V32.46H68.5244V35.51C68.5244 35.95 68.6344 36.29 68.8544 36.53C69.0744 36.7633 69.3744 36.88 69.7544 36.88C70.141 36.88 70.4444 36.7633 70.6644 36.53C70.8844 36.29 70.9944 35.95 70.9944 35.51V32.46H72.4044ZM75.4157 33.61V36.29C75.4157 36.4767 75.459 36.6133 75.5457 36.7C75.639 36.78 75.7924 36.82 76.0057 36.82H76.6557V38H75.7757C74.5957 38 74.0057 37.4267 74.0057 36.28V33.61H73.3457V32.46H74.0057V31.09H75.4157V32.46H76.6557V33.61H75.4157Z" fill="url(#paint0_linear_6948_2465)"/>
<g filter="url(#filter0_d_6948_2465)">
<path d="M15.9382 8.23954H20.5463V20.251C20.5407 21.3916 20.2576 22.3954 19.697 23.2624C19.142 24.1236 18.374 24.7966 17.3929 25.2814C16.4175 25.7605 15.2935 26 14.0209 26C12.9165 26 11.9075 25.8061 10.9937 25.4183C10.0799 25.0247 9.35113 24.4087 8.80735 23.5703C8.26357 22.7262 7.99448 21.6312 8.00009 20.2852H12.6755C12.6923 20.7243 12.7652 21.0951 12.8941 21.3973C13.0287 21.6996 13.2137 21.9278 13.4491 22.0817C13.6902 22.23 13.9817 22.3042 14.3236 22.3042C14.6712 22.3042 14.9627 22.2272 15.1982 22.0732C15.4392 21.9192 15.6214 21.6911 15.7448 21.3888C15.8681 21.0808 15.9326 20.7015 15.9382 20.251V8.23954Z" fill="url(#paint1_linear_6948_2465)"/>
<path d="M27.2357 25.7605H22.1903L27.8747 8.23954H34.2656L39.95 25.7605H34.9046L31.1374 13.0646H31.0029L27.2357 25.7605ZM26.2938 18.8479H35.7792V22.4068H26.2938V18.8479Z" fill="url(#paint2_linear_6948_2465)"/>
<path d="M56.8773 14.8099H52.1347C52.101 14.4106 52.0113 14.0485 51.8656 13.7234C51.7254 13.3983 51.5292 13.1188 51.277 12.885C51.0303 12.6454 50.7304 12.4629 50.3772 12.3375C50.024 12.2063 49.6232 12.1407 49.1747 12.1407C48.3899 12.1407 47.7256 12.3346 47.1818 12.7224C46.6436 13.1103 46.2344 13.6663 45.9541 14.3907C45.6794 15.115 45.542 15.9848 45.542 17C45.542 18.0722 45.6822 18.9705 45.9625 19.6949C46.2484 20.4135 46.6604 20.9553 47.1986 21.3203C47.7368 21.6797 48.3843 21.8593 49.1411 21.8593C49.5727 21.8593 49.9595 21.8051 50.3015 21.6968C50.6435 21.5827 50.9406 21.4202 51.1929 21.2091C51.4451 20.9981 51.6497 20.7443 51.8067 20.4477C51.9693 20.1454 52.0786 19.8061 52.1347 19.4297L56.8773 19.4639C56.8213 20.2053 56.6167 20.961 56.2635 21.731C55.9103 22.4952 55.4086 23.2025 54.7583 23.8527C54.1136 24.4971 53.3147 25.0162 52.3617 25.4097C51.4087 25.8032 50.3015 26 49.0402 26C47.4593 26 46.041 25.6549 44.7852 24.9648C43.5351 24.2747 42.5456 23.2595 41.8168 21.9192C41.0937 20.5789 40.7321 18.9392 40.7321 17C40.7321 15.0494 41.1021 13.4068 41.8421 12.0722C42.5821 10.7319 43.5799 9.71958 44.8357 9.03517C46.0914 8.34506 47.4929 8 49.0402 8C50.1277 8 51.1284 8.15114 52.0422 8.45342C52.9559 8.7557 53.7576 9.19772 54.4471 9.77947C55.1367 10.3555 55.6917 11.0656 56.1121 11.9097C56.5326 12.7538 56.7876 13.7205 56.8773 14.8099Z" fill="url(#paint3_linear_6948_2465)"/>
<path d="M58.9985 25.7605V8.23954H63.6739V15.3232H63.9094L69.0893 8.23954H74.5383L68.7193 16.0418L74.6729 25.7605H69.0893L65.2212 19.1901L63.6739 21.2433V25.7605H58.9985Z" fill="url(#paint4_linear_6948_2465)"/>
<path d="M75.9258 25.7605V8.23954H83.3594C84.6375 8.23954 85.7559 8.4962 86.7145 9.00951C87.6732 9.52281 88.4188 10.2443 88.9513 11.174C89.4839 12.1036 89.7502 13.1901 89.7502 14.4335C89.7502 15.6882 89.4755 16.7747 88.9261 17.693C88.3823 18.6112 87.6171 19.3184 86.6305 19.8146C85.6494 20.3108 84.503 20.5589 83.1912 20.5589H78.7512V16.8631H82.2494C82.7988 16.8631 83.2669 16.7662 83.6537 16.5722C84.0461 16.3726 84.346 16.0903 84.5534 15.7253C84.7665 15.3603 84.873 14.9297 84.873 14.4335C84.873 13.9316 84.7665 13.5038 84.5534 13.1502C84.346 12.7909 84.0461 12.5171 83.6537 12.3289C83.2669 12.135 82.7988 12.038 82.2494 12.038H80.6012V25.7605H75.9258Z" fill="url(#paint5_linear_6948_2465)"/>
<path d="M108.149 17C108.149 18.9506 107.776 20.596 107.031 21.9363C106.285 23.2709 105.279 24.2833 104.012 24.9734C102.745 25.6578 101.332 26 99.7737 26C98.204 26 96.7857 25.6549 95.5188 24.9648C94.2574 24.269 93.2539 23.2538 92.5083 21.9192C91.7683 20.5789 91.3983 18.9392 91.3983 17C91.3983 15.0494 91.7683 13.4068 92.5083 12.0722C93.2539 10.7319 94.2574 9.71958 95.5188 9.03517C96.7857 8.34506 98.204 8 99.7737 8C101.332 8 102.745 8.34506 104.012 9.03517C105.279 9.71958 106.285 10.7319 107.031 12.0722C107.776 13.4068 108.149 15.0494 108.149 17ZM103.339 17C103.339 15.9506 103.202 15.0665 102.927 14.3479C102.658 13.6236 102.257 13.076 101.725 12.7053C101.198 12.3289 100.547 12.1407 99.7737 12.1407C99.0001 12.1407 98.347 12.3289 97.8144 12.7053C97.2874 13.076 96.8866 13.6236 96.6119 14.3479C96.3428 15.0665 96.2083 15.9506 96.2083 17C96.2083 18.0494 96.3428 18.9363 96.6119 19.6606C96.8866 20.3793 97.2874 20.9268 97.8144 21.3032C98.347 21.674 99.0001 21.8593 99.7737 21.8593C100.547 21.8593 101.198 21.674 101.725 21.3032C102.257 20.9268 102.658 20.3793 102.927 19.6606C103.202 18.9363 103.339 18.0494 103.339 17Z" fill="url(#paint6_linear_6948_2465)"/>
<path d="M109.032 12.0722V8.23954H124V12.0722H118.82V25.7605H114.212V12.0722H109.032Z" fill="url(#paint7_linear_6948_2465)"/>
</g>
<defs>
<filter id="filter0_d_6948_2465" x="0" y="0" width="132" height="34" filterUnits="userSpaceOnUse" color-interpolation-filters="sRGB">
<feFlood flood-opacity="0" result="BackgroundImageFix"/>
<feColorMatrix in="SourceAlpha" type="matrix" values="0 0 0 0 0 0 0 0 0 0 0 0 0 0 0 0 0 0 127 0" result="hardAlpha"/>
<feOffset/>
<feGaussianBlur stdDeviation="4"/>
<feComposite in2="hardAlpha" operator="out"/>
<feColorMatrix type="matrix" values="0 0 0 0 1 0 0 0 0 0.696833 0 0 0 0 0.108333 0 0 0 1 0"/>
<feBlend mode="normal" in2="BackgroundImageFix" result="effect1_dropShadow_6948_2465"/>
<feBlend mode="normal" in="SourceGraphic" in2="effect1_dropShadow_6948_2465" result="shape"/>
</filter>
<linearGradient id="paint0_linear_6948_2465" x1="12.9362" y1="35.1818" x2="81.9198" y2="34.1208" gradientUnits="userSpaceOnUse">
<stop stop-color="#FFEF60"/>
<stop offset="1" stop-color="#FEAE37"/>
</linearGradient>
<linearGradient id="paint1_linear_6948_2465" x1="98.3461" y1="31.625" x2="46.5438" y2="-26.4337" gradientUnits="userSpaceOnUse">
<stop stop-color="#FFEF61"/>
<stop offset="1" stop-color="#FEAE37"/>
</linearGradient>
<linearGradient id="paint2_linear_6948_2465" x1="98.3461" y1="31.625" x2="46.5438" y2="-26.4337" gradientUnits="userSpaceOnUse">
<stop stop-color="#FFEF61"/>
<stop offset="1" stop-color="#FEAE37"/>
</linearGradient>
<linearGradient id="paint3_linear_6948_2465" x1="98.3461" y1="31.625" x2="46.5438" y2="-26.4337" gradientUnits="userSpaceOnUse">
<stop stop-color="#FFEF61"/>
<stop offset="1" stop-color="#FEAE37"/>
</linearGradient>
<linearGradient id="paint4_linear_6948_2465" x1="98.3461" y1="31.625" x2="46.5438" y2="-26.4337" gradientUnits="userSpaceOnUse">
<stop stop-color="#FFEF61"/>
<stop offset="1" stop-color="#FEAE37"/>
</linearGradient>
<linearGradient id="paint5_linear_6948_2465" x1="98.3461" y1="31.625" x2="46.5438" y2="-26.4337" gradientUnits="userSpaceOnUse">
<stop stop-color="#FFEF61"/>
<stop offset="1" stop-color="#FEAE37"/>
</linearGradient>
<linearGradient id="paint6_linear_6948_2465" x1="98.3461" y1="31.625" x2="46.5438" y2="-26.4337" gradientUnits="userSpaceOnUse">
<stop stop-color="#FFEF61"/>
<stop offset="1" stop-color="#FEAE37"/>
</linearGradient>
<linearGradient id="paint7_linear_6948_2465" x1="98.3461" y1="31.625" x2="46.5438" y2="-26.4337" gradientUnits="userSpaceOnUse">
<stop stop-color="#FFEF61"/>
<stop offset="1" stop-color="#FEAE37"/>
</linearGradient>
</defs>
</svg>
