<svg width="142" height="47" viewBox="0 0 142 47" fill="none" xmlns="http://www.w3.org/2000/svg">
<path d="M17.09 38.27C17.27 38.0033 17.5167 37.7867 17.83 37.62C18.15 37.4533 18.5133 37.37 18.92 37.37C19.3933 37.37 19.82 37.4867 20.2 37.72C20.5867 37.9533 20.89 38.2867 21.11 38.72C21.3367 39.1467 21.45 39.6433 21.45 40.21C21.45 40.7767 21.3367 41.28 21.11 41.72C20.89 42.1533 20.5867 42.49 20.2 42.73C19.82 42.97 19.3933 43.09 18.92 43.09C18.5067 43.09 18.1433 43.01 17.83 42.85C17.5233 42.6833 17.2767 42.47 17.09 42.21V43H15.69V35.6H17.09V38.27ZM20.02 40.21C20.02 39.8767 19.95 39.59 19.81 39.35C19.6767 39.1033 19.4967 38.9167 19.27 38.79C19.05 38.6633 18.81 38.6 18.55 38.6C18.2967 38.6 18.0567 38.6667 17.83 38.8C17.61 38.9267 17.43 39.1133 17.29 39.36C17.1567 39.6067 17.09 39.8967 17.09 40.23C17.09 40.5633 17.1567 40.8533 17.29 41.1C17.43 41.3467 17.61 41.5367 17.83 41.67C18.0567 41.7967 18.2967 41.86 18.55 41.86C18.81 41.86 19.05 41.7933 19.27 41.66C19.4967 41.5267 19.6767 41.3367 19.81 41.09C19.95 40.8433 20.02 40.55 20.02 40.21ZM27.6173 40.11C27.6173 40.31 27.604 40.49 27.5773 40.65H23.5273C23.5607 41.05 23.7007 41.3633 23.9473 41.59C24.194 41.8167 24.4973 41.93 24.8573 41.93C25.3773 41.93 25.7473 41.7067 25.9673 41.26H27.4773C27.3173 41.7933 27.0107 42.2333 26.5573 42.58C26.104 42.92 25.5473 43.09 24.8873 43.09C24.354 43.09 23.874 42.9733 23.4473 42.74C23.0273 42.5 22.6973 42.1633 22.4573 41.73C22.224 41.2967 22.1073 40.7967 22.1073 40.23C22.1073 39.6567 22.224 39.1533 22.4573 38.72C22.6907 38.2867 23.0173 37.9533 23.4373 37.72C23.8573 37.4867 24.3407 37.37 24.8873 37.37C25.414 37.37 25.884 37.4833 26.2973 37.71C26.7173 37.9367 27.0407 38.26 27.2673 38.68C27.5007 39.0933 27.6173 39.57 27.6173 40.11ZM26.1673 39.71C26.1607 39.35 26.0307 39.0633 25.7773 38.85C25.524 38.63 25.214 38.52 24.8473 38.52C24.5007 38.52 24.2073 38.6267 23.9673 38.84C23.734 39.0467 23.5907 39.3367 23.5373 39.71H26.1673ZM31.1792 38.61H30.2092V43H28.7892V38.61H28.1592V37.46H28.7892V37.18C28.7892 36.5 28.9826 36 29.3692 35.68C29.7559 35.36 30.3392 35.21 31.1192 35.23V36.41C30.7792 36.4033 30.5426 36.46 30.4092 36.58C30.2759 36.7 30.2092 36.9167 30.2092 37.23V37.46H31.1792V38.61ZM34.5465 43.09C34.0132 43.09 33.5332 42.9733 33.1065 42.74C32.6798 42.5 32.3432 42.1633 32.0965 41.73C31.8565 41.2967 31.7365 40.7967 31.7365 40.23C31.7365 39.6633 31.8598 39.1633 32.1065 38.73C32.3598 38.2967 32.7032 37.9633 33.1365 37.73C33.5698 37.49 34.0532 37.37 34.5865 37.37C35.1198 37.37 35.6032 37.49 36.0365 37.73C36.4698 37.9633 36.8098 38.2967 37.0565 38.73C37.3098 39.1633 37.4365 39.6633 37.4365 40.23C37.4365 40.7967 37.3065 41.2967 37.0465 41.73C36.7932 42.1633 36.4465 42.5 36.0065 42.74C35.5732 42.9733 35.0865 43.09 34.5465 43.09ZM34.5465 41.87C34.7998 41.87 35.0365 41.81 35.2565 41.69C35.4832 41.5633 35.6632 41.3767 35.7965 41.13C35.9298 40.8833 35.9965 40.5833 35.9965 40.23C35.9965 39.7033 35.8565 39.3 35.5765 39.02C35.3032 38.7333 34.9665 38.59 34.5665 38.59C34.1665 38.59 33.8298 38.7333 33.5565 39.02C33.2898 39.3 33.1565 39.7033 33.1565 40.23C33.1565 40.7567 33.2865 41.1633 33.5465 41.45C33.8132 41.73 34.1465 41.87 34.5465 41.87ZM39.8634 38.32C40.0434 38.0267 40.2768 37.7967 40.5634 37.63C40.8568 37.4633 41.1901 37.38 41.5634 37.38V38.85H41.1934C40.7534 38.85 40.4201 38.9533 40.1934 39.16C39.9734 39.3667 39.8634 39.7267 39.8634 40.24V43H38.4634V37.46H39.8634V38.32ZM47.6564 40.11C47.6564 40.31 47.6431 40.49 47.6164 40.65H43.5664C43.5997 41.05 43.7397 41.3633 43.9864 41.59C44.2331 41.8167 44.5364 41.93 44.8964 41.93C45.4164 41.93 45.7864 41.7067 46.0064 41.26H47.5164C47.3564 41.7933 47.0497 42.2333 46.5964 42.58C46.1431 42.92 45.5864 43.09 44.9264 43.09C44.3931 43.09 43.9131 42.9733 43.4864 42.74C43.0664 42.5 42.7364 42.1633 42.4964 41.73C42.2631 41.2967 42.1464 40.7967 42.1464 40.23C42.1464 39.6567 42.2631 39.1533 42.4964 38.72C42.7297 38.2867 43.0564 37.9533 43.4764 37.72C43.8964 37.4867 44.3797 37.37 44.9264 37.37C45.4531 37.37 45.9231 37.4833 46.3364 37.71C46.7564 37.9367 47.0797 38.26 47.3064 38.68C47.5397 39.0933 47.6564 39.57 47.6564 40.11ZM46.2064 39.71C46.1997 39.35 46.0697 39.0633 45.8164 38.85C45.5631 38.63 45.2531 38.52 44.8864 38.52C44.5397 38.52 44.2464 38.6267 44.0064 38.84C43.7731 39.0467 43.6297 39.3367 43.5764 39.71H46.2064ZM50.8411 41.58V40.48L54.1111 35.8H55.7411V40.36H56.6211V41.58H55.7411V43H54.3411V41.58H50.8411ZM54.4311 37.3L52.3811 40.36H54.4311V37.3ZM57.9524 41.42C58.5924 40.8867 59.1024 40.4433 59.4824 40.09C59.8624 39.73 60.1791 39.3567 60.4324 38.97C60.6858 38.5833 60.8124 38.2033 60.8124 37.83C60.8124 37.49 60.7324 37.2233 60.5724 37.03C60.4124 36.8367 60.1658 36.74 59.8324 36.74C59.4991 36.74 59.2424 36.8533 59.0624 37.08C58.8824 37.3 58.7891 37.6033 58.7824 37.99H57.4224C57.4491 37.19 57.6858 36.5833 58.1324 36.17C58.5858 35.7567 59.1591 35.55 59.8524 35.55C60.6124 35.55 61.1958 35.7533 61.6024 36.16C62.0091 36.56 62.2124 37.09 62.2124 37.75C62.2124 38.27 62.0724 38.7667 61.7924 39.24C61.5124 39.7133 61.1924 40.1267 60.8324 40.48C60.4724 40.8267 60.0024 41.2467 59.4224 41.74H62.3724V42.9H57.4324V41.86L57.9524 41.42ZM68.2574 43.09C67.7241 43.09 67.2441 42.9733 66.8174 42.74C66.3908 42.5 66.0541 42.1633 65.8074 41.73C65.5674 41.2967 65.4474 40.7967 65.4474 40.23C65.4474 39.6633 65.5708 39.1633 65.8174 38.73C66.0708 38.2967 66.4141 37.9633 66.8474 37.73C67.2808 37.49 67.7641 37.37 68.2974 37.37C68.8308 37.37 69.3141 37.49 69.7474 37.73C70.1808 37.9633 70.5208 38.2967 70.7674 38.73C71.0208 39.1633 71.1474 39.6633 71.1474 40.23C71.1474 40.7967 71.0174 41.2967 70.7574 41.73C70.5041 42.1633 70.1574 42.5 69.7174 42.74C69.2841 42.9733 68.7974 43.09 68.2574 43.09ZM68.2574 41.87C68.5108 41.87 68.7474 41.81 68.9674 41.69C69.1941 41.5633 69.3741 41.3767 69.5074 41.13C69.6408 40.8833 69.7074 40.5833 69.7074 40.23C69.7074 39.7033 69.5674 39.3 69.2874 39.02C69.0141 38.7333 68.6774 38.59 68.2774 38.59C67.8774 38.59 67.5408 38.7333 67.2674 39.02C67.0008 39.3 66.8674 39.7033 66.8674 40.23C66.8674 40.7567 66.9974 41.1633 67.2574 41.45C67.5241 41.73 67.8574 41.87 68.2574 41.87ZM77.4044 37.46V43H75.9944V42.3C75.8144 42.54 75.5777 42.73 75.2844 42.87C74.9977 43.0033 74.6844 43.07 74.3444 43.07C73.911 43.07 73.5277 42.98 73.1944 42.8C72.861 42.6133 72.5977 42.3433 72.4044 41.99C72.2177 41.63 72.1244 41.2033 72.1244 40.71V37.46H73.5244V40.51C73.5244 40.95 73.6344 41.29 73.8544 41.53C74.0744 41.7633 74.3744 41.88 74.7544 41.88C75.141 41.88 75.4444 41.7633 75.6644 41.53C75.8844 41.29 75.9944 40.95 75.9944 40.51V37.46H77.4044ZM80.4157 38.61V41.29C80.4157 41.4767 80.459 41.6133 80.5457 41.7C80.639 41.78 80.7924 41.82 81.0057 41.82H81.6557V43H80.7757C79.5957 43 79.0057 42.4267 79.0057 41.28V38.61H78.3457V37.46H79.0057V36.09H80.4157V37.46H81.6557V38.61H80.4157Z" fill="url(#paint0_linear_6948_2195)"/>
<g filter="url(#filter0_d_6948_2195)">
<path d="M20.9382 13.2395H25.5463V25.251C25.5407 26.3916 25.2576 27.3954 24.697 28.2624C24.142 29.1236 23.374 29.7966 22.3929 30.2814C21.4175 30.7605 20.2935 31 19.0209 31C17.9165 31 16.9075 30.8061 15.9937 30.4183C15.0799 30.0247 14.3511 29.4087 13.8073 28.5703C13.2636 27.7262 12.9945 26.6312 13.0001 25.2852H17.6755C17.6923 25.7243 17.7652 26.0951 17.8941 26.3973C18.0287 26.6996 18.2137 26.9278 18.4491 27.0817C18.6902 27.23 18.9817 27.3042 19.3236 27.3042C19.6712 27.3042 19.9627 27.2272 20.1982 27.0732C20.4392 26.9192 20.6214 26.6911 20.7448 26.3888C20.8681 26.0808 20.9326 25.7015 20.9382 25.251V13.2395Z" fill="url(#paint1_linear_6948_2195)"/>
<path d="M32.2357 30.7605H27.1903L32.8747 13.2395H39.2656L44.95 30.7605H39.9046L36.1374 18.0646H36.0029L32.2357 30.7605ZM31.2938 23.8479H40.7792V27.4068H31.2938V23.8479Z" fill="url(#paint2_linear_6948_2195)"/>
<path d="M61.8773 19.8099H57.1347C57.101 19.4106 57.0113 19.0485 56.8656 18.7234C56.7254 18.3983 56.5292 18.1188 56.277 17.885C56.0303 17.6454 55.7304 17.4629 55.3772 17.3375C55.024 17.2063 54.6232 17.1407 54.1747 17.1407C53.3899 17.1407 52.7256 17.3346 52.1818 17.7224C51.6436 18.1103 51.2344 18.6663 50.9541 19.3907C50.6794 20.115 50.542 20.9848 50.542 22C50.542 23.0722 50.6822 23.9705 50.9625 24.6949C51.2484 25.4135 51.6604 25.9553 52.1986 26.3203C52.7368 26.6797 53.3843 26.8593 54.1411 26.8593C54.5727 26.8593 54.9595 26.8051 55.3015 26.6968C55.6435 26.5827 55.9406 26.4202 56.1929 26.2091C56.4451 25.9981 56.6497 25.7443 56.8067 25.4477C56.9693 25.1454 57.0786 24.8061 57.1347 24.4297L61.8773 24.4639C61.8213 25.2053 61.6167 25.961 61.2635 26.731C60.9103 27.4952 60.4086 28.2025 59.7583 28.8527C59.1136 29.4971 58.3147 30.0162 57.3617 30.4097C56.4087 30.8032 55.3015 31 54.0402 31C52.4593 31 51.041 30.6549 49.7852 29.9648C48.5351 29.2747 47.5456 28.2595 46.8168 26.9192C46.0937 25.5789 45.7321 23.9392 45.7321 22C45.7321 20.0494 46.1021 18.4068 46.8421 17.0722C47.5821 15.7319 48.5799 14.7196 49.8357 14.0352C51.0914 13.3451 52.4929 13 54.0402 13C55.1277 13 56.1284 13.1511 57.0422 13.4534C57.9559 13.7557 58.7576 14.1977 59.4471 14.7795C60.1367 15.3555 60.6917 16.0656 61.1121 16.9097C61.5326 17.7538 61.7876 18.7205 61.8773 19.8099Z" fill="url(#paint3_linear_6948_2195)"/>
<path d="M63.9985 30.7605V13.2395H68.6739V20.3232H68.9094L74.0893 13.2395H79.5383L73.7193 21.0418L79.6729 30.7605H74.0893L70.2212 24.1901L68.6739 26.2433V30.7605H63.9985Z" fill="url(#paint4_linear_6948_2195)"/>
<path d="M80.9258 30.7605V13.2395H88.3594C89.6375 13.2395 90.7559 13.4962 91.7145 14.0095C92.6732 14.5228 93.4188 15.2443 93.9513 16.174C94.4839 17.1036 94.7502 18.1901 94.7502 19.4335C94.7502 20.6882 94.4755 21.7747 93.9261 22.693C93.3823 23.6112 92.6171 24.3184 91.6305 24.8146C90.6494 25.3108 89.503 25.5589 88.1912 25.5589H83.7512V21.8631H87.2494C87.7988 21.8631 88.2669 21.7662 88.6537 21.5722C89.0461 21.3726 89.346 21.0903 89.5534 20.7253C89.7665 20.3603 89.873 19.9297 89.873 19.4335C89.873 18.9316 89.7665 18.5038 89.5534 18.1502C89.346 17.7909 89.0461 17.5171 88.6537 17.3289C88.2669 17.135 87.7988 17.038 87.2494 17.038H85.6012V30.7605H80.9258Z" fill="url(#paint5_linear_6948_2195)"/>
<path d="M113.149 22C113.149 23.9506 112.776 25.596 112.031 26.9363C111.285 28.2709 110.279 29.2833 109.012 29.9734C107.745 30.6578 106.332 31 104.774 31C103.204 31 101.786 30.6549 100.519 29.9648C99.2574 29.269 98.2539 28.2538 97.5083 26.9192C96.7683 25.5789 96.3983 23.9392 96.3983 22C96.3983 20.0494 96.7683 18.4068 97.5083 17.0722C98.2539 15.7319 99.2574 14.7196 100.519 14.0352C101.786 13.3451 103.204 13 104.774 13C106.332 13 107.745 13.3451 109.012 14.0352C110.279 14.7196 111.285 15.7319 112.031 17.0722C112.776 18.4068 113.149 20.0494 113.149 22ZM108.339 22C108.339 20.9506 108.202 20.0665 107.927 19.3479C107.658 18.6236 107.257 18.076 106.725 17.7053C106.198 17.3289 105.547 17.1407 104.774 17.1407C104 17.1407 103.347 17.3289 102.814 17.7053C102.287 18.076 101.887 18.6236 101.612 19.3479C101.343 20.0665 101.208 20.9506 101.208 22C101.208 23.0494 101.343 23.9363 101.612 24.6606C101.887 25.3793 102.287 25.9268 102.814 26.3032C103.347 26.674 104 26.8593 104.774 26.8593C105.547 26.8593 106.198 26.674 106.725 26.3032C107.257 25.9268 107.658 25.3793 107.927 24.6606C108.202 23.9363 108.339 23.0494 108.339 22Z" fill="url(#paint6_linear_6948_2195)"/>
<path d="M114.032 17.0722V13.2395H129V17.0722H123.82V30.7605H119.212V17.0722H114.032Z" fill="url(#paint7_linear_6948_2195)"/>
</g>
<defs>
<filter id="filter0_d_6948_2195" x="0" y="0" width="142" height="44" filterUnits="userSpaceOnUse" color-interpolation-filters="sRGB">
<feFlood flood-opacity="0" result="BackgroundImageFix"/>
<feColorMatrix in="SourceAlpha" type="matrix" values="0 0 0 0 0 0 0 0 0 0 0 0 0 0 0 0 0 0 127 0" result="hardAlpha"/>
<feOffset/>
<feGaussianBlur stdDeviation="6.5"/>
<feComposite in2="hardAlpha" operator="out"/>
<feColorMatrix type="matrix" values="0 0 0 0 0.996078 0 0 0 0 0.443137 0 0 0 0 0.168627 0 0 0 0.56 0"/>
<feBlend mode="normal" in2="BackgroundImageFix" result="effect1_dropShadow_6948_2195"/>
<feBlend mode="normal" in="SourceGraphic" in2="effect1_dropShadow_6948_2195" result="shape"/>
</filter>
<linearGradient id="paint0_linear_6948_2195" x1="20" y1="32" x2="45.0408" y2="61.4061" gradientUnits="userSpaceOnUse">
<stop stop-color="#FF3E13"/>
<stop offset="1" stop-color="#FE8B37"/>
</linearGradient>
<linearGradient id="paint1_linear_6948_2195" x1="47" y1="10" x2="59.2976" y2="43.1214" gradientUnits="userSpaceOnUse">
<stop stop-color="#FF3E13"/>
<stop offset="1" stop-color="#FE8B37"/>
</linearGradient>
<linearGradient id="paint2_linear_6948_2195" x1="47" y1="10" x2="59.2976" y2="43.1214" gradientUnits="userSpaceOnUse">
<stop stop-color="#FF3E13"/>
<stop offset="1" stop-color="#FE8B37"/>
</linearGradient>
<linearGradient id="paint3_linear_6948_2195" x1="47" y1="10" x2="59.2976" y2="43.1214" gradientUnits="userSpaceOnUse">
<stop stop-color="#FF3E13"/>
<stop offset="1" stop-color="#FE8B37"/>
</linearGradient>
<linearGradient id="paint4_linear_6948_2195" x1="47" y1="10" x2="59.2976" y2="43.1214" gradientUnits="userSpaceOnUse">
<stop stop-color="#FF3E13"/>
<stop offset="1" stop-color="#FE8B37"/>
</linearGradient>
<linearGradient id="paint5_linear_6948_2195" x1="47" y1="10" x2="59.2976" y2="43.1214" gradientUnits="userSpaceOnUse">
<stop stop-color="#FF3E13"/>
<stop offset="1" stop-color="#FE8B37"/>
</linearGradient>
<linearGradient id="paint6_linear_6948_2195" x1="47" y1="10" x2="59.2976" y2="43.1214" gradientUnits="userSpaceOnUse">
<stop stop-color="#FF3E13"/>
<stop offset="1" stop-color="#FE8B37"/>
</linearGradient>
<linearGradient id="paint7_linear_6948_2195" x1="47" y1="10" x2="59.2976" y2="43.1214" gradientUnits="userSpaceOnUse">
<stop stop-color="#FF3E13"/>
<stop offset="1" stop-color="#FE8B37"/>
</linearGradient>
</defs>
</svg>
