<svg width="25" height="28" viewBox="0 0 25 28" fill="none" xmlns="http://www.w3.org/2000/svg">
<path fill-rule="evenodd" clip-rule="evenodd" d="M24.9982 26.9617C24.9512 25.4109 23.0104 22.8754 21.3273 22.6532C19.6647 22.4384 18.4395 21.5425 17.4604 20.6951C17.221 20.4878 17.0051 20.3877 16.8009 20.3877C16.5584 20.3877 16.344 20.5266 16.1454 20.8135C15.6165 21.5772 14.9157 22.1893 14.2378 22.782C13.885 23.0903 13.52 23.4088 13.1836 23.7452C13.0565 23.8697 12.9518 23.9275 12.854 23.9275C12.7609 23.9275 12.6659 23.8733 12.5641 23.7616C12.2139 23.3756 11.7963 23.0566 11.3923 22.7482C11.1503 22.5635 10.9083 22.3787 10.6783 22.1786C9.53382 21.1852 9.05882 20.0657 9.22626 18.7553C9.23137 18.7134 9.23137 18.667 9.23137 18.62C9.23109 18.5286 9.23109 18.4336 9.27526 18.3897C9.29848 18.3662 9.33548 18.355 9.38859 18.355C9.41104 18.355 9.43604 18.357 9.46387 18.3611C9.55215 18.3754 9.63871 18.3851 9.72015 18.3851C10.0027 18.3851 10.1806 18.2621 10.2638 18.009C10.4034 17.5709 10.0943 17.3371 9.82148 17.1314L9.76815 17.0911C8.65376 16.2508 7.79487 15.1441 7.14248 13.7083C6.71009 12.7571 6.66598 11.8037 7.01159 10.8744C7.56215 9.36851 8.23904 8.36412 9.23982 7.59201C9.40393 7.46384 9.50298 7.38656 9.59259 7.38656C9.67298 7.38656 9.76665 7.44884 9.92698 7.60912C12.1182 9.78356 14.1575 11.1631 16.345 11.9506C16.8605 12.1369 17.0209 12.4143 16.9162 12.9403L16.8488 13.3C16.6007 14.6337 16.3659 15.8936 15.2842 16.838C15.1336 16.9687 15.0463 17.132 15.0387 17.2994C15.0315 17.4495 15.0912 17.5945 15.2102 17.7175C15.3235 17.8349 15.4547 17.8946 15.6002 17.8946C15.7554 17.8946 15.9218 17.8272 16.0969 17.6945C16.7059 17.233 17.1505 16.6352 17.4185 15.918C17.8055 14.8893 18.0352 13.9202 18.121 12.9546C18.1526 12.573 18.195 12.3311 18.5202 12.1853C18.8005 12.0615 18.9173 11.8103 18.8326 11.513C18.7612 11.2685 18.5677 11.1275 18.2884 11.1161C16.8968 11.054 15.7227 10.468 14.3873 9.60756C12.0314 8.09067 10.2767 6.60801 9.36976 4.30134C9.22376 3.92234 9.02826 3.73828 8.77176 3.73828C8.68776 3.73828 8.59693 3.75895 8.5017 3.79978C8.33298 3.87273 8.21943 3.98228 8.16454 4.12517C8.09637 4.30306 8.12193 4.53178 8.23859 4.78623C8.41087 5.16223 8.6087 5.53128 8.81826 5.92228C8.91654 6.10556 9.01787 6.29445 9.12121 6.49278C8.80371 6.57423 8.47493 6.68551 8.18782 6.9114C6.71709 8.05795 5.88042 9.63684 5.63004 11.739C5.40465 13.6138 6.35359 15.1322 7.41287 16.4936C8.06404 17.3318 8.01498 18.2823 7.96754 19.2012C7.94276 19.678 7.91748 20.1716 7.98898 20.649C7.99332 20.6725 7.93226 20.7347 7.89554 20.772C7.86415 20.8041 7.83248 20.8368 7.80898 20.8685C7.1617 21.7495 6.38348 22.5765 5.08348 22.6623C4.75348 22.6817 4.42598 22.7797 4.10926 22.8746C3.87876 22.9441 3.64037 23.0155 3.40503 23.0554C1.90348 23.3014 0.900587 24.1891 0.339309 25.7691C0.307142 25.8595 0.264531 25.957 0.220364 26.057C0.081253 26.374 -0.0761916 26.7329 0.0409751 27.0137C0.100975 27.1576 0.229086 27.2689 0.422031 27.3425C0.516976 27.3792 0.605809 27.397 0.68592 27.397C1.09636 27.397 1.22575 26.9514 1.34009 26.5583C1.37225 26.448 1.40314 26.3408 1.43914 26.25C1.88375 25.1207 2.61353 24.4648 3.66992 24.2447C4.22409 24.1294 4.77459 23.9946 5.32492 23.8609C5.65242 23.7812 5.97987 23.7016 6.30809 23.6251C6.42448 23.5985 6.52915 23.5852 6.62793 23.5852C6.91276 23.5852 7.14632 23.6965 7.36326 23.9354C7.90565 24.5367 8.47354 25.1289 9.02254 25.7027C9.31632 26.009 9.61037 26.3159 9.90215 26.6257C10.2723 27.0193 10.5515 27.1872 10.8361 27.1872C11.1092 27.1872 11.3966 27.0264 11.7677 26.6645L11.8731 26.5619C12.2882 26.155 12.5168 25.9309 12.6983 25.9309C12.8928 25.9309 13.0876 26.1938 13.4755 26.7186L13.546 26.8136C13.6379 26.9422 13.7466 27.0872 13.8829 27.1939C14.0258 27.3026 14.1943 27.3654 14.3454 27.3654C14.4985 27.3654 14.622 27.3036 14.7048 27.1862C15.0223 26.7206 15.4562 26.3465 15.8769 25.9845C16.3996 25.5343 16.9407 25.0687 17.2562 24.4245C17.612 23.6961 18.0862 23.3565 18.7473 23.3565C18.9796 23.3565 19.2338 23.3984 19.5238 23.4831C19.6851 23.5316 19.8546 23.5602 20.0138 23.5837C22.0604 23.8537 23.2871 25.0258 23.7649 27.1679C23.8374 27.5006 23.9721 27.8815 24.377 27.8815C24.4173 27.8815 24.4602 27.878 24.5061 27.8697C25.0186 27.7765 25.0053 27.2665 24.9982 26.9617ZM17.2286 22.2326L17.1827 22.3296C17.1541 22.3914 17.1255 22.4537 17.0883 22.5129C16.4042 23.6564 15.5778 24.6314 14.6334 25.4109C14.5043 25.5166 14.4027 25.5661 14.3128 25.5661C14.2183 25.5661 14.1254 25.511 14.0198 25.3925C13.7987 25.1424 13.6732 24.9586 13.9371 24.6992C14.2975 24.3496 14.6864 24.0167 15.0632 23.6946C15.6432 23.1985 16.2425 22.686 16.757 22.0968C16.8193 22.0259 16.8826 21.9896 16.9454 21.9896C17.0515 21.9896 17.1567 22.0969 17.2286 22.2326ZM10.5375 25.514C10.5066 25.4752 10.4762 25.4374 10.4459 25.4053C10.1335 25.0811 9.82615 24.7498 9.51882 24.4185C9.09998 23.9672 8.68087 23.5154 8.24748 23.079C8.09048 22.9223 8.01493 22.7789 8.01698 22.641C8.02004 22.4301 8.20382 22.2561 8.38171 22.0887L8.47409 21.9999C8.56854 21.9054 8.65148 21.8575 8.72065 21.8575C8.84421 21.8575 8.93226 22.0192 9.01009 22.1622C9.04171 22.2204 9.07237 22.276 9.10376 22.3199C9.48382 22.8462 9.99554 23.2316 10.4903 23.6043C10.8139 23.8478 11.1485 24.1 11.4398 24.3874L11.5268 24.4675C11.6557 24.5844 11.7777 24.6947 11.8088 24.8483C11.6238 25.176 11.3496 25.4532 10.9698 25.6957C10.9218 25.7274 10.8777 25.7427 10.8355 25.7427C10.722 25.7427 10.6281 25.6264 10.5375 25.514Z" fill="#7F5AEF"/>
<path fill-rule="evenodd" clip-rule="evenodd" d="M3.82287 15.2753C3.92804 15.2885 4.02504 15.2951 4.11382 15.2951C4.69937 15.2951 4.95637 14.9955 4.97326 14.2933C4.99754 13.167 4.99598 12.061 4.96837 11.0063C4.91276 9.12519 5.21315 7.32114 5.88676 5.4913C6.3781 4.14747 7.30871 3.07391 8.65232 2.30052C9.73043 1.68485 10.8969 1.37269 12.1195 1.37269C15.1163 1.37269 17.8085 3.24819 18.6672 5.93386C19.1792 7.52325 19.3839 8.95286 19.293 10.3107C19.3482 11.4994 19.2696 12.5523 19.0532 13.5291C18.827 14.5159 18.5753 15.3921 18.2844 16.2079C17.7626 17.6709 16.7825 18.6173 15.371 19.0201L15.2945 19.0421C15.1898 19.0727 15.0816 19.1038 14.9856 19.1038C14.8774 19.1038 14.8018 19.0625 14.7487 18.9726C14.3113 18.2422 13.6573 18.1436 13.0749 18.1436C12.9013 18.1436 12.7247 18.1528 12.5478 18.162L12.4422 18.1676C11.5485 18.2161 10.977 18.7766 10.9138 19.6669C10.8446 20.5623 11.4199 21.2994 12.2818 21.4194C12.4903 21.4485 12.679 21.4628 12.8582 21.4628C13.5598 21.4628 14.1035 21.2361 14.5205 20.7695C14.8161 20.4454 15.2179 20.3111 15.5727 20.2223C17.5911 19.7026 18.9066 18.3911 19.5932 16.2129C19.7504 15.7178 19.9689 15.5431 20.4584 15.5218C21.6362 15.4635 22.3641 14.8714 22.6239 13.7606C22.9022 12.5689 22.8205 11.3631 22.381 10.1768C22.1579 9.57564 21.8103 9.24691 21.3758 9.22597C20.6009 9.17875 20.5264 8.68742 20.4396 8.11847L20.4273 8.03653C20.1588 6.26002 19.7004 4.90369 18.9826 3.76786C17.8815 2.0103 15.2628 0.118408 12.1159 0.118408C11.3325 0.118408 10.563 0.241686 9.82888 0.484964C7.45154 1.27569 5.95504 2.46763 5.11943 4.23647C4.44098 5.67275 4.02059 7.00558 3.83404 8.31114C3.76771 8.77186 3.60048 8.94208 3.17221 8.98497C2.40954 9.05719 1.91793 9.54953 1.78776 10.3714C1.6862 11.0484 1.58026 11.8495 1.56493 12.6609C1.53181 14.4509 2.05943 15.0614 3.82287 15.2753ZM3.36059 10.2606L3.39021 10.3085C3.61632 10.3271 3.67148 10.4864 3.68704 10.7363L3.71182 11.247C3.74704 11.9758 3.78226 12.7065 3.80526 13.4334L3.80909 13.5243C3.82209 13.7798 3.81215 13.9373 3.56737 13.9666C3.53521 13.9708 3.50376 13.9728 3.47321 13.9728C3.21743 13.9728 3.02043 13.8263 2.91882 13.561C2.81343 13.2731 2.82159 12.9824 2.83054 12.6743C2.83437 12.5419 2.83793 12.4091 2.83232 12.2779C2.81698 11.6781 2.87215 11.1513 3.00076 10.6668C3.06659 10.4182 3.17665 10.3074 3.35732 10.3074V10.261C3.35859 10.2611 3.35932 10.2606 3.36059 10.2606ZM20.9072 10.4663C21.0792 10.4663 21.2084 10.5768 21.291 10.7952C21.4891 11.2976 21.5953 11.8548 21.5759 12.2881C21.5662 13.2303 21.4983 13.9233 20.705 14.2629C20.5702 14.3196 20.4681 14.3469 20.3916 14.3469C20.3344 14.3469 20.2925 14.3314 20.2639 14.299C20.2093 14.2364 20.1939 14.1063 20.219 13.9118C20.2598 13.6034 20.3134 13.2966 20.3665 12.9895C20.4834 12.3131 20.6049 11.6138 20.5886 10.9075C20.5834 10.6635 20.6273 10.4955 20.8581 10.469C20.8756 10.4671 20.8914 10.4663 20.9072 10.4663Z" fill="#7F5AEF"/>
</svg>
