<svg width="20" height="22" viewBox="0 0 20 22" fill="none" xmlns="http://www.w3.org/2000/svg">
<path fill-rule="evenodd" clip-rule="evenodd" d="M19.9047 21.2711C19.8675 20.0422 18.3295 18.033 16.9959 17.857C15.6783 17.6867 14.7075 16.9768 13.9317 16.3053C13.7419 16.141 13.5709 16.0617 13.4091 16.0617C13.2169 16.0617 13.047 16.1718 12.8896 16.3991C12.4705 17.0043 11.9151 17.4893 11.378 17.959C11.0984 18.2033 10.8092 18.4557 10.5426 18.7223C10.4419 18.8209 10.359 18.8667 10.2815 18.8667C10.2077 18.8667 10.1324 18.8238 10.0517 18.7352C9.7742 18.4294 9.44332 18.1766 9.12314 17.9322C8.93142 17.7858 8.73965 17.6394 8.5574 17.4808C7.65047 16.6937 7.27407 15.8065 7.40676 14.7682C7.41081 14.735 7.41081 14.6982 7.41081 14.6609C7.41059 14.5885 7.41059 14.5133 7.44559 14.4785C7.46399 14.4599 7.49331 14.451 7.5354 14.451C7.55318 14.451 7.57299 14.4526 7.59505 14.4558C7.665 14.4671 7.73359 14.4748 7.79813 14.4748C8.02203 14.4748 8.16299 14.3773 8.22894 14.1768C8.33957 13.8296 8.09462 13.6444 7.87843 13.4814L7.83616 13.4494C6.9531 12.7836 6.2725 11.9066 5.75554 10.7689C5.4129 10.0151 5.37795 9.25962 5.65182 8.5232C6.08809 7.3299 6.62447 6.53401 7.4175 5.92217C7.54755 5.82061 7.62604 5.75937 7.69705 5.75937C7.76075 5.75937 7.83497 5.80872 7.96203 5.93573C9.69839 7.6588 11.3144 8.75199 13.0478 9.37597C13.4563 9.52363 13.5834 9.74348 13.5004 10.1603L13.447 10.4453C13.2504 11.5021 13.0644 12.5005 12.2072 13.2488C12.0878 13.3524 12.0187 13.4818 12.0126 13.6145C12.0069 13.7334 12.0543 13.8483 12.1485 13.9458C12.2383 14.0388 12.3423 14.0862 12.4576 14.0862C12.5806 14.0862 12.7124 14.0328 12.8512 13.9275C13.3338 13.5619 13.6861 13.0882 13.8985 12.5198C14.2051 11.7047 14.3871 10.9367 14.4551 10.1716C14.4802 9.86921 14.5137 9.67749 14.7715 9.56197C14.9936 9.46384 15.0861 9.26486 15.019 9.0292C14.9624 8.83545 14.8091 8.72377 14.5878 8.7147C13.4851 8.66552 12.5547 8.20117 11.4965 7.51933C9.62963 6.31732 8.23911 5.14243 7.52047 3.31458C7.40478 3.01426 7.24986 2.86841 7.04661 2.86841C6.98004 2.86841 6.90806 2.88478 6.83261 2.91714C6.69891 2.97494 6.60893 3.06176 6.56543 3.17499C6.51141 3.31595 6.53167 3.49719 6.62411 3.69882C6.76063 3.99677 6.9174 4.28922 7.08345 4.59905C7.16133 4.74428 7.24163 4.89396 7.32351 5.05113C7.07192 5.11566 6.81139 5.20384 6.58388 5.38284C5.41845 6.29139 4.75546 7.54253 4.55705 9.20833C4.37844 10.6939 5.1304 11.8971 5.9698 12.976C6.48579 13.6402 6.44692 14.3934 6.40933 15.1215C6.38969 15.4993 6.36966 15.8905 6.42632 16.2687C6.42975 16.2874 6.38137 16.3367 6.35227 16.3663C6.3274 16.3917 6.3023 16.4176 6.28368 16.4427C5.77077 17.1408 5.15409 17.7962 4.12394 17.8641C3.86245 17.8795 3.60293 17.9572 3.35195 18.0324C3.1693 18.0874 2.9804 18.144 2.79391 18.1756C1.60405 18.3706 0.809345 19.074 0.364578 20.326C0.339088 20.3976 0.305322 20.4749 0.270324 20.5542C0.160089 20.8054 0.0353275 21.0898 0.128173 21.3123C0.175718 21.4263 0.277235 21.5145 0.430128 21.5728C0.505364 21.6019 0.575757 21.616 0.639239 21.616C0.964483 21.616 1.06701 21.2629 1.15761 20.9514C1.1831 20.864 1.20758 20.7791 1.23611 20.7071C1.58842 19.8123 2.16671 19.2925 3.00382 19.1181C3.44295 19.0267 3.87918 18.9199 4.31527 18.8139C4.57479 18.7508 4.83426 18.6877 5.09435 18.6271C5.18658 18.606 5.26952 18.5955 5.34779 18.5955C5.5735 18.5955 5.75857 18.6837 5.93048 18.873C6.36028 19.3495 6.81029 19.8187 7.24533 20.2734C7.47812 20.5161 7.71114 20.7593 7.94235 21.0048C8.23563 21.3167 8.45689 21.4498 8.68242 21.4498C8.89884 21.4498 9.12657 21.3223 9.42065 21.0355L9.50416 20.9542C9.83306 20.6318 10.0143 20.4543 10.1581 20.4543C10.3122 20.4543 10.4666 20.6626 10.774 21.0785L10.8298 21.1537C10.9026 21.2556 10.9888 21.3705 11.0967 21.4551C11.21 21.5412 11.3435 21.591 11.4632 21.591C11.5846 21.591 11.6825 21.542 11.748 21.449C11.9997 21.08 12.3435 20.7835 12.6768 20.4967C13.091 20.14 13.5198 19.7711 13.7698 19.2605C14.0518 18.6833 14.4275 18.4143 14.9514 18.4143C15.1355 18.4143 15.3369 18.4475 15.5667 18.5146C15.6945 18.553 15.8289 18.5756 15.955 18.5943C17.5768 18.8083 18.5488 19.737 18.9274 21.4344C18.9849 21.6981 19.0916 22 19.4125 22C19.4444 22 19.4784 21.9971 19.5148 21.9906C19.9209 21.9167 19.9104 21.5126 19.9047 21.2711ZM13.748 17.5237L13.7116 17.6005C13.6889 17.6495 13.6663 17.6988 13.6368 17.7458C13.0947 18.6519 12.4398 19.4245 11.6915 20.0422C11.5891 20.1259 11.5086 20.1652 11.4374 20.1652C11.3626 20.1652 11.289 20.1215 11.2052 20.0276C11.0301 19.8294 10.9306 19.6838 11.1397 19.4783C11.4253 19.2012 11.7335 18.9374 12.0321 18.6822C12.4916 18.289 12.9665 17.8829 13.3742 17.416C13.4236 17.3598 13.4738 17.3311 13.5235 17.3311C13.6077 17.3311 13.691 17.4161 13.748 17.5237ZM8.4458 20.1239C8.42132 20.0931 8.39724 20.0632 8.3732 20.0377C8.12566 19.7809 7.88212 19.5183 7.63859 19.2558C7.30669 18.8982 6.97458 18.5402 6.63116 18.1944C6.50675 18.0702 6.44688 17.9565 6.44851 17.8472C6.45093 17.6802 6.59656 17.5422 6.73752 17.4096L6.81073 17.3392C6.88557 17.2644 6.9513 17.2264 7.0061 17.2264C7.10401 17.2264 7.17379 17.3546 7.23547 17.4678C7.26051 17.514 7.28482 17.558 7.30969 17.5928C7.61085 18.0099 8.01635 18.3153 8.40838 18.6106C8.66481 18.8036 8.93001 19.0034 9.16078 19.2312L9.22972 19.2946C9.33185 19.3873 9.42857 19.4746 9.45323 19.5964C9.30658 19.8561 9.08933 20.0757 8.78839 20.2679C8.75035 20.293 8.71535 20.3051 8.68198 20.3051C8.59204 20.3051 8.5176 20.2129 8.4458 20.1239Z" fill="white"/>
<path fill-rule="evenodd" clip-rule="evenodd" d="M3.12437 12.0106C3.20771 12.0211 3.28457 12.0263 3.35492 12.0263C3.81893 12.0263 4.02258 11.7889 4.03596 11.2325C4.0552 10.3399 4.05397 9.46351 4.03209 8.62777C3.98802 7.13714 4.22605 5.70757 4.75983 4.25758C5.14918 3.1927 5.88661 2.34199 6.95131 1.72915C7.80563 1.24128 8.72994 0.993913 9.69876 0.993913C12.0735 0.993913 14.2069 2.4801 14.8873 4.60827C15.293 5.86773 15.4552 7.00058 15.3832 8.0766C15.4269 9.01852 15.3646 9.8528 15.1931 10.6269C15.014 11.4088 14.8145 12.1031 14.5839 12.7496C14.1705 13.9089 13.3939 14.6589 12.2754 14.978L12.2147 14.9955C12.1318 15.0197 12.046 15.0444 11.9699 15.0444C11.8842 15.0444 11.8243 15.0116 11.7822 14.9404C11.4356 14.3616 10.9174 14.2835 10.4558 14.2835C10.3183 14.2835 10.1783 14.2908 10.0382 14.2981L9.95445 14.3025C9.24634 14.341 8.79347 14.7851 8.74332 15.4906C8.68852 16.2001 9.14438 16.7842 9.8274 16.8793C9.99262 16.9023 10.1421 16.9137 10.2841 16.9137C10.8401 16.9137 11.2709 16.734 11.6014 16.3643C11.8356 16.1075 12.154 16.001 12.4351 15.9307C14.0346 15.5189 15.077 14.4796 15.6211 12.7536C15.7457 12.3612 15.9188 12.2228 16.3067 12.2059C17.2399 12.1598 17.8168 11.6905 18.0227 10.8103C18.2431 9.86597 18.1784 8.91049 17.8302 7.97041C17.6534 7.49408 17.3779 7.2336 17.0337 7.217C16.4196 7.17958 16.3605 6.79024 16.2917 6.33939L16.282 6.27446C16.0692 4.86673 15.706 3.79194 15.1372 2.89189C14.2647 1.49917 12.1896 0 9.6959 0C9.07517 0 8.46536 0.0976876 7.88364 0.290466C5.99979 0.917049 4.81394 1.86157 4.15179 3.26323C3.61417 4.40136 3.28105 5.45752 3.13322 6.49207C3.08066 6.85715 2.94815 6.99204 2.60877 7.02603C2.00442 7.08326 1.61486 7.47339 1.51171 8.12467C1.43124 8.66109 1.34728 9.29595 1.33513 9.93891C1.3089 11.3573 1.72698 11.8411 3.12437 12.0106ZM2.75805 8.03684L2.78152 8.07484C2.96069 8.08958 3.00441 8.2158 3.01673 8.41382L3.03637 8.81852C3.06428 9.39598 3.09219 9.97506 3.11042 10.5511L3.11345 10.6231C3.12375 10.8255 3.11587 10.9503 2.92191 10.9736C2.89642 10.9769 2.8715 10.9784 2.84729 10.9784C2.64461 10.9784 2.4885 10.8623 2.40798 10.6522C2.32447 10.424 2.33094 10.1936 2.33803 9.94952C2.34106 9.84457 2.34388 9.7394 2.33944 9.63542C2.32729 9.1601 2.371 8.74267 2.47291 8.35874C2.52508 8.16174 2.61229 8.07396 2.75546 8.07396V8.03715C2.75647 8.03724 2.75704 8.03684 2.75805 8.03684ZM16.6623 8.19982C16.7986 8.19982 16.901 8.28743 16.9665 8.46052C17.1234 8.85858 17.2076 9.30009 17.1922 9.64352C17.1845 10.3901 17.1307 10.9392 16.5021 11.2084C16.3953 11.2533 16.3144 11.2749 16.2537 11.2749C16.2084 11.2749 16.1752 11.2626 16.1526 11.2369C16.1093 11.1874 16.0971 11.0842 16.117 10.9301C16.1493 10.6858 16.1918 10.4427 16.2338 10.1993C16.3265 9.66333 16.4227 9.10916 16.4098 8.54949C16.4058 8.3561 16.4405 8.22302 16.6234 8.20198C16.6372 8.20048 16.6498 8.19982 16.6623 8.19982Z" fill="white"/>
</svg>
