<svg width="94" height="94" viewBox="0 0 94 94" fill="none" xmlns="http://www.w3.org/2000/svg">
<path fill-rule="evenodd" clip-rule="evenodd" d="M40.0357 11.6453C38.5039 11.0107 36.8182 10.8447 35.192 11.1682C33.5658 11.4917 32.072 12.2901 30.8996 13.4626C29.7271 14.635 28.9287 16.1288 28.6052 17.755C28.2817 19.3812 28.4477 21.0668 29.0823 22.5987C29.7168 24.1306 30.7913 25.4399 32.17 26.3611C33.5486 27.2823 35.1694 27.7739 36.8275 27.7739H45.2109V19.3905C45.2109 17.7324 44.7193 16.1116 43.7981 14.7329C42.8769 13.3543 41.5676 12.2798 40.0357 11.6453ZM46.9994 13.099C46.9258 12.9801 46.8501 12.8623 46.7722 12.7457C45.458 10.7788 43.59 9.24586 41.4046 8.34061C39.2191 7.43536 36.8143 7.1985 34.4942 7.66C32.1741 8.12149 30.043 9.2606 28.3703 10.9333C26.6976 12.606 25.5585 14.7371 25.097 17.0572C24.6355 19.3773 24.8724 21.7821 25.7776 23.9675C26.6829 26.153 28.2159 28.021 30.1827 29.3352C32.1496 30.6494 34.462 31.3509 36.8275 31.3509H57.1713C59.5368 31.3509 61.8492 30.6494 63.8161 29.3352C65.783 28.021 67.3159 26.153 68.2212 23.9675C69.1264 21.7821 69.3633 19.3773 68.9018 17.0572C68.4403 14.7371 67.3012 12.606 65.6285 10.9333C63.9558 9.2606 61.8247 8.12149 59.5046 7.66C57.1845 7.1985 54.7797 7.43536 52.5943 8.34061C50.4088 9.24586 48.5408 10.7788 47.2266 12.7457C47.1487 12.8623 47.073 12.9801 46.9994 13.099ZM48.7879 19.3905V27.7739H57.1713C58.8294 27.7739 60.4502 27.2823 61.8289 26.3611C63.2075 25.4399 64.282 24.1306 64.9165 22.5987C65.5511 21.0668 65.7171 19.3812 65.3936 17.755C65.0701 16.1288 64.2717 14.635 63.0993 13.4626C61.9268 12.2901 60.433 11.4917 58.8068 11.1682C57.1806 10.8447 55.495 11.0107 53.9631 11.6453C52.4312 12.2798 51.1219 13.3543 50.2007 14.7329C49.2795 16.1116 48.7879 17.7324 48.7879 19.3905Z" fill="#FF3636"/>
<path fill-rule="evenodd" clip-rule="evenodd" d="M17.9369 31.3508C15.7145 31.3508 13.9129 33.1525 13.9129 35.3749V44.0936C13.9129 46.3161 15.7145 48.1177 17.9369 48.1177H76.0619C78.2843 48.1177 80.0859 46.3161 80.0859 44.0936V35.3749C80.0859 33.1525 78.2843 31.3508 76.0619 31.3508H17.9369ZM10.3359 35.3749C10.3359 31.177 13.739 27.7739 17.9369 27.7739H76.0619C80.2598 27.7739 83.6629 31.177 83.6629 35.3749V44.0936C83.6629 48.2915 80.2598 51.6946 76.0619 51.6946H17.9369C13.739 51.6946 10.3359 48.2915 10.3359 44.0936V35.3749Z" fill="#FF3636"/>
<path fill-rule="evenodd" clip-rule="evenodd" d="M46.9994 27.7739C47.9871 27.7739 48.7879 28.5746 48.7879 29.5624V82.9927H67.3432C69.1812 82.9927 70.9439 82.2625 72.2436 80.9628C73.5433 79.6632 74.2734 77.9004 74.2734 76.0624V49.9061C74.2734 48.9184 75.0742 48.1177 76.0619 48.1177C77.0496 48.1177 77.8504 48.9184 77.8504 49.9061V76.0624C77.8504 78.8491 76.7434 81.5216 74.7729 83.4921C72.8024 85.4626 70.1298 86.5696 67.3432 86.5696H26.6556C23.869 86.5696 21.1964 85.4626 19.2259 83.4921C17.2554 81.5216 16.1484 78.8491 16.1484 76.0624V49.9061C16.1484 48.9184 16.9492 48.1177 17.9369 48.1177C18.9246 48.1177 19.7254 48.9184 19.7254 49.9061V76.0624C19.7254 77.9004 20.4555 79.6632 21.7552 80.9628C23.0549 82.2625 24.8176 82.9927 26.6556 82.9927H45.2109V29.5624C45.2109 28.5746 46.0117 27.7739 46.9994 27.7739Z" fill="#FF3636"/>
</svg>
