<svg width="26" height="27" viewBox="0 0 26 27" fill="none" xmlns="http://www.w3.org/2000/svg">
<g clip-path="url(#clip0_5900_692)">
<path opacity="0.9" d="M14.0786 3.75C8.68898 3.75 4.33398 8.11583 4.33398 13.5H1.08398L5.30357 17.7196L5.3794 17.8767L9.75065 13.5H6.50065C6.50065 9.31292 9.8969 5.91667 14.084 5.91667C18.2711 5.91667 21.6673 9.31292 21.6673 13.5C21.6673 17.6871 18.2711 21.0833 14.084 21.0833C11.9877 21.0833 10.0973 20.2275 8.7269 18.8571L7.19398 20.39C8.9544 22.1558 11.3865 23.25 14.0786 23.25C19.4682 23.25 23.834 18.8842 23.834 13.5C23.834 8.11583 19.4682 3.75 14.0786 3.75ZM13.0007 9.16667V14.5833L17.6373 17.335L18.4173 16.0188L14.6257 13.7708V9.16667H13.0007Z" fill="black"/>
</g>
<defs>
<clipPath id="clip0_5900_692">
<rect width="26" height="26" fill="white" transform="translate(0 0.5)"/>
</clipPath>
</defs>
</svg>
