<svg width="33" height="33" viewBox="0 0 33 33" fill="none" xmlns="http://www.w3.org/2000/svg">
<circle cx="16.5" cy="16.5" r="16.5" fill="white"/>
<path d="M22.4056 14.5625H24.7494V13.75C24.7501 13.5896 24.7966 13.433 24.8828 13.3C24.9689 13.167 25.0911 13.0634 25.2338 13.0025C25.376 12.9403 25.5328 12.9233 25.6844 12.9536C25.8359 12.984 25.9755 13.0604 26.0853 13.1731L29.2103 16.4231C29.2835 16.4986 29.3417 16.5885 29.3813 16.6875C29.421 16.7865 29.4414 16.8927 29.4414 17C29.4414 17.1073 29.421 17.2134 29.3813 17.3125C29.3417 17.4115 29.2835 17.5013 29.2103 17.5769L26.0853 20.8269C26.0123 20.9022 25.9257 20.9617 25.8306 21.0022C25.7354 21.0426 25.6334 21.0631 25.5306 21.0625C25.4281 21.0652 25.3265 21.043 25.2338 20.9975C25.0911 20.9365 24.9689 20.833 24.8828 20.7C24.7966 20.567 24.7501 20.4104 24.7494 20.25V19.4375H22.4056C22.1984 19.4375 21.9997 19.3519 21.8532 19.1995C21.7067 19.0471 21.6244 18.8405 21.6244 18.625V15.375C21.6244 15.1595 21.7067 14.9528 21.8532 14.8005C21.9997 14.6481 22.1984 14.5625 22.4056 14.5625Z" fill="#865FE4"/>
<path d="M15.375 27.985C15.6866 27.9857 15.9913 27.8895 16.25 27.7087C16.462 27.5597 16.6356 27.3587 16.7555 27.1235C16.8754 26.8884 16.9379 26.6262 16.9375 26.36V7.67247C16.9377 7.40699 16.8754 7.14548 16.756 6.91083C16.6366 6.67618 16.4638 6.47552 16.2526 6.32641C16.0414 6.1773 15.7983 6.08428 15.5445 6.05549C15.2907 6.02669 15.034 6.06299 14.7969 6.16122L8.54687 8.76122C8.26104 8.87955 8.01515 9.08299 7.84004 9.34605C7.66492 9.60911 7.56838 9.92008 7.5625 10.24V23.76C7.5622 24.0854 7.65587 24.4035 7.83138 24.6729C8.00688 24.9424 8.25615 25.1508 8.54687 25.2712L14.7969 27.8712C14.9804 27.9487 15.1769 27.9873 15.375 27.985ZM15.375 7.67247V26.3681L9.125 23.76V10.24L15.375 7.67247Z" fill="#865FE4"/>
<path d="M13.8125 19.4375C14.0197 19.4375 14.2184 19.3519 14.3649 19.1995C14.5114 19.0472 14.5938 18.8405 14.5938 18.625V15.375C14.5938 15.1595 14.5114 14.9528 14.3649 14.8005C14.2184 14.6481 14.0197 14.5625 13.8125 14.5625C13.6053 14.5625 13.4066 14.6481 13.2601 14.8005C13.1136 14.9528 13.0312 15.1595 13.0312 15.375V18.625C13.0312 18.8405 13.1136 19.0472 13.2601 19.1995C13.4066 19.3519 13.6053 19.4375 13.8125 19.4375Z" fill="#865FE4"/>
<path d="M16.1562 8.0625H19.2812C19.6957 8.0625 20.0931 8.2337 20.3861 8.53845C20.6791 8.8432 20.8438 9.25652 20.8438 9.6875V25.125C20.8438 25.556 20.6791 25.9693 20.3861 26.274C20.0931 26.5788 19.6957 26.75 19.2812 26.75H16.1562C15.949 26.75 15.7503 26.6644 15.6038 26.512C15.4573 26.3597 15.375 26.153 15.375 25.9375V8.875C15.375 8.65951 15.4573 8.45285 15.6038 8.30048C15.7503 8.1481 15.949 8.0625 16.1562 8.0625Z" fill="#865FE4"/>
<path d="M15.375 23.5C10.0391 23.2969 9.125 19.4375 9.125 18.0806L8.34375 23.7681C8.3436 23.9309 8.39043 24.0899 8.47819 24.2246C8.56594 24.3593 8.69057 24.4635 8.83594 24.5238L15.5 27.3431L15.6797 24.4994L15.375 23.5Z" fill="#865FE4"/>
</svg>
