<svg width="26" height="28" viewBox="0 0 26 28" fill="none" xmlns="http://www.w3.org/2000/svg">
<path d="M24.7932 15.376L24.6884 15.2882C24.4076 15.0544 24.0765 14.9237 23.7384 14.8865V8.9132H24.021C24.4885 8.9132 24.8689 8.53286 24.8689 8.06537V4.67406C24.8689 4.20657 24.4885 3.82623 24.021 3.82623H21.2075C21.2668 3.78294 21.3264 3.74077 21.3837 3.69097C22.6174 2.61988 22.6014 1.59983 22.6002 1.55676C22.5969 1.44966 22.5334 1.35363 22.4358 1.30863C22.396 1.29015 21.4466 0.862111 20.2229 1.04564C19.4344 1.16416 18.7884 1.53082 18.3648 1.96203C18.0138 1.37482 17.3834 1.00008 16.6732 1.00008H16.108C15.397 1.00008 14.7668 1.37454 14.416 1.96174C13.9924 1.53065 13.3465 1.16411 12.5582 1.04564C11.334 0.862111 10.3846 1.29015 10.3454 1.30863C10.2477 1.35363 10.1842 1.44966 10.1809 1.55676C10.1798 1.59983 10.1638 2.61988 11.398 3.69126C11.4553 3.74094 11.5147 3.78299 11.5738 3.82623H8.76013C8.29263 3.82623 7.9123 4.20657 7.9123 4.67406V8.06537C7.9123 8.53286 8.29263 8.9132 8.76013 8.9132H9.04273V16.2442H7.90896C7.15445 16.2442 6.22359 17.2119 5.65142 17.9078V17.1088C5.65142 16.3297 5.01776 15.6958 4.23837 15.6958H1.9775C1.19812 15.6958 0.564453 16.3297 0.564453 17.1088V25.5871C0.564453 26.3662 1.19812 27.0001 1.9775 27.0001H4.23837C5.01776 27.0001 5.65142 26.3662 5.65142 25.5871V25.0256C6.13864 25.2119 6.65825 25.3129 7.17763 25.315C7.92886 25.3181 9.29166 25.323 10.6501 25.323C11.7342 25.323 12.8155 25.32 13.58 25.3106L13.9305 25.3073C16.087 25.2891 17.7898 25.2744 20.6993 22.5623C22.5213 20.8642 24.0663 19.0736 25.0416 17.8703C25.6516 17.1171 25.5401 15.9983 24.7932 15.376ZM23.1732 14.9126C22.8503 14.9813 22.543 15.1386 22.2906 15.3867L19.1007 18.5219H18.6515V8.9132H23.1732V14.9126ZM18.6515 4.39145V8.34798H14.1297V4.39145H18.6515ZM14.6949 17.0357V8.9132H18.0862V18.5219H14.8686C14.9234 18.2966 14.9378 18.0483 14.9378 17.7431C14.9378 17.4551 14.8441 17.2237 14.6949 17.0357ZM24.021 4.39145C24.1767 4.39145 24.3036 4.51812 24.3036 4.67406V8.06537C24.3036 8.22132 24.1767 8.34798 24.021 8.34798H19.2167V4.39258L24.021 4.39145ZM20.3068 1.60481C20.4912 1.57694 20.6683 1.56564 20.8356 1.56564C21.3577 1.56564 21.7833 1.67659 22.0129 1.7525C21.9561 2.03816 21.7507 2.62407 21.0133 3.26406C20.5471 3.66865 19.9909 3.80368 19.5015 3.82623H19.1692C19.1025 3.82284 19.0369 3.81849 18.9754 3.81216C18.6553 3.77932 18.4014 3.51768 18.3981 3.21936V3.01458C18.3981 2.56749 19.1592 1.77697 20.3068 1.60481ZM16.108 1.56536H16.6732C17.2625 1.56536 17.7758 1.92534 17.9862 2.46699C17.89 2.65357 17.8329 2.84032 17.8329 3.01458V3.22241C17.8353 3.44307 17.9017 3.64988 18.0149 3.82629H14.766C14.8794 3.64937 14.9459 3.44154 14.9483 3.21941V3.01463C14.9483 2.84043 14.8912 2.65374 14.7951 2.46716C15.005 1.92512 15.5179 1.56536 16.108 1.56536ZM11.7684 3.26435C11.0293 2.62294 10.8245 2.03675 10.7677 1.75278C11.0712 1.65206 11.7143 1.49007 12.4743 1.60486C13.6219 1.77709 14.3831 2.56749 14.3831 3.01458V3.2163C14.3798 3.51768 14.1264 3.77932 13.8063 3.81216C13.7448 3.81849 13.6787 3.82284 13.6121 3.82623H13.2798C12.7905 3.80368 12.2341 3.66865 11.7684 3.26435ZM8.47752 8.06537V4.67406C8.47752 4.51812 8.60446 4.39145 8.76013 4.39145L13.5645 4.39258V8.34798H8.76013C8.60446 8.34798 8.47752 8.22132 8.47752 8.06537ZM9.60795 8.9132H14.1297V16.6036C13.41 16.252 12.461 16.2442 12.3971 16.2442H9.60795V8.9132ZM5.0862 25.5872C5.0862 26.0546 4.70587 26.435 4.23837 26.435H1.9775C1.51001 26.435 1.12967 26.0546 1.12967 25.5872V17.1089C1.12967 16.6414 1.51001 16.261 1.9775 16.261H4.23837C4.70587 16.261 5.0862 16.6414 5.0862 17.1089V25.5872ZM24.6022 17.5143C23.6385 18.7035 22.1118 20.4729 20.314 22.1489C17.5652 24.7112 15.9589 24.7247 13.926 24.7421L13.5733 24.7454C11.8545 24.767 8.5294 24.7551 7.17983 24.7498C6.64751 24.7479 6.13531 24.63 5.65142 24.4108V18.8353C6.23009 18.0235 7.30898 16.8094 7.90896 16.8094H12.397C12.4169 16.8094 14.3725 16.8348 14.3725 17.7431C14.3725 18.7982 14.3725 18.9086 10.9277 20.9134C10.793 20.9918 10.7472 21.1648 10.8255 21.2997C10.8786 21.39 10.9729 21.4402 11.0701 21.4402C11.1186 21.4402 11.1678 21.4278 11.2125 21.4018C13.2546 20.2132 14.1787 19.6395 14.5971 19.0871H19.2166C19.2906 19.0871 19.3618 19.0581 19.4148 19.006L22.6869 15.7897C23.1373 15.3483 23.8411 15.3191 24.3263 15.7223L24.4311 15.8101C24.9422 16.2357 25.019 17.0005 24.6022 17.5143Z" fill="white" stroke="white" stroke-width="0.3"/>
</svg>
