<svg width="70" height="70" viewBox="0 0 70 70" fill="none" xmlns="http://www.w3.org/2000/svg">
<rect width="70" height="70" rx="35" fill="white"/>
<path fill-rule="evenodd" clip-rule="evenodd" d="M53 47.097C53 49.253 51.2485 51 49.087 51H20.913C18.7515 51 17 49.253 17 47.097V24.4595C17 22.7352 18.4017 21.3371 20.1304 21.3371H35.9164L42.2548 19.0468C42.6563 18.9009 43.1008 19.1077 43.2471 19.5066L43.9147 21.3371H46.7391C48.4679 21.3371 49.8696 22.7352 49.8696 24.4595V26.0207C51.5983 26.0207 53 27.4188 53 29.1431V47.097ZM20.1304 22.8983C19.2664 22.8983 18.5652 23.5977 18.5652 24.4595C18.5652 25.3213 19.2664 26.0207 20.1304 26.0207H22.8265H22.9744C22.9846 26.0168 22.9909 26.0082 23.001 26.0043L31.5957 22.8983H20.1304ZM42.8871 23.0396L42.056 20.7571L40.4501 21.3371H40.4524L36.1371 22.8983H36.1293L27.4901 26.0207H43.9734L42.8871 23.0396ZM48.3043 24.4595C48.3043 23.5977 47.6031 22.8983 46.7391 22.8983H44.4829L45.6208 26.0207H48.3043V24.4595ZM49.8696 27.5819H20.1304C19.5576 27.5819 19.027 27.4172 18.5652 27.1487V47.097C18.5652 48.3904 19.617 49.4388 20.913 49.4388H49.087C50.3837 49.4388 51.4348 48.3904 51.4348 47.097V41.6328H48.3043C46.5756 41.6328 45.1739 40.2347 45.1739 38.5104C45.1739 36.786 46.5756 35.388 48.3043 35.388H51.4348V29.1431C51.4348 28.2814 50.7336 27.5819 49.8696 27.5819ZM51.4348 40.0716V36.9492H48.3043C47.4403 36.9492 46.7391 37.6486 46.7391 38.5104C46.7391 39.3722 47.4403 40.0716 48.3043 40.0716H51.4348ZM48.3043 37.7298H49.8696V39.291H48.3043V37.7298Z" fill="#FF3636"/>
</svg>
