<svg width="43" height="43" viewBox="0 0 43 43" fill="none" xmlns="http://www.w3.org/2000/svg">
<path d="M21.5 43C9.6277 43 0 33.3723 0 21.5C0 9.6277 9.6277 0 21.5 0C33.3723 0 43 9.6277 43 21.5C43 33.3723 33.3723 43 21.5 43Z" fill="#25D366"/>
<path fill-rule="evenodd" clip-rule="evenodd" d="M31.5579 11.4896C28.8919 8.81929 25.34 7.34869 21.5604 7.34439C13.7731 7.34439 7.43055 13.6826 7.43055 21.4742C7.43055 23.9639 8.07985 26.3977 9.31825 28.5391L7.31445 35.862L14.8051 33.8969C16.8691 35.0235 19.1911 35.6169 21.5561 35.6169H21.5604C29.3477 35.6169 35.6859 29.2787 35.6901 21.4871C35.6945 17.7117 34.2282 14.1599 31.5579 11.4896ZM21.5647 33.2304H21.5604C19.4534 33.2304 17.3851 32.6628 15.5834 31.5921L15.1534 31.3384L10.7072 32.5037L11.894 28.1693L11.6145 27.7264C10.4406 25.8559 9.81705 23.6973 9.81705 21.4742C9.82135 14.9984 15.0889 9.73089 21.569 9.73089C24.708 9.73089 27.6535 10.9564 29.8722 13.1752C32.091 15.394 33.3123 18.3481 33.3079 21.4828C33.3079 27.9629 28.0361 33.2304 21.5647 33.2304ZM28.0061 24.4326C27.6535 24.2563 25.9163 23.4006 25.5938 23.2845C25.2713 23.1684 25.0347 23.1082 24.7983 23.4608C24.5618 23.8134 23.8867 24.6089 23.6803 24.8454C23.4739 25.0819 23.2675 25.112 22.9149 24.9357C22.5623 24.7594 21.4228 24.3853 20.0769 23.1813C19.0277 22.2439 18.3182 21.0872 18.1118 20.7346C17.9054 20.382 18.0903 20.1885 18.2666 20.0122C18.4257 19.8531 18.6192 19.5994 18.7955 19.393C18.9718 19.1866 19.032 19.0404 19.1481 18.8039C19.2642 18.5674 19.2083 18.361 19.118 18.1847C19.0277 18.0084 18.3225 16.2712 18.0301 15.5617C17.742 14.8737 17.4539 14.9683 17.2346 14.9554C17.0282 14.9468 16.7917 14.9425 16.5595 14.9425C16.323 14.9425 15.9403 15.0328 15.6178 15.3854C15.2953 15.738 14.3837 16.5937 14.3837 18.3309C14.3837 20.0681 15.6479 21.7494 15.8242 21.9816C16.0005 22.2181 18.3139 25.7828 21.857 27.3136C22.6999 27.6791 23.3577 27.8941 23.8694 28.0575C24.7165 28.3284 25.4862 28.2897 26.0926 28.1994C26.7719 28.0962 28.1824 27.3437 28.4748 26.5224C28.7672 25.6968 28.7671 24.9916 28.6812 24.8454C28.5951 24.6992 28.3587 24.6132 28.0061 24.4326Z" fill="white"/>
</svg>
