<svg width="58" height="67" viewBox="0 0 58 67" fill="none" xmlns="http://www.w3.org/2000/svg">
<path d="M58 33.5552C58 40.0307 56.7232 45.8073 54.1698 50.8847C51.6163 55.8885 48.151 59.8254 43.7736 62.6952C39.4692 65.5651 34.5447 67 29 67C23.5283 67 18.6038 65.5651 14.2264 62.6952C9.84909 59.8254 6.38367 55.8885 3.83021 50.8847C1.27675 45.8073 0 40.0307 0 33.5552C0 27.0796 1.27675 21.3399 3.83021 16.3361C6.38367 11.2586 9.84909 7.28501 14.2264 4.41515C18.6038 1.47172 23.5648 0 29.1095 0C34.5811 0 39.4692 1.47172 43.7736 4.41515C48.151 7.28501 51.6163 11.2586 54.1698 16.3361C56.7232 21.3399 58 27.0796 58 33.5552ZM36.9887 33.5552C36.9887 30.6853 36.6239 28.1834 35.8944 26.0494C35.2378 23.9154 34.2893 22.2597 33.0491 21.0824C31.8818 19.8314 30.5321 19.2059 29 19.2059C27.395 19.2059 25.9724 19.8314 24.7321 21.0824C23.4919 22.2597 22.5069 23.9154 21.7774 26.0494C21.1208 28.1834 20.7925 30.6853 20.7925 33.5552C20.7925 36.425 21.1208 38.927 21.7774 41.061C22.5069 43.1949 23.4919 44.8506 24.7321 46.028C25.9724 47.2054 27.395 47.7941 29 47.7941C30.5321 47.7941 31.8818 47.2054 33.0491 46.028C34.2893 44.8506 35.2378 43.1949 35.8944 41.061C36.6239 38.927 36.9887 36.425 36.9887 33.5552Z" fill="#FF3636"/>
</svg>
