<svg width="43" height="43" viewBox="0 0 43 43" fill="none" xmlns="http://www.w3.org/2000/svg">
<g filter="url(#filter0_d_574_2472)">
<path d="M20.5014 7C18.1568 6.99982 15.8525 7.61026 13.8155 8.77122C11.7784 9.93217 10.0789 11.6036 8.88416 13.621C7.68943 15.6383 7.0407 17.9321 7.00185 20.2763C6.96301 22.6206 7.53538 24.9345 8.66262 26.9904L7.55922 30.8716C7.45544 31.2288 7.44885 31.6071 7.54013 31.9677C7.63141 32.3282 7.81725 32.6579 8.07846 32.9226C8.33966 33.185 8.66704 33.3719 9.02586 33.4633C9.38469 33.5547 9.76156 33.5473 10.1165 33.4418L14.0109 32.3385C15.8156 33.3276 17.8226 33.891 19.8785 33.9857C21.9344 34.0804 23.9847 33.7038 25.8727 32.8847C27.7607 32.0656 29.4365 30.8258 30.7719 29.2599C32.1074 27.694 33.0671 25.8435 33.5778 23.8498C34.0885 21.8562 34.1366 19.7722 33.7184 17.7572C33.3003 15.7421 32.427 13.8493 31.1652 12.2234C29.9035 10.5976 28.2867 9.28171 26.4385 8.3764C24.5902 7.47108 22.5595 7.00029 20.5014 7ZM20.5014 22.0577C20.1934 22.0577 19.8922 21.9663 19.636 21.7952C19.3798 21.624 19.1802 21.3807 19.0623 21.0961C18.9444 20.8115 18.9135 20.4983 18.9736 20.1961C19.0337 19.8939 19.1821 19.6164 19.4 19.3985C19.6178 19.1807 19.8954 19.0323 20.1975 18.9722C20.4997 18.9121 20.8129 18.943 21.0976 19.0609C21.3822 19.1788 21.6255 19.3784 21.7967 19.6346C21.9678 19.8908 22.0592 20.1919 22.0592 20.5C22.0592 20.9131 21.8951 21.3093 21.6029 21.6015C21.3108 21.8936 20.9146 22.0577 20.5014 22.0577Z" fill="url(#paint0_linear_574_2472)"/>
</g>
<path d="M15 15L26 26M26 15L15 26" stroke="white" stroke-width="2"/>
<defs>
<filter id="filter0_d_574_2472" x="0" y="0" width="43" height="43" filterUnits="userSpaceOnUse" color-interpolation-filters="sRGB">
<feFlood flood-opacity="0" result="BackgroundImageFix"/>
<feColorMatrix in="SourceAlpha" type="matrix" values="0 0 0 0 0 0 0 0 0 0 0 0 0 0 0 0 0 0 127 0" result="hardAlpha"/>
<feOffset dx="1" dy="1"/>
<feGaussianBlur stdDeviation="4"/>
<feComposite in2="hardAlpha" operator="out"/>
<feColorMatrix type="matrix" values="0 0 0 0 0.0666667 0 0 0 0 0.160784 0 0 0 0 0.541176 0 0 0 0.67 0"/>
<feBlend mode="normal" in2="BackgroundImageFix" result="effect1_dropShadow_574_2472"/>
<feBlend mode="normal" in="SourceGraphic" in2="effect1_dropShadow_574_2472" result="shape"/>
</filter>
<linearGradient id="paint0_linear_574_2472" x1="-5.24418" y1="-32.2442" x2="31.1744" y2="34" gradientUnits="userSpaceOnUse">
<stop stop-color="#63C7FF"/>
<stop offset="1" stop-color="#4244E4"/>
</linearGradient>
</defs>
</svg>
