<svg width="57" height="46" viewBox="0 0 57 46" fill="none" xmlns="http://www.w3.org/2000/svg">
<path fill-rule="evenodd" clip-rule="evenodd" d="M28.386 0.00219218C29.3892 -0.0208182 31.1904 0.140255 32.376 0.347348C33.5616 0.554442 35.2716 0.99164 36.138 1.29078C37.0044 1.61292 38.2584 2.14216 38.874 2.46431C39.5124 2.76344 40.6296 3.45375 41.382 3.95998C42.1344 4.46621 43.5024 5.61673 44.4144 6.51414C45.3264 7.41154 46.6032 8.93023 47.2644 9.87366C47.9028 10.8171 48.8148 12.4278 49.2708 13.4403C49.7496 14.4527 50.3424 16.1095 50.5932 17.1219C50.844 18.1344 51.1176 19.5841 51.3456 21.724L50.2512 21.655C49.5216 21.586 48.8148 21.701 48.222 21.9771C47.7204 22.2072 47.2416 22.4143 47.1276 22.4604C47.0364 22.5064 46.968 22.0922 46.968 21.5399C46.968 21.0107 46.74 19.5841 46.4436 18.3875C46.1472 17.191 45.486 15.4192 45.0072 14.4757C44.5284 13.5323 43.6164 12.1287 43.0236 11.3693C42.4308 10.61 41.3364 9.45947 40.584 8.83819C39.8544 8.1939 38.646 7.3195 37.9164 6.8823C37.1868 6.44511 35.8188 5.80082 34.884 5.47867C33.9492 5.13351 32.3532 4.74234 31.35 4.58126C30.2328 4.39718 28.6824 4.32815 27.36 4.42019C26.1744 4.48922 24.4416 4.76535 23.5296 5.01846C22.6404 5.29459 21.2496 5.82383 20.4516 6.215C19.6764 6.62919 18.582 7.25047 18.012 7.64165C17.442 8.03282 16.4388 8.88421 15.7548 9.5285C15.0936 10.1498 14.0904 11.3003 13.566 12.0596C13.0416 12.819 12.3348 13.9925 11.9928 14.6368C11.6736 15.3041 11.1492 16.7077 10.8528 17.7432C10.5564 18.8017 10.26 20.2974 10.032 22.5294L9.0516 22.0462C8.3448 21.678 7.7976 21.586 5.7456 21.724L5.8596 20.5735C5.928 19.9292 6.2244 18.4335 6.5208 17.237C6.84 16.0174 7.5696 14.0385 8.1852 12.75C8.8464 11.4154 9.9636 9.62054 10.8756 8.49303C11.7192 7.43455 13.2012 5.93888 14.136 5.20254C15.0708 4.4432 16.416 3.49977 17.1 3.1086C17.784 2.69441 19.0152 2.09614 19.836 1.75098C20.6568 1.42884 21.888 0.99164 22.572 0.784546C23.256 0.600463 24.4416 0.347348 25.194 0.232296C25.9464 0.117244 27.3828 0.0252026 28.386 0.00219218ZM21.888 13.7164C22.2072 13.7854 22.8 14.0155 23.2332 14.2226C23.6664 14.4297 24.3048 14.959 24.6696 15.3962C25.0116 15.8334 25.4904 16.5697 25.6728 17.0069C25.878 17.4441 26.1744 18.3415 26.3112 18.9858C26.5164 19.9752 26.4936 20.2283 26.22 20.5505C26.0376 20.7576 25.8096 20.9417 25.6956 20.9187C25.6044 20.9187 25.1028 20.4584 24.5556 19.8602C24.0312 19.2849 23.142 18.6176 22.572 18.3415C21.6828 17.9273 21.432 17.9043 20.6796 18.1344C20.2008 18.2725 19.266 18.9398 18.5136 19.6531C17.8068 20.3434 17.1684 20.9187 17.1 20.9417C17.0316 20.9417 16.8492 20.8036 16.6896 20.6425C16.4844 20.4354 16.4388 19.9982 16.5072 19.3079C16.5756 18.7327 16.986 17.6052 17.3736 16.7768C17.784 15.9714 18.468 15.028 18.8556 14.7058C19.266 14.3837 19.9956 14.0155 20.4516 13.8775C20.9304 13.7164 21.5688 13.6474 21.888 13.7164ZM35.568 13.5553C35.6364 13.5553 36.0696 13.6704 36.5256 13.7854C37.0044 13.9235 37.8252 14.4067 38.3496 14.8669C38.8512 15.3501 39.5808 16.3626 39.9456 17.1219C40.356 18.0424 40.584 18.8707 40.584 19.5841C40.584 20.3664 40.47 20.7346 40.242 20.8496C39.9912 20.9877 39.5352 20.6885 38.6916 19.8602C38.0304 19.1929 37.164 18.5026 36.7536 18.2955C36.366 18.0884 35.8644 17.9273 35.682 17.9273C35.4996 17.9273 34.998 18.0884 34.5876 18.2955C34.2 18.5026 33.3336 19.1699 32.718 19.7911C31.9428 20.5735 31.4412 20.8956 31.1676 20.8036C30.8712 20.7116 30.78 20.4354 30.78 19.5841C30.78 18.8631 31.0004 18.0424 31.4412 17.1219C31.806 16.3626 32.4444 15.3962 32.8548 14.982C33.288 14.5908 34.0404 14.0846 34.542 13.9005C35.0436 13.7164 35.4996 13.5783 35.568 13.5553ZM7.5012 24.5543C7.7064 24.6233 9.5532 26.3491 11.628 28.42C13.7028 30.491 15.4584 32.1938 15.5496 32.1938C15.6636 32.1938 15.8916 32.1477 16.074 32.0787C16.3248 31.9867 16.416 31.6185 16.416 30.6981C16.416 30.0078 16.53 29.2024 16.644 28.9263C16.7808 28.6271 17.1228 28.259 17.442 28.1209C17.7612 27.9598 18.1716 27.8218 18.354 27.8218C18.5364 27.8218 18.9924 28.1209 20.064 29.2024V33.5744C20.064 35.9675 19.95 38.4986 19.8132 39.1659C19.6764 39.8102 19.3344 40.7766 19.0836 41.2829C18.8328 41.7891 18.1488 42.7325 17.556 43.3538C16.872 44.0671 15.9372 44.7574 15.0252 45.1946C13.7484 45.7929 13.3152 45.8849 11.514 45.8849C9.6672 45.8849 9.3024 45.7929 7.98 45.1486C6.7944 44.5503 5.8596 43.768 3.2604 41.1218C1.482 39.304 0 37.6472 0 37.4401C0 37.21 0.2508 36.7728 0.57 36.4507C0.8664 36.1285 1.2768 35.8754 1.482 35.8754C1.6644 35.8754 2.394 36.4047 3.078 37.0259C3.762 37.6702 4.5144 38.1535 4.7196 38.1304C4.9248 38.0844 5.13 37.9233 5.1756 37.7853C5.2212 37.6242 4.0584 36.2436 2.622 34.7249C1.1856 33.2062 0 31.8026 0 31.6185C0 31.4344 0.2508 31.0202 0.57 30.6981C0.8664 30.3759 1.2768 30.1228 1.482 30.1228C1.6644 30.1228 3.0552 31.3194 4.56 32.769C6.0648 34.2187 7.4328 35.3922 7.5696 35.3462C7.7292 35.3002 7.8888 35.0701 7.9344 34.8169C7.98 34.5178 7.0452 33.4133 4.8108 31.1583C2.2572 28.5811 1.596 27.7988 1.596 27.3155C1.596 26.9474 1.7556 26.5102 1.9608 26.3261C2.1432 26.142 2.5764 25.9809 2.9184 25.9809C3.3972 25.9809 4.2636 26.7173 6.7716 29.2024C8.7324 31.1353 10.1916 32.4008 10.4196 32.3778C10.6248 32.3318 10.83 32.1707 10.8756 32.0327C10.9212 31.8716 9.7584 30.491 8.322 28.9723C6.8856 27.4536 5.7 26.119 5.7 25.9809C5.7 25.8429 5.814 25.5437 5.9736 25.2676C6.1332 25.0145 6.4524 24.7154 6.6804 24.6233C6.9312 24.5083 7.296 24.4853 7.5012 24.5543ZM49.8408 24.3702C50.0916 24.3702 50.502 24.5773 50.7756 24.8304C51.0948 25.1065 51.3 25.5437 51.3 25.9349C51.2772 26.4181 50.73 27.1085 48.792 29.0873C47.424 30.491 46.284 31.8026 46.284 32.0327C46.284 32.2628 46.4436 32.4239 46.6944 32.4239C46.8996 32.4239 48.5412 30.9742 50.3196 29.2024C52.9416 26.5562 53.6484 25.9809 54.1956 25.9809C54.5376 25.9809 55.0164 26.165 55.2444 26.3951C55.4724 26.6022 55.632 27.0394 55.632 27.3616C55.632 27.7758 54.7656 28.8112 52.3032 31.2733C49.932 33.6894 49.0428 34.7249 49.134 35.024C49.2024 35.2311 49.3848 35.4152 49.5444 35.4152C49.6812 35.4152 51.0264 34.2187 52.4856 32.769C53.9676 31.3194 55.3584 30.1228 55.5636 30.1228C55.7916 30.1228 56.202 30.3299 56.4756 30.583C56.7948 30.8592 57 31.2964 57 31.6875C56.9772 32.1707 56.43 32.8611 54.492 34.84C53.124 36.2436 51.984 37.5552 51.984 37.7853C51.984 37.9924 52.1436 38.1765 52.326 38.1765C52.5084 38.1765 53.238 37.6702 53.922 37.0259C54.606 36.4047 55.3584 35.8754 55.5864 35.8754C55.7916 35.8754 56.202 36.0825 56.4756 36.3356C56.7948 36.6118 57 37.049 57 37.4401C56.9772 37.9233 56.3616 38.6827 54.0816 41.0067C52.4856 42.6175 50.73 44.2512 50.16 44.6194C49.59 44.9645 48.5184 45.4478 47.766 45.6779C46.8084 45.931 45.942 46.023 44.916 45.931C43.9812 45.8619 42.9324 45.5858 42.066 45.1716C41.3136 44.8265 40.2192 44.0211 39.6036 43.4228C39.0108 42.8246 38.2584 41.7201 37.9164 41.0067C37.278 39.6721 37.278 39.6261 37.164 28.9723L37.734 28.397C38.0304 28.0749 38.5092 27.8218 38.8056 27.8218C39.102 27.7988 39.6036 28.0059 39.9684 28.282C40.5384 28.6962 40.584 28.8803 40.584 30.2379C40.584 31.5725 40.6524 31.7566 41.1084 31.9867C41.5644 32.2168 41.9292 31.9176 45.5088 28.305C47.766 26.027 49.59 24.3702 49.8408 24.3702ZM22.914 29.8927C22.9824 29.8927 23.37 30.0998 23.7576 30.3299C24.168 30.583 25.1256 30.9512 25.878 31.1583C26.8584 31.4574 27.7932 31.5265 29.184 31.4574C30.78 31.3884 31.3956 31.2273 34.2 29.8927L34.2228 34.84L32.7864 35.3002C31.6464 35.6683 30.7572 35.7604 28.386 35.7374C26.0148 35.7374 25.1712 35.6453 22.914 34.8169L22.8456 32.3548C22.8228 30.9972 22.8456 29.8927 22.914 29.8927ZM22.4808 40.7076C22.5264 40.7076 23.4156 40.9147 24.4416 41.1678C25.65 41.4669 27.1092 41.628 28.5 41.628C29.6856 41.628 31.3956 41.4669 32.262 41.2599C33.1284 41.0528 34.086 40.8457 34.3596 40.7996C34.7092 40.7383 34.884 40.8227 34.884 41.0528C34.884 41.2368 35.2488 42.0882 35.682 42.9626C36.138 43.814 36.48 44.5273 36.48 44.5503C36.48 44.5964 35.796 44.8265 34.9296 45.0796C34.086 45.3327 32.7408 45.6318 31.92 45.7699C31.0992 45.8849 29.6172 46 28.614 46C27.6108 46 26.1288 45.8849 25.308 45.7699C24.4872 45.6318 23.0736 45.2867 22.1616 45.0106C21.2496 44.7344 20.52 44.4813 20.52 44.4353C20.52 44.4123 20.8392 43.9061 21.204 43.2848C21.5916 42.6865 22.002 41.8581 22.1388 41.4439C22.2756 41.0528 22.4124 40.7076 22.4808 40.7076Z" fill="#FE7F37"/>
</svg>
