<svg width="36" height="30" viewBox="0 0 36 30" fill="none" xmlns="http://www.w3.org/2000/svg">
<path fill-rule="evenodd" clip-rule="evenodd" d="M18.457 0.768359C19.3992 0.782422 20.5664 0.838672 21.0938 0.901953C21.6141 0.965235 22.4719 1.0918 22.9922 1.19023C23.5125 1.28164 24.4195 1.49258 24.9961 1.64727C25.5797 1.80195 26.4797 2.09023 27 2.28711C27.5203 2.48398 28.4414 2.8918 29.0391 3.19414C29.6367 3.49648 30.4172 3.92539 30.7617 4.15742C31.1063 4.38242 31.7109 4.81836 32.0977 5.13477C32.4844 5.44414 33.0539 5.96445 33.3563 6.28789C33.6586 6.61133 34.0594 7.07539 34.2352 7.31445C34.4109 7.55352 34.7062 8.01758 34.8961 8.33399C35.0789 8.65742 35.325 9.1707 35.4445 9.48008C35.5641 9.78945 35.7258 10.2816 35.8031 10.5699C35.8945 10.9215 35.9578 11.4348 35.9789 12.1168C36.0141 12.9113 35.993 13.291 35.8945 13.8395C35.8312 14.2262 35.6555 14.9082 35.5078 15.3512C35.3672 15.7941 35.0859 16.4832 34.882 16.884C34.6359 17.3762 34.4883 17.777 34.4109 18.1777C34.3477 18.5012 34.207 19.0637 34.0875 19.4293C33.968 19.7949 33.743 20.3855 33.5812 20.7301C33.4125 21.0746 33.1172 21.6301 32.9133 21.9605C32.7023 22.291 32.393 22.748 32.2102 22.9801C32.0344 23.2121 31.6195 23.6832 31.2891 24.0277C30.9586 24.3723 30.4031 24.8926 30.0586 25.1809C29.7141 25.4762 29.0953 25.9332 28.6875 26.2004C28.2797 26.4676 27.6961 26.8191 27.3867 26.9879C27.0773 27.1566 26.4586 27.452 26.0156 27.6418C25.5727 27.8316 24.8625 28.1059 24.4336 28.2465C24.0047 28.3871 23.3438 28.577 22.957 28.6684C22.5703 28.7668 21.8602 28.9074 21.375 28.9848C20.8898 29.0621 20.1164 29.1605 19.6523 29.2027C19.1883 29.2379 18.443 29.273 18 29.273C17.557 29.273 16.8258 29.2379 16.3828 29.2027C15.9398 29.1676 15.2437 29.0832 14.8359 29.0199C14.4281 28.9637 13.7531 28.8301 13.3242 28.7387C12.8953 28.6402 12.157 28.4293 11.6719 28.2746C11.1867 28.1199 10.4273 27.8316 9.98438 27.6418C9.54141 27.452 8.92266 27.1566 8.61328 26.9879C8.30391 26.8191 7.72031 26.4676 7.3125 26.2004C6.90469 25.9332 6.29297 25.4762 5.94141 25.1809C5.58984 24.8926 5.04141 24.3723 4.71094 24.0277C4.38047 23.6832 3.96563 23.2121 3.78984 22.9801C3.60703 22.748 3.30469 22.3051 3.11484 21.9957C2.91797 21.6863 2.65078 21.2152 2.51016 20.941C2.37656 20.6668 2.15156 20.1184 2.01094 19.7105C1.87031 19.3027 1.6875 18.6629 1.61719 18.2832C1.51172 17.784 1.37812 17.4043 1.11797 16.884C0.921094 16.4832 0.646875 15.8293 0.513281 15.4215C0.372656 15.0137 0.203906 14.3738 0.133594 13.9941C0.0492187 13.5652 0 13.0027 0 12.4895C0 12.0324 0.0421875 11.3926 0.105469 11.0621C0.161719 10.7316 0.295313 10.1973 0.407813 9.8668C0.520312 9.53633 0.717188 9.06524 0.84375 8.81211C0.970312 8.55899 1.21641 8.13008 1.39219 7.86289C1.56094 7.5957 1.90547 7.13164 2.14453 6.84336C2.38359 6.55508 2.79844 6.11211 3.06562 5.85898C3.33281 5.60586 3.85313 5.16992 4.21875 4.88164C4.58437 4.60039 5.16094 4.19961 5.50547 3.98867C5.84297 3.77773 6.55313 3.39102 7.0875 3.12383C7.61484 2.85664 8.47969 2.48398 9 2.28711C9.52031 2.09023 10.4273 1.80195 11.0039 1.64727C11.5875 1.49258 12.4875 1.28164 13.0078 1.19023C13.5281 1.0918 14.4 0.965234 14.9414 0.908984C15.4828 0.845703 16.1156 0.782422 16.3477 0.768359C16.5797 0.754297 17.5289 0.754297 18.457 0.768359ZM14.2031 1.71055C13.6406 1.78789 12.818 1.93555 12.375 2.03398C11.932 2.13242 11.1867 2.3293 10.7227 2.46289C10.2586 2.59648 9.43594 2.87773 8.89453 3.08867C8.35312 3.30664 7.54453 3.67227 7.10156 3.9043C6.65859 4.1293 5.89922 4.58633 5.41406 4.90977C4.92891 5.2332 4.26797 5.73945 3.9375 6.0207C3.60703 6.30899 3.12188 6.8082 2.84766 7.12461C2.58047 7.44102 2.23594 7.88399 2.08828 8.10195C1.94063 8.31992 1.68047 8.76289 1.51875 9.09336C1.35 9.42383 1.13203 9.93008 1.03359 10.2184C0.942187 10.5066 0.822656 10.9988 0.773438 11.3082C0.710156 11.6738 0.696094 12.1941 0.724219 12.7848C0.752344 13.4738 0.808594 13.8535 0.942187 14.3316C1.04766 14.6762 1.26562 15.2527 1.43437 15.5973C1.59609 15.9418 1.88437 16.448 2.06016 16.7223C2.24297 16.9965 2.60859 17.4676 2.87578 17.777C3.14297 18.0863 3.62109 18.5574 3.9375 18.8316C4.25391 19.1059 4.76719 19.5066 5.08359 19.7387C5.4 19.9637 5.9625 20.3223 6.32812 20.5402C6.69375 20.7582 7.29844 21.0746 7.66406 21.2434C8.02969 21.4191 8.69766 21.7004 9.14062 21.8691C9.58359 22.0379 10.3148 22.284 10.7578 22.4176C11.2008 22.5441 11.932 22.727 12.375 22.8324C12.818 22.9309 13.6266 23.0715 14.168 23.1559C14.7094 23.2332 15.7852 23.3316 16.5586 23.3809C17.6344 23.4441 18.3023 23.4441 19.4062 23.3809C20.2008 23.3316 21.2906 23.2332 21.832 23.1559C22.3734 23.0715 23.3086 22.8957 23.9062 22.7551C24.5039 22.6215 25.4109 22.3684 25.9102 22.2066C26.4094 22.0379 27.2039 21.7426 27.668 21.5387C28.132 21.3418 28.7789 21.0324 29.1094 20.8566C29.4398 20.6809 29.9742 20.3645 30.3047 20.1535C30.6352 19.9355 31.1063 19.6051 31.3594 19.4082C31.6125 19.2113 32.0133 18.8738 32.2594 18.6629C32.5055 18.4449 32.9133 18.0231 33.1734 17.7137C33.4336 17.4113 33.7852 16.9543 33.9539 16.6941C34.1297 16.441 34.4039 15.9418 34.5656 15.5973C34.7344 15.2527 34.9523 14.6762 35.0578 14.3316C35.1914 13.8535 35.2477 13.4738 35.2758 12.7848C35.3039 12.1941 35.2898 11.6738 35.2266 11.3082C35.1773 10.9988 35.0578 10.5066 34.9664 10.2184C34.868 9.93008 34.65 9.42383 34.4813 9.09336C34.3195 8.76289 34.0594 8.31992 33.9117 8.10195C33.7641 7.88399 33.4266 7.44102 33.1523 7.12461C32.8781 6.8082 32.393 6.30899 32.0625 6.0207C31.732 5.73242 31.0711 5.2332 30.5859 4.90977C30.1008 4.58633 29.3414 4.1293 28.8984 3.9043C28.4555 3.67227 27.6469 3.30664 27.1055 3.08867C26.5641 2.87773 25.7414 2.58945 25.2773 2.45586C24.8133 2.32227 24.068 2.13945 23.625 2.03398C23.182 1.93555 22.3734 1.79492 21.832 1.71758C21.2906 1.64023 20.3906 1.5418 19.8281 1.49961C19.2656 1.46445 18.3656 1.43633 17.8242 1.44336C17.2828 1.44336 16.4742 1.47852 16.0312 1.50664C15.5883 1.5418 14.7656 1.6332 14.2031 1.71055ZM2.74922 19.7105C2.82656 19.9215 3.06562 20.4277 3.27656 20.8355C3.4875 21.2434 3.86719 21.8621 4.11328 22.2066C4.35938 22.5582 4.84453 23.1348 5.18203 23.5004C5.51953 23.866 6.11719 24.4145 6.50391 24.7238C6.89062 25.0332 7.46016 25.4551 7.76953 25.659C8.07891 25.8629 8.69766 26.2145 9.14062 26.4535C9.58359 26.6855 10.3148 27.023 10.7578 27.1988C11.2008 27.3746 11.9461 27.6348 12.4102 27.7684C12.8742 27.902 13.5562 28.0707 13.9219 28.148C14.2875 28.2254 14.9695 28.3309 15.4336 28.3941C15.8977 28.4574 16.7695 28.5207 17.3672 28.5488C18.007 28.5699 18.8789 28.5559 19.4766 28.5066C20.0391 28.4574 20.9391 28.3449 21.4805 28.2535C22.0219 28.1621 22.8586 27.9723 23.3438 27.8457C23.8289 27.7121 24.6023 27.452 25.0664 27.2691C25.5305 27.0863 26.3039 26.7348 26.7891 26.4816C27.2742 26.2285 27.9211 25.8629 28.2305 25.659C28.5398 25.4551 29.1234 25.0262 29.5242 24.6957C29.932 24.3723 30.5227 23.8238 30.8461 23.4723C31.1695 23.1277 31.6336 22.5512 31.8867 22.2066C32.1328 21.8621 32.5125 21.2434 32.7234 20.8355C32.9344 20.4277 33.1734 19.9215 33.2508 19.7105C33.3281 19.4996 33.3844 19.3168 33.3773 19.3098C33.3703 19.3027 33.2086 19.4855 33.0117 19.7246C32.8219 19.9566 32.3297 20.4699 31.9219 20.8566C31.5141 21.2504 30.8672 21.8129 30.4805 22.1082C30.0938 22.4035 29.4469 22.8605 29.0391 23.1137C28.6313 23.3738 27.9352 23.7676 27.4922 23.9996C27.0492 24.2246 26.2898 24.5691 25.8047 24.759C25.3195 24.9559 24.532 25.2301 24.0469 25.3707C23.5617 25.5184 22.8023 25.7082 22.3594 25.7996C21.9164 25.891 21.1711 26.0105 20.707 26.0738C20.243 26.1371 19.3289 26.2074 18.668 26.2285C17.9508 26.2496 17.0508 26.2355 16.418 26.1863C15.8414 26.1371 14.9836 26.0387 14.5195 25.9613C14.0555 25.884 13.2961 25.7293 12.832 25.6098C12.368 25.4973 11.6227 25.2793 11.1797 25.1246C10.7367 24.977 10.0406 24.7027 9.63281 24.527C9.225 24.3512 8.56406 24.0277 8.15625 23.8098C7.74844 23.5988 7.07344 23.191 6.64453 22.9098C6.22266 22.6285 5.54063 22.1293 5.13281 21.7988C4.725 21.4684 4.09219 20.8918 3.72656 20.5121C3.35391 20.1254 2.95312 19.6895 2.82656 19.5348C2.7 19.3801 2.60156 19.2676 2.60156 19.2887C2.60156 19.3098 2.66484 19.4996 2.74922 19.7105ZM5.13281 20.8707C5.49844 21.1871 6.08906 21.6512 6.43359 21.9043C6.78516 22.1504 7.31953 22.509 7.62891 22.6988C7.93828 22.8887 8.55703 23.2191 9 23.4441C9.44297 23.6691 10.1742 23.9926 10.6172 24.1684C11.0602 24.3441 11.8055 24.5902 12.2695 24.7238C12.7336 24.8574 13.4297 25.0332 13.8164 25.1176C14.2031 25.1949 14.9133 25.3145 15.3984 25.3848C16.0383 25.4691 16.7484 25.5043 18 25.5043C19.2516 25.5043 19.9617 25.4691 20.6016 25.3848C21.0867 25.3145 21.7969 25.1949 22.1836 25.1105C22.5703 25.0332 23.2172 24.8715 23.625 24.759C24.0328 24.6465 24.6656 24.4426 25.0312 24.302C25.3969 24.1613 25.9875 23.9223 26.332 23.7676C26.6836 23.6129 27.2812 23.3105 27.668 23.0996C28.0547 22.8887 28.7367 22.4668 29.1797 22.1645C29.6227 21.8691 30.3328 21.3207 30.7617 20.9551C31.1906 20.5895 31.5984 20.2168 31.6758 20.1324C31.7531 20.041 31.5984 20.1324 31.3242 20.3223C31.05 20.5191 30.6211 20.8074 30.3609 20.9691C30.0938 21.1238 29.5102 21.4402 29.0602 21.6723C28.6031 21.8973 27.9633 22.1926 27.6328 22.3332C27.3023 22.4668 26.7047 22.6918 26.2969 22.8254C25.8891 22.959 25.193 23.1699 24.75 23.2895C24.307 23.409 23.5125 23.5777 22.9922 23.6762C22.4719 23.7746 21.5859 23.9012 21.0234 23.9645C20.4609 24.0207 19.4344 24.091 18.7383 24.1191C18.0141 24.1402 16.9805 24.1262 16.3125 24.077C15.6727 24.0277 14.7867 23.9434 14.3438 23.8871C13.9008 23.8309 13.0781 23.6902 12.5156 23.5777C11.9531 23.4652 11.1164 23.2613 10.6523 23.1207C10.1883 22.9871 9.46406 22.748 9.03516 22.5934C8.61328 22.4387 7.79063 22.0801 7.20703 21.7988C6.63047 21.5105 5.88516 21.1168 5.55469 20.9129C5.22422 20.709 4.78125 20.4137 4.57031 20.252C4.35938 20.0973 4.24687 20.041 4.32422 20.1254C4.40156 20.2168 4.76719 20.5473 5.13281 20.8707ZM18.3867 2.02695C19.5609 2.04805 20.2711 2.09727 20.9883 2.20273C21.5297 2.28711 22.3031 2.42773 22.7109 2.52617C23.1187 2.62461 23.7164 2.78633 24.0469 2.88477C24.3773 2.9832 24.9891 3.2082 25.418 3.37695C25.8469 3.5457 26.4937 3.84805 26.8594 4.04492C27.225 4.2418 27.7945 4.5793 28.125 4.79727C28.4555 5.01523 28.9898 5.41602 29.3203 5.69024C29.6508 5.96445 30.0867 6.37227 30.2977 6.6043C30.5086 6.8293 30.818 7.20899 30.9937 7.44102C31.1625 7.67305 31.4156 8.05274 31.5492 8.28477C31.6828 8.5168 31.9078 8.97383 32.0414 9.3043C32.175 9.63477 32.3508 10.1832 32.4281 10.5348C32.5195 10.9637 32.5617 11.4418 32.5617 12.0113C32.5617 12.5246 32.5195 13.073 32.4492 13.4176C32.3789 13.727 32.2383 14.2332 32.1258 14.5426C32.0133 14.852 31.7812 15.3582 31.6055 15.6676C31.4297 15.977 31.1133 16.448 30.9023 16.7223C30.6984 16.9965 30.2484 17.4816 29.9039 17.8121C29.5664 18.1426 29.0461 18.5855 28.7578 18.8035C28.4695 19.0145 27.9914 19.3379 27.7031 19.5207C27.4148 19.6965 26.782 20.034 26.2969 20.266C25.8117 20.498 25.0383 20.8145 24.5742 20.9762C24.1102 21.1379 23.3508 21.3629 22.8867 21.4754C22.4227 21.5879 21.6 21.7496 21.0586 21.834C20.2078 21.9676 19.793 21.9887 18 21.9887C16.207 21.9887 15.7922 21.9676 14.9414 21.834C14.4 21.7496 13.5773 21.5879 13.1133 21.4754C12.6492 21.3629 11.8898 21.1379 11.4258 20.9762C10.9617 20.8145 10.1883 20.498 9.70312 20.266C9.21797 20.034 8.58516 19.6965 8.29688 19.5207C8.00859 19.3379 7.53047 19.0145 7.24219 18.8035C6.95391 18.5855 6.43359 18.1426 6.09609 17.8121C5.75156 17.4816 5.30156 16.9965 5.09766 16.7223C4.88672 16.448 4.57031 15.977 4.39453 15.6676C4.21875 15.3582 3.98672 14.852 3.87422 14.5426C3.76172 14.2332 3.62109 13.727 3.55078 13.4176C3.48047 13.073 3.43828 12.5246 3.43828 12.0113C3.43828 11.4348 3.48047 10.9637 3.57891 10.5348C3.64922 10.1832 3.81094 9.64883 3.9375 9.33945C4.06406 9.03008 4.28203 8.57305 4.42969 8.31992C4.57734 8.0668 4.8375 7.67305 5.00625 7.44102C5.18203 7.20899 5.49141 6.8293 5.70234 6.6043C5.91328 6.37227 6.34922 5.96445 6.67969 5.69024C7.01016 5.41602 7.54453 5.0082 7.875 4.79727C8.20547 4.5793 8.73984 4.25586 9.07031 4.08008C9.40078 3.9043 9.92109 3.65117 10.2305 3.51758C10.5398 3.38398 11.1727 3.15195 11.6367 2.99023C12.1008 2.83555 12.8461 2.63164 13.2891 2.52617C13.732 2.42773 14.4141 2.30117 14.8008 2.23789C15.1875 2.17461 15.7922 2.09727 16.1367 2.06211C16.4813 2.02695 17.5008 2.01289 18.3867 2.02695ZM15.6445 2.84258C15.2578 2.87773 14.5617 2.99023 14.0977 3.08164C13.6336 3.17305 12.9234 3.34883 12.5156 3.46133C12.1078 3.58086 11.4609 3.79883 11.0742 3.94649C10.6875 4.10117 10.0547 4.38242 9.66797 4.5793C9.28125 4.76914 8.68359 5.1207 8.33203 5.3457C7.9875 5.57773 7.50938 5.92227 7.27734 6.11914C7.04531 6.31602 6.74297 6.57617 6.60938 6.6957C6.46172 6.8293 6.62344 6.75195 7.03125 6.48477C7.39687 6.2457 8.05078 5.88008 8.47266 5.66914C8.90156 5.45117 9.59062 5.1418 10.0195 4.97305C10.4484 4.81133 11.1867 4.5582 11.6719 4.41758C12.157 4.27695 12.9305 4.08711 13.3945 3.9957C13.8586 3.9043 14.632 3.7707 15.1172 3.70039C15.7781 3.60899 16.4813 3.58086 17.9648 3.58086C19.4414 3.58086 20.1586 3.60899 20.8477 3.70039C21.3469 3.7707 22.1414 3.9043 22.6055 3.9957C23.0695 4.08711 23.843 4.27695 24.3281 4.41758C24.8133 4.5582 25.5516 4.81133 25.9805 4.97305C26.4094 5.1418 27.0984 5.45117 27.5273 5.66914C27.9562 5.88008 28.6031 6.2457 28.9688 6.48477C29.3766 6.75195 29.5383 6.8293 29.3906 6.6957C29.257 6.57617 28.9547 6.31602 28.7227 6.11914C28.4906 5.92227 28.0125 5.57773 27.668 5.3457C27.3234 5.1207 26.7047 4.76211 26.2969 4.5582C25.8891 4.36133 25.2563 4.08008 24.8906 3.93945C24.525 3.79883 23.9555 3.60195 23.625 3.50352C23.2945 3.40508 22.6828 3.25039 22.2539 3.15195C21.825 3.06055 21.1148 2.93398 20.6719 2.8707C20.2289 2.80742 19.1812 2.74414 18.3516 2.73008C17.5219 2.71602 16.7273 2.72305 16.5938 2.73711C16.4602 2.75117 16.0312 2.80039 15.6445 2.84258ZM15.1523 4.42461C14.6531 4.48086 13.8586 4.61445 13.3945 4.71289C12.9305 4.8043 12.1852 4.99414 11.7422 5.13477C11.2992 5.26836 10.568 5.52148 10.125 5.69727C9.68203 5.86602 8.98594 6.18945 8.57812 6.40039C8.17031 6.61836 7.60078 6.94883 7.3125 7.1457C7.02422 7.34258 6.56719 7.68008 6.29297 7.89805C6.02578 8.11602 5.60391 8.5168 5.35781 8.78399C5.11172 9.05117 4.78828 9.5082 4.64062 9.79649C4.49297 10.0848 4.31719 10.5418 4.25391 10.816C4.19063 11.0973 4.14141 11.6105 4.14141 12.0113C4.14141 12.398 4.18359 12.9254 4.23281 13.1855C4.28203 13.4457 4.34531 13.6426 4.38047 13.6215C4.40859 13.6074 4.42969 13.4105 4.42969 13.1855C4.42266 12.8973 4.45781 12.7496 4.54922 12.6582C4.64062 12.5668 4.73203 12.5387 4.87266 12.5668C4.99219 12.5949 5.07656 12.6652 5.10469 12.7637C5.13281 12.8551 5.13281 13.2207 5.10469 13.5723C5.06953 14.1699 5.04844 14.2332 4.88672 14.3316C4.78828 14.3879 4.68281 14.423 4.64062 14.402C4.59844 14.3809 4.59141 14.423 4.63359 14.5215C4.66172 14.6129 4.78828 14.873 4.90781 15.1051C5.02734 15.3371 5.28047 15.7449 5.47031 16.0191C5.66016 16.2934 5.98359 16.6871 6.18047 16.898L6.53906 17.2848C6.15234 16.6309 5.95547 16.202 5.84297 15.9137C5.73047 15.6254 5.60391 15.1684 5.55469 14.8941C5.49844 14.5918 5.47734 14.1207 5.49844 13.6637C5.52656 13.0871 5.58984 12.7777 5.75859 12.2574C5.88516 11.8918 6.10313 11.3855 6.25078 11.1324C6.39844 10.8793 6.70781 10.4363 6.93984 10.148C7.17188 9.85977 7.62891 9.3957 7.95234 9.12148C8.27578 8.84727 8.81016 8.44649 9.14062 8.22852C9.47109 8.01758 9.97734 7.7293 10.2656 7.58164C10.5539 7.43399 11.1094 7.19492 11.4961 7.04024C11.8828 6.89258 12.5297 6.67461 12.9375 6.56211C13.3453 6.44258 13.9922 6.28789 14.3789 6.21055C14.7656 6.14023 15.4477 6.0418 15.8906 5.99961C16.3336 5.95742 16.9031 5.88711 17.1562 5.84492C17.4094 5.80274 17.7891 5.76758 18 5.76758C18.2109 5.76758 18.6258 5.80274 18.9141 5.84492C19.2023 5.88711 19.8703 5.97149 20.3906 6.03477C20.9109 6.09805 21.7055 6.22461 22.1484 6.32305C22.5914 6.42149 23.3367 6.63242 23.8008 6.78711C24.2648 6.9418 24.9961 7.23008 25.418 7.43398C25.8469 7.63086 26.4797 7.98242 26.8242 8.20742C27.1758 8.43242 27.7102 8.8332 28.0195 9.08633C28.3289 9.34649 28.7859 9.81055 29.032 10.1199C29.2781 10.4223 29.6016 10.8793 29.7492 11.1324C29.8969 11.3855 30.1148 11.8918 30.2414 12.2574C30.4242 12.8059 30.4734 13.066 30.4945 13.734C30.5227 14.3949 30.5016 14.6551 30.382 15.1543C30.3047 15.4988 30.143 15.9699 30.0375 16.209C29.925 16.4551 29.7492 16.7926 29.6438 16.9684L29.4539 17.2848C30.0164 16.6871 30.3398 16.2934 30.5297 16.0191C30.7195 15.7449 30.9727 15.3371 31.0922 15.1051C31.2117 14.873 31.3383 14.6129 31.3664 14.5215C31.4086 14.423 31.4016 14.3809 31.3594 14.402C31.3242 14.423 31.2117 14.3879 31.1133 14.3316C30.9516 14.2332 30.9305 14.1699 30.8953 13.5723C30.8672 13.2207 30.8672 12.8551 30.8953 12.7637C30.9234 12.6652 31.0078 12.5949 31.1344 12.5668C31.268 12.5387 31.3594 12.5668 31.4508 12.6582C31.5422 12.7496 31.5773 12.8973 31.5703 13.1855C31.5703 13.4105 31.5914 13.5934 31.6266 13.5934C31.6547 13.5934 31.718 13.4105 31.7672 13.1926C31.8164 12.9676 31.8586 12.4543 31.8586 12.0465C31.8586 11.6035 31.8164 11.1113 31.7461 10.816C31.6828 10.5418 31.507 10.0848 31.3594 9.79649C31.2117 9.5082 30.8883 9.05117 30.6422 8.78399C30.3961 8.5168 29.9813 8.11602 29.707 7.89805C29.4328 7.68008 28.9758 7.34258 28.6875 7.1457C28.3992 6.94883 27.8297 6.61836 27.4219 6.40039C27.0141 6.18945 26.318 5.86602 25.875 5.69727C25.432 5.52148 24.6867 5.26133 24.2227 5.1207C23.7586 4.98008 22.9992 4.79024 22.5352 4.69883C22.0711 4.60742 21.3258 4.48086 20.8828 4.41758C20.3977 4.34727 19.3992 4.29805 18.3867 4.28398C17.4586 4.26992 16.5586 4.26992 16.3828 4.28398C16.207 4.29805 15.6586 4.36133 15.1523 4.42461ZM17.4375 6.92773C17.4375 7.01914 17.5008 7.20195 17.5852 7.33555C17.6766 7.49024 17.7117 7.64492 17.6906 7.73633C17.6695 7.82773 17.5711 7.91914 17.4656 7.94727L17.2828 8.00352C17.332 9.52227 17.332 9.5293 17.5641 9.7332C17.7047 9.85977 17.8664 9.93711 18 9.93711C18.1336 9.93711 18.2953 9.85977 18.443 9.7332C18.668 9.5293 18.668 9.52227 18.6961 8.76289L18.7172 8.00352C18.4289 7.91914 18.3305 7.82773 18.3094 7.73633C18.2883 7.64492 18.3234 7.49024 18.4148 7.33555C18.4992 7.20195 18.5625 7.01914 18.5625 6.92773C18.5625 6.84336 18.4852 6.6957 18.3867 6.59727C18.2742 6.48477 18.1336 6.42149 18 6.42149C17.8594 6.42149 17.7188 6.48477 17.6133 6.59727C17.5219 6.68867 17.4445 6.83633 17.4375 6.92773ZM15.0117 6.87852C15.0117 6.91367 15.0609 7.10352 15.1172 7.28633C15.1734 7.46914 15.2578 7.6168 15.293 7.6168C15.3352 7.6168 15.5109 7.5957 15.7008 7.56758C15.9961 7.51836 16.0312 7.49024 16.0312 7.33555C16.0312 7.23711 16.0102 7.0543 15.982 6.92773C15.9328 6.73789 15.8977 6.70274 15.75 6.70977C15.6516 6.7168 15.4477 6.74492 15.293 6.76602C15.1383 6.78711 15.0117 6.83633 15.0117 6.87852ZM20.018 6.92773C19.9898 7.0543 19.9688 7.24414 19.9688 7.34961C19.9688 7.53945 19.9898 7.54649 20.3766 7.58164C20.5945 7.60274 20.7773 7.6168 20.7844 7.60274C20.7914 7.58867 20.8406 7.41992 20.9109 7.23008C20.9742 7.0332 21.0023 6.85742 20.9672 6.83633C20.9391 6.8082 20.7281 6.76602 20.4961 6.73789L20.0672 6.68867L20.018 6.92773ZM13.4297 7.13164C13.8797 7.85586 13.9922 7.96836 14.0625 7.94024C14.1187 7.91211 14.2594 7.87695 14.3648 7.86289L14.5547 7.83477C14.3156 7.10352 14.2453 6.99102 14.1539 6.99805C14.0836 6.99805 13.8938 7.0332 13.732 7.06836L13.4297 7.13164ZM21.4453 7.83477C21.7406 7.87695 21.8742 7.91211 21.9375 7.94024C22.0078 7.96836 22.1203 7.85586 22.3031 7.55352L22.5703 7.13164C22.0219 7.01914 21.8391 6.99102 21.7969 6.99102C21.7617 6.99102 21.6703 7.18086 21.5859 7.41289L21.4453 7.83477ZM12.0797 7.60977C12.0938 7.63789 12.2133 7.83477 12.3609 8.05274L12.6211 8.44649L13.2188 8.18633C12.9375 7.66602 12.818 7.4832 12.7688 7.44102C12.7125 7.37774 12.607 7.38477 12.382 7.46211C12.2063 7.51836 12.0727 7.58164 12.0797 7.60977ZM23.1047 7.60977C23.0203 7.75039 22.9078 7.94024 22.8656 8.02461C22.7883 8.17227 22.8094 8.19336 23.0836 8.31289C23.2453 8.39023 23.3859 8.44649 23.3859 8.43945C23.393 8.43242 23.5266 8.24258 23.6812 8.01055L23.9695 7.58867L23.2594 7.34961L23.1047 7.60977ZM10.8352 8.11602C11.3484 8.77695 11.5102 8.9668 11.5172 8.95977C11.5312 8.95977 11.6297 8.91055 11.7492 8.8543L11.9602 8.74883C11.5664 8.12305 11.4328 7.91914 11.4047 7.89102C11.3766 7.86992 11.2359 7.90508 11.0953 7.98242L10.8352 8.11602ZM24.2859 8.37617L24.0539 8.74883C24.3773 8.91055 24.4828 8.95977 24.4898 8.95977C24.5039 8.95977 24.6586 8.76992 24.8414 8.53789L25.1789 8.11602C24.6867 7.86992 24.6094 7.85586 24.5672 7.91914C24.5391 7.96836 24.4125 8.1793 24.2859 8.37617ZM14.9836 8.44649C14.5406 8.54492 13.9078 8.7207 13.5773 8.8332C13.2469 8.95274 12.6914 9.1918 12.3469 9.36055C11.9953 9.53633 11.5242 9.81055 11.2922 9.96523C11.0602 10.1199 10.7016 10.3941 10.4906 10.5699C10.2797 10.7457 9.93516 11.0973 9.73125 11.3504C9.52031 11.6035 9.23203 12.0465 9.08437 12.3348C8.93672 12.623 8.76094 13.1152 8.69063 13.4246C8.59922 13.8324 8.57812 14.1418 8.60625 14.5496C8.62734 14.859 8.71172 15.316 8.79609 15.5691C8.88047 15.8223 9.07734 16.2441 9.23906 16.5184C9.40078 16.7855 9.73828 17.2285 9.99141 17.4957C10.2445 17.7629 10.6875 18.1566 10.9758 18.3746C11.2641 18.5926 11.8477 18.9512 12.2766 19.1621C12.6984 19.3801 13.3945 19.6754 13.8234 19.816C14.2453 19.9566 14.9133 20.1324 15.3 20.2098C15.6867 20.2871 16.4602 20.3855 17.0227 20.4277C17.7961 20.491 18.2742 20.498 18.9914 20.4348C19.5117 20.3926 20.2852 20.2871 20.7141 20.2027C21.1359 20.1254 21.818 19.9426 22.2258 19.809C22.6336 19.6754 23.3086 19.3871 23.7375 19.1691C24.1594 18.9512 24.75 18.5926 25.0383 18.3746C25.3266 18.1566 25.7555 17.777 25.9945 17.5309C26.2336 17.2848 26.5359 16.9051 26.6695 16.6941C26.8102 16.4832 26.9719 16.1809 27.0422 16.0262C27.1055 15.8715 27.2039 15.6043 27.2602 15.4285C27.3164 15.2527 27.3797 14.859 27.4008 14.5496C27.4289 14.1629 27.4078 13.8184 27.3305 13.4598C27.2672 13.1715 27.0984 12.6793 26.9438 12.3699C26.7891 12.0605 26.4797 11.5824 26.2477 11.3152C26.0156 11.041 25.6781 10.6965 25.4883 10.5348C25.2984 10.3801 24.9539 10.1199 24.7219 9.96523C24.4898 9.81055 23.9977 9.5293 23.632 9.34649C23.2664 9.16367 22.6477 8.90352 22.2609 8.77695C21.8742 8.65039 21.2555 8.48164 20.8898 8.4043C20.5242 8.32695 20.0391 8.24961 19.8141 8.22852L19.4133 8.18633V8.74883C20.475 8.92461 21.15 9.09336 21.593 9.24102C22.0359 9.38164 22.6055 9.60664 22.8586 9.7332C23.1117 9.85977 23.5477 10.1199 23.8359 10.3238C24.1172 10.5207 24.5883 10.9285 24.8695 11.2238C25.2563 11.6246 25.4602 11.927 25.6641 12.3488C25.8188 12.6723 25.9734 13.1012 26.0156 13.298C26.0578 13.502 26.093 13.8465 26.093 14.0574C26.093 14.2684 26.0578 14.6129 26.0156 14.8098C25.9734 15.0137 25.8117 15.4496 25.657 15.7801C25.4109 16.2863 25.2633 16.4832 24.6938 17.0457C24.2367 17.4957 23.8289 17.8262 23.4211 18.0582C23.0906 18.2551 22.5703 18.5152 22.2609 18.6348C21.9516 18.7613 21.3961 18.9441 21.0305 19.0426C20.6648 19.148 20.0039 19.2746 19.568 19.3309C19.1391 19.3871 18.4289 19.4363 18.007 19.4363C17.5781 19.4363 16.875 19.3871 16.4391 19.3309C16.0102 19.2746 15.3492 19.148 14.9836 19.0426C14.618 18.9441 14.0625 18.7613 13.7531 18.6348C13.4438 18.5152 12.9234 18.2551 12.593 18.0582C12.1852 17.8191 11.7844 17.5027 11.3273 17.0457C10.8422 16.5676 10.582 16.2371 10.3992 15.8855C10.2586 15.6113 10.0898 15.1895 10.0336 14.9363C9.97031 14.6832 9.92109 14.2895 9.92109 14.0574C9.92109 13.8254 9.97031 13.4387 10.0266 13.1926C10.0828 12.9535 10.2234 12.5738 10.3359 12.3488C10.4555 12.1309 10.6102 11.8496 10.6875 11.7371C10.7719 11.6176 11.018 11.3363 11.2359 11.1113C11.4609 10.8863 11.8617 10.5418 12.1359 10.352C12.4031 10.1551 12.8461 9.88789 13.1203 9.7543C13.3875 9.61367 13.9781 9.38164 14.4211 9.24102C14.8641 9.09336 15.5391 8.92461 15.9117 8.86133L16.6008 8.74883C16.6008 8.20742 16.5867 8.18633 16.4039 8.19336C16.2984 8.20039 16.1156 8.22149 16.0031 8.23555C15.8836 8.24961 15.4266 8.34805 14.9836 8.44649ZM9.56953 8.79805C9.54844 8.80508 9.73125 9.01602 9.97031 9.25508L10.4062 9.69805L10.9055 9.38164C10.3852 8.67852 10.2023 8.47461 10.1672 8.46758C10.125 8.46758 9.98438 8.53789 9.85078 8.62227C9.71719 8.70664 9.59063 8.78399 9.56953 8.79805ZM25.1086 9.38164C25.5164 9.64883 25.6359 9.71914 25.6359 9.71211C25.6359 9.69805 25.8258 9.50117 26.0578 9.26211L26.4797 8.8332C26.0438 8.55195 25.882 8.46758 25.8469 8.46758C25.8047 8.46758 25.6289 8.67852 25.4391 8.92461L25.1086 9.38164ZM8.51484 9.59258C9.58359 10.4223 9.61172 10.4363 9.73125 10.3168C9.85078 10.1973 9.85078 10.1832 9.66094 9.9793C9.55547 9.8668 9.35859 9.64883 9.225 9.5082C9.08437 9.36055 8.95781 9.24102 8.93672 9.24102C8.92266 9.24805 8.81719 9.32539 8.71172 9.42383L8.51484 9.59258ZM26.3531 9.9793C26.1703 10.1762 26.1633 10.1902 26.2828 10.3098C26.4023 10.4293 26.4305 10.4152 26.9508 10.0145L27.4992 9.59258C27.1688 9.31836 27.0703 9.24102 27.0562 9.24102C27.0422 9.24102 26.9227 9.35352 26.7891 9.50117C26.6555 9.64883 26.4586 9.85977 26.3531 9.9793ZM16.1227 9.57852C16.1367 9.61367 16.3336 9.88086 16.5656 10.1691C16.7977 10.4645 17.0086 10.7105 17.0367 10.7105C17.0719 10.7105 17.093 10.6191 17.1 10.4996C17.107 10.352 17.0438 10.2043 16.9172 10.0566C16.8117 9.93711 16.7062 9.74727 16.6781 9.6418C16.657 9.5293 16.5938 9.45195 16.5305 9.45899C16.4742 9.46602 16.3547 9.48008 16.2633 9.49414C16.1789 9.5082 16.1156 9.54336 16.1227 9.57852ZM19.1039 10.0637C18.9984 10.1973 18.9211 10.3801 18.9211 10.5066C18.9211 10.6191 18.9422 10.7105 18.9703 10.7105C19.0055 10.7105 19.2234 10.4574 19.4625 10.148C19.7086 9.83867 19.8984 9.57852 19.8844 9.56445C19.8773 9.54336 19.7578 9.5082 19.6242 9.48711C19.3922 9.43789 19.3711 9.45195 19.3289 9.63477C19.3078 9.74727 19.2023 9.93711 19.1039 10.0637ZM13.3664 10.4363C13.0008 10.6262 12.593 10.8652 12.4664 10.9777L12.2273 11.1746L15.7922 11.6035C16.207 11.1605 16.3195 11.0199 16.3195 11.0129C16.3195 11.0059 16.0945 10.7105 15.8273 10.366C15.5391 9.98633 15.2859 9.7332 15.2086 9.7332C15.1453 9.7332 14.85 9.81758 14.5617 9.91602C14.2734 10.0145 13.732 10.2465 13.3664 10.4363ZM19.6805 11.0129C19.6875 11.0199 19.807 11.1605 19.9547 11.3152L20.2219 11.6035L23.7867 11.1746C23.4211 10.8652 23.0133 10.6262 22.6477 10.4363C22.282 10.2465 21.7336 10.0145 21.4312 9.90899C21.1359 9.81055 20.8477 9.7332 20.7914 9.7332C20.7352 9.7332 20.4609 10.0145 20.1797 10.366C19.9055 10.7105 19.6734 11.0059 19.6805 11.0129ZM7.5375 10.5418L8.83125 11.3574C9.02109 11.1043 9.07734 11.0059 9.07734 10.9777C9.07734 10.9496 8.86641 10.7598 8.59922 10.5629C8.33906 10.359 8.09297 10.1691 8.05078 10.141C8.00859 10.1129 7.88203 10.1832 7.75547 10.3098L7.5375 10.5418ZM27.4641 10.5137C27.1617 10.7457 26.9156 10.9637 26.9227 10.9848C26.9367 11.0129 26.993 11.1113 27.0633 11.2027L27.1828 11.3645L28.4766 10.5418L28.0195 10.0918L27.4641 10.5137ZM17.7891 11.1957C17.7891 11.6035 17.8172 11.7582 17.8945 11.8285C17.9859 11.8988 18.0281 11.8988 18.1125 11.8285C18.1969 11.7582 18.225 11.6035 18.218 11.1957V10.6473H17.7961L17.7891 11.1957ZM6.79922 11.7863C6.83437 11.8074 7.17188 11.9551 7.55859 12.1098L8.26172 12.391C8.39531 12.0535 8.43047 11.9551 8.42344 11.948C8.40938 11.948 8.12813 11.7652 7.79063 11.5473C7.45312 11.3223 7.15078 11.1465 7.12266 11.1465C7.0875 11.1465 6.98906 11.2801 6.90469 11.4418C6.81328 11.6105 6.76406 11.7582 6.79922 11.7863ZM27.6187 11.934C27.5906 11.948 27.6047 12.0535 27.6539 12.173L27.7383 12.391C28.8281 11.9551 29.1727 11.8074 29.2078 11.7863C29.2359 11.7582 29.1938 11.6105 29.1023 11.4418C29.0109 11.2801 28.9055 11.1465 28.8633 11.1465C28.8281 11.1535 28.5398 11.3223 28.2305 11.5332C27.9211 11.7441 27.6469 11.927 27.6187 11.934ZM16.3969 12.2082C16.3898 12.3137 16.4883 12.4684 16.65 12.623C16.8047 12.7707 17.0508 12.9113 17.2617 12.9676C17.4586 13.0238 17.7891 13.066 18 13.066C18.218 13.066 18.5484 13.0238 18.7383 12.9676C18.9492 12.9113 19.1953 12.7707 19.357 12.623C19.5187 12.4613 19.6172 12.3137 19.6172 12.2012C19.6172 12.0887 19.5117 11.9199 19.35 11.7652C19.2094 11.6176 19.0547 11.498 19.0055 11.498C18.9562 11.498 18.9141 11.5754 18.9141 11.6738C18.9141 11.7652 18.8719 11.948 18.8156 12.0746C18.7523 12.2012 18.6047 12.3629 18.4781 12.4402C18.3516 12.5105 18.1406 12.5738 18 12.5738C17.8664 12.5738 17.6555 12.5105 17.5289 12.4402C17.4023 12.3629 17.2477 12.2012 17.1914 12.0746C17.1352 11.948 17.0859 11.7652 17.0859 11.6738C17.0859 11.5754 17.0508 11.498 17.0086 11.498C16.9664 11.498 16.8117 11.6176 16.6641 11.7723C16.5234 11.9199 16.3969 12.1168 16.3969 12.2082ZM11.3555 12.0184C11.2711 12.1379 11.1164 12.391 11.0109 12.5879C10.9125 12.7777 10.7789 13.1082 10.7227 13.3262C10.6664 13.5371 10.6242 13.8605 10.6172 14.0434C10.6172 14.2262 10.6594 14.5285 10.7016 14.7113C10.7437 14.8941 10.793 15.0559 10.807 15.0629C10.8211 15.077 11.8688 14.6199 13.1344 14.0504C14.4 13.4879 15.532 12.9746 15.6586 12.9113C15.8766 12.7988 15.8766 12.7918 15.7781 12.5527L15.6797 12.3066C14.4563 12.159 13.5211 12.0465 12.8109 11.9621L11.5172 11.8004L11.3555 12.0184ZM20.3273 12.3066C20.1305 12.7988 20.1305 12.7988 20.3484 12.9113C20.468 12.9746 21.593 13.4879 22.8516 14.0504C24.1102 14.6199 25.1508 15.084 25.1719 15.084C25.193 15.084 25.2492 14.8871 25.3055 14.648C25.3617 14.3949 25.3898 14.0434 25.3687 13.8184C25.3477 13.6074 25.2703 13.2559 25.193 13.0449C25.1156 12.834 24.9258 12.4613 24.7641 12.2223C24.6023 11.9762 24.4617 11.7863 24.4547 11.7863C24.4406 11.7934 23.5125 11.9129 22.3805 12.0535L20.3273 12.3066ZM6.3 12.9395L6.25781 13.1504C7.37578 13.3473 7.75547 13.4176 7.82578 13.4387C7.91016 13.4598 7.95937 13.4105 7.9875 13.2699C8.00859 13.1645 8.01562 13.073 8.00156 13.066C7.99453 13.059 7.63594 12.9113 7.22109 12.7355C6.46172 12.4121 6.46172 12.4121 6.40547 12.5738C6.37031 12.6582 6.32812 12.8199 6.3 12.9395ZM27.9703 13.1785C27.9773 13.2348 28.0125 13.3262 28.0406 13.3684C28.0758 13.4316 28.2938 13.4176 28.8984 13.3051C29.3414 13.2277 29.7141 13.1574 29.7281 13.1574C29.7352 13.1504 29.7141 12.9816 29.6789 12.7777C29.6367 12.5738 29.5875 12.4121 29.5523 12.4191C29.5242 12.4191 29.1516 12.5668 28.7297 12.7426C28.1602 12.9746 27.9633 13.0941 27.9703 13.1785ZM11.2219 15.6957C11.1023 15.7449 11.1164 15.7871 11.4047 16.1387C11.5734 16.3496 11.9391 16.7082 12.2063 16.9332C12.5016 17.1793 13.0008 17.4887 13.4648 17.7207C13.8938 17.9246 14.3016 18.1145 14.3789 18.1355C14.5055 18.1707 14.6461 17.9176 15.6445 15.8645C16.7555 13.5793 16.7695 13.5512 16.6148 13.4738C16.5234 13.4316 16.418 13.3965 16.3687 13.4035C16.3195 13.4035 15.1734 13.9098 13.8164 14.5215C12.4664 15.1332 11.2992 15.6605 11.2219 15.6957ZM20.3414 15.8434C20.9531 17.109 21.4664 18.1496 21.4875 18.1566C21.5016 18.1707 21.7477 18.0793 22.0289 17.9668C22.3102 17.8473 22.7883 17.6082 23.0977 17.4254C23.4281 17.2355 23.8852 16.8699 24.1945 16.5605C24.4898 16.2723 24.7641 15.9699 24.8062 15.8926C24.8766 15.759 24.7219 15.6746 22.268 14.5707C20.8266 13.9238 19.6242 13.3965 19.582 13.3965C19.5469 13.4035 19.4484 13.4387 19.3711 13.4809C19.2375 13.5441 19.2937 13.6777 20.3414 15.8434ZM16.3406 16.0543C15.6164 17.5238 15.2508 18.3465 15.293 18.3887C15.3352 18.4238 15.6656 18.5082 16.0312 18.5715C16.5164 18.6629 17.0578 18.698 18 18.698C18.9422 18.698 19.4836 18.6629 19.9688 18.5715C20.3344 18.5012 20.6719 18.4168 20.707 18.3887C20.7563 18.3465 20.3766 17.5168 19.6523 16.0543L18.5273 13.7832H17.4516L16.3406 16.0543ZM6.19453 14.6621C7.30547 14.7816 7.68516 14.8238 7.75547 14.8449C7.86094 14.866 7.88203 14.8168 7.88203 14.5215C7.88203 14.3246 7.86797 14.1699 7.86094 14.1699C7.85391 14.1699 7.53047 14.1066 7.14375 14.0293C6.75703 13.952 6.38438 13.8887 6.31406 13.8887C6.21563 13.8887 6.19453 13.952 6.19453 14.2754V14.6621ZM28.5188 14.0996L28.1039 14.177C28.125 14.8168 28.1461 14.866 28.2516 14.8449C28.3219 14.8238 28.7016 14.7816 29.0953 14.7395L29.8195 14.6621C29.8195 13.8957 29.8125 13.8887 29.6227 13.8957C29.5172 13.8957 29.3203 13.9238 29.1867 13.959C29.0461 13.9871 28.7508 14.0504 28.5188 14.0996ZM6.49688 15.6605L6.58828 15.8926C7.77656 15.9629 8.13516 15.977 8.14219 15.9699C8.15625 15.9629 8.14922 15.8855 8.12813 15.7871C8.08594 15.6184 8.04375 15.6043 7.36875 15.5129C6.975 15.4637 6.59531 15.4074 6.53203 15.3863C6.46875 15.3723 6.4125 15.3723 6.4125 15.3934C6.40547 15.4145 6.44766 15.534 6.49688 15.6605ZM27.9422 15.5973C27.9352 15.6043 27.907 15.7027 27.8789 15.8223L27.8227 16.0332C28.357 15.9488 28.7156 15.9277 28.9547 15.9277C29.3906 15.9277 29.3977 15.9207 29.5031 15.6816C29.5594 15.548 29.6086 15.4215 29.6086 15.4004C29.6086 15.3793 29.5805 15.3652 29.5523 15.3723C29.5242 15.3793 29.1516 15.4285 28.7297 15.4848C28.3008 15.541 27.9492 15.5902 27.9422 15.5973ZM7.18594 16.9543C7.3125 17.1301 7.44609 17.2918 7.47422 17.3059C7.50234 17.3199 7.79766 17.2777 8.12813 17.2074C8.45859 17.1441 8.72578 17.0738 8.72578 17.0527C8.71875 17.0316 8.6625 16.9473 8.59922 16.8699C8.49375 16.7363 8.37422 16.7082 7.71328 16.673L6.94688 16.6309L7.18594 16.9543ZM27.3938 16.877C27.3305 16.9754 27.2953 17.0668 27.3023 17.0809C27.3164 17.0949 27.5766 17.1582 27.8859 17.2215C28.1953 17.2848 28.4695 17.334 28.4977 17.334C28.5258 17.334 28.6594 17.1723 28.8 16.9824L29.0461 16.6309C28.6875 16.652 28.343 16.666 28.0406 16.6801C27.5484 16.7012 27.4852 16.7152 27.3938 16.877ZM8.12813 17.9809C8.10703 18.009 8.22656 18.1355 8.38828 18.2551C8.67656 18.473 8.69766 18.4801 8.97188 18.3887C9.12656 18.3395 9.32344 18.2762 9.40781 18.241L9.56953 18.1777C9.3375 17.8262 9.23203 17.7559 9.12656 17.7629C9.04219 17.7699 8.78906 17.8051 8.57109 17.8543C8.35313 17.8965 8.15625 17.9527 8.12813 17.9809ZM26.4445 18.1777C26.6906 18.2762 26.8875 18.3395 27.0422 18.3887C27.3164 18.4801 27.3305 18.473 27.6258 18.241C27.7945 18.1074 27.9 17.9809 27.8719 17.9598C27.8367 17.9387 27.6047 17.8824 27.3586 17.8402C27.1055 17.791 26.8594 17.7559 26.8172 17.7559C26.768 17.7559 26.6695 17.8473 26.5852 17.9668L26.4445 18.1777ZM9.41484 19.0145C9.42188 19.0355 9.48516 19.0918 9.55547 19.134C9.61875 19.1762 9.85078 19.3098 10.0617 19.4293L10.4484 19.6402L11.0813 19.3238C10.4273 18.8738 10.1953 18.7402 10.132 18.7473C10.0758 18.7473 9.88594 18.8035 9.71719 18.8668C9.54141 18.9301 9.40781 18.9934 9.41484 19.0145ZM24.9328 19.3238L25.5656 19.6402C26.1703 19.3098 26.3953 19.1762 26.4656 19.134C26.5359 19.0918 26.5852 19.0426 26.5922 19.0215C26.5922 19.0004 26.4375 18.9301 26.2547 18.8598C26.0719 18.7965 25.8891 18.7402 25.8469 18.7402C25.8117 18.7402 25.5867 18.8738 25.3547 19.0355L24.9328 19.3238ZM11.2219 20.0199L12.3187 20.4559C12.5578 20.2168 12.6141 20.1324 12.593 20.1254C12.5789 20.1113 12.382 20.0199 12.1641 19.9215L11.7633 19.7316L11.2219 20.0199ZM23.8359 19.9215C23.632 20.027 23.4422 20.1184 23.4211 20.1254C23.407 20.1395 23.4562 20.2168 23.5477 20.3012L23.7023 20.4629L24.7922 20.0199L24.2156 19.7387L23.8359 19.9215ZM13.8586 20.8848C14.5055 21.0324 14.6742 21.0535 14.7023 20.9762C14.7164 20.927 14.7164 20.8637 14.7023 20.8496C14.6883 20.8285 14.4352 20.7371 14.1469 20.6527C13.8516 20.5684 13.5492 20.477 13.4719 20.4559C13.3805 20.4277 13.282 20.4699 13.1906 20.5543C13.05 20.6949 13.057 20.6949 13.8586 20.8848ZM21.4383 20.7723C21.368 20.7723 21.2977 20.8004 21.2836 20.8285C21.2695 20.8566 21.2766 20.9199 21.3047 20.9762C21.3398 21.0465 21.5156 21.0254 22.1555 20.8777C22.9641 20.6949 22.9641 20.6949 22.8234 20.5613C22.7461 20.484 22.6547 20.4207 22.6125 20.4277C22.5773 20.4348 22.3242 20.5121 22.05 20.6035C21.7828 20.6949 21.5086 20.7723 21.4383 20.7723ZM15.532 21.2012C15.6023 21.2012 15.8836 21.2293 16.1648 21.2574C16.5516 21.2926 16.6711 21.2855 16.6711 21.2152C16.6711 21.166 16.5586 21.1098 16.4109 21.0957C16.2633 21.0746 16.0031 21.0395 15.8273 21.0184C15.5742 20.9832 15.4969 20.9973 15.4547 21.0887C15.4266 21.166 15.4477 21.2012 15.532 21.2012ZM19.6734 21.0957C19.4695 21.1168 19.3289 21.173 19.3359 21.2223C19.343 21.2785 19.4836 21.2926 19.8562 21.2574C20.1375 21.2293 20.4187 21.2012 20.4891 21.2012C20.5664 21.2012 20.6016 21.159 20.5734 21.0957C20.5594 21.0324 20.468 20.9902 20.3836 20.9973C20.2992 20.9973 20.1797 21.0113 20.1164 21.0254C20.0602 21.0395 19.8562 21.0676 19.6734 21.0957ZM18.007 21.3418C18.3867 21.3418 18.6398 21.3066 18.6398 21.2715C18.6398 21.2293 18.3867 21.2012 18.007 21.2012C17.6344 21.2012 17.3742 21.2293 17.3742 21.2715C17.3742 21.3066 17.6344 21.3418 18.007 21.3418ZM18.0141 4.60742C18.5414 4.60742 18.7383 4.62852 18.8156 4.71289C18.8789 4.76914 18.9211 4.88164 18.9211 4.95898C18.9211 5.03633 18.8719 5.1418 18.8156 5.20508C18.7313 5.28242 18.5273 5.31055 18.007 5.31055C17.4797 5.31055 17.2828 5.28242 17.1984 5.20508C17.1422 5.1418 17.093 5.03633 17.093 4.95898C17.0859 4.88867 17.1352 4.77617 17.1984 4.71289C17.2898 4.62852 17.4797 4.60742 18.0141 4.60742ZM9.35859 6.23867C9.49922 6.25273 9.58359 6.35117 9.75938 6.7168C9.88594 6.96289 9.99141 7.23711 9.99141 7.31445C9.99141 7.3918 9.95625 7.49023 9.91406 7.53945C9.86484 7.58867 9.74531 7.63086 9.64687 7.63086C9.54844 7.63086 9.42891 7.5957 9.38672 7.53945C9.34453 7.49023 9.225 7.25117 9.11953 7.01211C9.01406 6.75898 8.95781 6.51992 8.98594 6.44961C9.01406 6.3793 9.07031 6.30195 9.1125 6.27383C9.15469 6.2457 9.26719 6.23164 9.35859 6.23867ZM26.6836 6.22461C26.768 6.22461 26.8805 6.25274 26.9367 6.28789C27 6.33008 27.0422 6.44258 27.0352 6.55508C27.0352 6.66055 26.9367 6.9418 26.8242 7.17383C26.6484 7.53242 26.5922 7.5957 26.4094 7.60977C26.2969 7.62383 26.1633 7.58867 26.107 7.53945C26.0578 7.49023 26.0227 7.40586 26.0227 7.34961C26.0227 7.28633 26.107 7.0543 26.2055 6.82227C26.3039 6.59024 26.4234 6.3582 26.4586 6.30898C26.5008 6.25977 26.5992 6.22461 26.6836 6.22461Z" fill="url(#paint0_linear_7534_14041)"/>
<defs>
<linearGradient id="paint0_linear_7534_14041" x1="15.1645" y1="1.77621" x2="34.3485" y2="15.3977" gradientUnits="userSpaceOnUse">
<stop stop-color="#FE7F37"/>
<stop offset="1" stop-color="#FF4B4B"/>
</linearGradient>
</defs>
</svg>
