<svg width="23" height="28" viewBox="0 0 23 28" fill="none" xmlns="http://www.w3.org/2000/svg">
<g filter="url(#filter0_d_7534_9466)">
<path d="M10.7888 4.21385C11.2184 3.92872 11.7807 3.92872 12.2102 4.21385L12.9053 4.67085C13.1396 4.82319 13.413 4.8974 13.6902 4.88178L14.522 4.831C15.0374 4.79975 15.5217 5.08098 15.752 5.54189L16.1269 6.28793C16.2519 6.53792 16.4549 6.73712 16.701 6.86211L17.4546 7.241C17.9154 7.47145 18.1966 7.95579 18.1653 8.47138L18.1145 9.30336C18.0989 9.58068 18.1731 9.85801 18.3254 10.0885L18.7862 10.7837C19.0713 11.2134 19.0713 11.7759 18.7862 12.2055L18.3254 12.9047C18.1731 13.139 18.0989 13.4125 18.1145 13.6898L18.1653 14.5218C18.1966 15.0374 17.9154 15.5217 17.4546 15.7521L16.7088 16.1271C16.4588 16.2521 16.2597 16.4552 16.1347 16.7013L15.756 17.4552C15.5256 17.9161 15.0413 18.1973 14.5259 18.1661L13.6941 18.1153C13.4169 18.0996 13.1396 18.1739 12.9092 18.3262L12.2142 18.7871C11.7846 19.0722 11.2223 19.0722 10.7927 18.7871L10.0938 18.3262C9.85946 18.1739 9.58611 18.0996 9.30886 18.1153L8.47711 18.1661C7.96165 18.1973 7.47744 17.9161 7.24704 17.4552L6.87217 16.7091C6.74721 16.4591 6.54415 16.2599 6.29814 16.1349L5.54448 15.7561C5.08369 15.5256 4.80254 15.0413 4.83378 14.5257L4.88454 13.6937C4.90016 13.4164 4.82597 13.139 4.67367 12.9086L4.21679 12.2094C3.93173 11.7798 3.93173 11.2173 4.21679 10.7876L4.67367 10.0924C4.82597 9.85801 4.90016 9.58459 4.88454 9.30726L4.83378 8.47529C4.80254 7.9597 5.08369 7.47535 5.54448 7.2449L6.29033 6.86993C6.54024 6.74103 6.7433 6.53792 6.86826 6.28793L7.24314 5.54189C7.47353 5.08098 7.95775 4.79975 8.4732 4.831L9.30496 4.88178C9.58221 4.8974 9.85946 4.82319 10.0899 4.67085L10.7888 4.21385ZM14.6235 11.4985C14.6235 9.77208 13.2255 8.37373 11.4995 8.37373C9.77355 8.37373 8.37558 9.77208 8.37558 11.4985C8.37558 13.225 9.77355 14.6233 11.4995 14.6233C13.2255 14.6233 14.6235 13.225 14.6235 11.4985ZM4.05278 21.2557L5.73582 17.252C5.74363 17.256 5.74754 17.2599 5.75144 17.2677L6.12632 18.0137C6.5832 18.9199 7.5321 19.4707 8.54739 19.4121L9.37915 19.3613C9.38696 19.3613 9.39868 19.3613 9.40649 19.3691L10.1016 19.83C10.3007 19.9589 10.5116 20.0605 10.7303 20.1308L9.262 23.6188C9.17219 23.8336 8.97304 23.9782 8.74264 23.9977C8.51225 24.0172 8.28967 23.9118 8.16471 23.7165L6.90731 21.7908L4.71663 22.115C4.49404 22.1463 4.27146 22.0564 4.13088 21.8806C3.9903 21.7049 3.96297 21.4627 4.04888 21.2557H4.05278ZM13.7371 23.6149L12.2688 20.1308C12.4875 20.0605 12.6984 19.9628 12.8975 19.83L13.5926 19.3691C13.6004 19.3652 13.6082 19.3613 13.6199 19.3613L14.4517 19.4121C15.467 19.4707 16.4159 18.9199 16.8728 18.0137L17.2476 17.2677C17.2516 17.2599 17.2555 17.256 17.2633 17.252L18.9502 21.2557C19.0361 21.4627 19.0049 21.701 18.8682 21.8806C18.7315 22.0603 18.505 22.1502 18.2825 22.115L16.0918 21.7908L14.8344 23.7126C14.7094 23.9079 14.4868 24.0133 14.2564 23.9938C14.0261 23.9743 13.8269 23.8258 13.7371 23.6149Z" fill="#FCE058"/>
</g>
<defs>
<filter id="filter0_d_7534_9466" x="0" y="0" width="23" height="28" filterUnits="userSpaceOnUse" color-interpolation-filters="sRGB">
<feFlood flood-opacity="0" result="BackgroundImageFix"/>
<feColorMatrix in="SourceAlpha" type="matrix" values="0 0 0 0 0 0 0 0 0 0 0 0 0 0 0 0 0 0 127 0" result="hardAlpha"/>
<feOffset/>
<feGaussianBlur stdDeviation="2"/>
<feComposite in2="hardAlpha" operator="out"/>
<feColorMatrix type="matrix" values="0 0 0 0 0.956863 0 0 0 0 0.960784 0 0 0 0 0.282353 0 0 0 0.54 0"/>
<feBlend mode="normal" in2="BackgroundImageFix" result="effect1_dropShadow_7534_9466"/>
<feBlend mode="normal" in="SourceGraphic" in2="effect1_dropShadow_7534_9466" result="shape"/>
</filter>
</defs>
</svg>
